<?xml version="1.0" encoding="utf-8"?>
<!-- Generator: Adobe Illustrator 25.4.1, SVG Export Plug-In . SVG Version: 6.00 Build 0)  -->
<svg version="1.1" id="Capa_1" xmlns="http://www.w3.org/2000/svg" xmlns:xlink="http://www.w3.org/1999/xlink" x="0px" y="0px"
	 viewBox="0 0 1000 1000" style="enable-background:new 0 0 1000 1000;" xml:space="preserve">
<style type="text/css">
	.st0{fill:url(#SVGID_1_);}
	.st1{opacity:0.6;}
	.st2{fill:#FFFFFF;}
	.st3{opacity:0.3;}
	.st4{fill:#000072;}
	.st5{fill:url(#SVGID_00000119076095797633863980000007121498719791069862_);}
	
		.st6{fill:url(#SVGID_00000103248540363894799120000014204196441964388790_);stroke:#000000;stroke-width:11.749;stroke-miterlimit:10;}
	.st7{opacity:0.2;}
	.st8{fill:#A10056;}
	.st9{fill:#FFB839;}
	.st10{opacity:0.7;}
	.st11{opacity:0.35;}
	.st12{fill:none;stroke:#000000;stroke-width:11.749;stroke-miterlimit:10;}
	.st13{fill:url(#SVGID_00000021834428880592188570000010052605224915420602_);}
	.st14{opacity:0.4;}
</style>
<g>
	<g>
		
			<linearGradient id="SVGID_1_" gradientUnits="userSpaceOnUse" x1="1547.609" y1="-223.5994" x2="1677.4053" y2="-223.5994" gradientTransform="matrix(-1 0 0 -1 1902.8634 92.6)">
			<stop  offset="0" style="stop-color:#E6007A"/>
			<stop  offset="0.3" style="stop-color:#E30078"/>
			<stop  offset="0.52" style="stop-color:#DA0074"/>
			<stop  offset="0.71" style="stop-color:#CA006B"/>
			<stop  offset="0.89" style="stop-color:#B3005F"/>
			<stop  offset="1" style="stop-color:#A10056"/>
		</linearGradient>
		<path class="st0" d="M227.7,313.9c0.7-1.8,1.5-3.5,2.5-5.2c-0.5-1.5-0.9-2.9-1.3-4.3l0,0c-3.4-13-2.4-24.2,1.2-31.9
			c3.2-6.9,8.6-10.8,14.8-10.4c1,0.1,1.9,0.2,2.8,0.5l0.4,0.1c-0.2-0.3-0.3-0.6-0.4-0.9c-1.9-3.8-3-8-3.2-12.3
			c-0.2-4.8,0.8-9.6,2.9-14.4c0.1-0.3,0.3-0.6,0.5-0.9c2.4-4,7.6-5.3,11.6-2.9c39.5,23.8,71.6,52.5,95.7,86.6
			c-17.1,3-28.2,8.1-35.5,20.5c-2.4,4.1-4.4,8.9-6.2,14.7c-3.5,11.8-5.7,27.5-7.3,48.8C272,398.6,213.3,351.6,227.7,313.9z"/>
		<g class="st1">
			<path class="st2" d="M342,321.3c4.3-1.4,8.7-2.5,13.2-3.2c-24.1-34.1-56.2-62.8-95.7-86.6c-0.3-0.2-0.6-0.3-0.9-0.5
				c-4.2-1.9-9.3,0-11.2,4.2c-0.5,1-0.8,2-1.2,3.1c1.2,0.1,2.4,0.5,3.5,1.2C287.4,262.2,318.4,289.3,342,321.3z"/>
		</g>
		<path d="M305.7,408c-25.3-2.6-64.3-27-79.9-57.8c-7.6-15.1-8.3-29.6-2-42.1c-5.4-18.6-3-36.4,6.3-45.9c2.6-2.7,5.8-4.6,9.4-5.5
			c-1.9-7.9-1.1-15.9,2.5-23.9c0.2-0.5,0.5-1.1,0.8-1.6c4.1-6.8,13-9,19.8-4.9c40.6,24.5,73.4,54.2,97.5,88.3c0.5,0.7,0.9,1.6,1,2.4
			c0.6,3.3-1.6,6.4-4.9,6.9c-29.9,5.2-39.3,16.2-44,78.5c-0.2,3.1-2.8,5.5-6,5.5C306.1,408.1,305.9,408.1,305.7,408z M345,314.2
			c-22.5-29.6-52.3-55.7-88.5-77.6c-0.6-0.4-1.3-0.5-2-0.2c-0.7,0.2-1.2,0.7-1.5,1.3c-3.4,7.7-3.2,15,0.5,22.4
			c0.7,1.4,0.9,3,0.4,4.5c-1,3.2-4.4,4.9-7.5,3.9c-2.9-0.9-5.5-0.2-7.8,2.1c-5.3,5.3-8.4,18.9-2.7,36.2c0.5,1.6,0.3,3.4-0.5,4.9
			c-5.6,9.5-5.2,20.7,1.1,33c12.1,23.9,42.7,45,64.4,50.2C305.5,341.3,315.6,322.1,345,314.2L345,314.2z"/>
		<path d="M242.4,264.3c-1.9-7.9,9.6-10.8,11.6-2.9c2.5,11.1,9.9,20.9,18,29.1c8.5,8.6,18.3,16.3,28.3,23.6c1.6,1.2,2.1,3.5,1,5.2
			c-1.1,1.8-3.5,2.4-5.3,1.2c-10.7-6.8-21.2-14.1-30.8-22.9C255.2,288.5,246.2,277.8,242.4,264.3L242.4,264.3z"/>
		<path d="M225.3,312.3c-4.8-6.7,5.1-13.6,9.8-6.9c5.7,8.8,12.6,16.7,20.5,23.6c7.9,6.9,16.9,12.8,26.4,17.7l0,0
			c1.7,0.8,2.5,2.8,1.7,4.6c-0.8,1.7-2.8,2.5-4.6,1.7C258.3,344.2,239.1,330.5,225.3,312.3L225.3,312.3z"/>
		<g class="st3">
			<path class="st4" d="M247.8,262c-1.9-3.8-3-8-3.2-12.3L247.8,262z"/>
		</g>
		<g class="st3">
			<path d="M229,304.5L229,304.5c0.9-3.1,2.2-6.1,3.9-8.9c-2.5-8.4-3.3-16.2-2.7-22.9c3.2-6.9,8.6-10.8,14.8-10.4
				c1,0.1,1.9,0.2,2.8,0.5c0.2,3.8,0.9,7.6,2.1,11.2c5.1,15.5,17.6,22.9,20.8,24.6c-0.2,5.3,0.8,10.5,2.7,15.4
				c9.1,22.5,37.5,27.4,41.8,28c-3.8,11.7-6.3,27.4-8.4,48.7c-30.3-3.8-78.9-42.1-79.1-76.7C227.7,310.7,228.1,307.6,229,304.5z"/>
		</g>
		<g class="st3">
			<path class="st4" d="M423.4,432.2l-2.7-0.1C421.6,432,422.5,432.1,423.4,432.2z"/>
		</g>
	</g>
	<g>
		
			<linearGradient id="SVGID_00000008844641323070223170000010131875630351597496_" gradientUnits="userSpaceOnUse" x1="4112.2803" y1="-1043.3341" x2="4479.0464" y2="-1043.3341" gradientTransform="matrix(-0.6826 0.4199 0.5239 0.8518 4259.9858 -504.448)">
			<stop  offset="0" style="stop-color:#E6007A"/>
			<stop  offset="0.3" style="stop-color:#E30078"/>
			<stop  offset="0.52" style="stop-color:#DA0074"/>
			<stop  offset="0.71" style="stop-color:#CA006B"/>
			<stop  offset="0.89" style="stop-color:#B3005F"/>
			<stop  offset="1" style="stop-color:#A10056"/>
		</linearGradient>
		<path style="fill:url(#SVGID_00000008844641323070223170000010131875630351597496_);" d="M695.8,346c0.1,0,0.3,0,0.4,0
			c2.2-0.1,4.3-0.3,6.5-0.5c0.8-0.1,1.7-0.1,2.5-0.2c0.2,0,0.3,0,0.4,0c0.7,0,1.3-0.1,2-0.2c3.1-0.3,6-1.2,9-1.9
			c1.6-0.4,3.2-0.7,4.9-1c0.3,0,0.7-0.1,1-0.1c0.3,0,0.5-0.1,0.5-0.1c0.6,0,1.2,0.1,1.8,0.1c1.8,0.1,3.4-0.6,4.4-1.8
			c5-0.5,10-1.3,14.9-2.2c11.1-2.1,24.1-6.6,50.1-15.6c11.7-4,21.7-7.8,33.3-15c7.6-4.7,6.7-4.3,10.3-6.8c8.3-5.7,17.7-7.8,26.7-6.4
			c6.6,1.1,13,4.1,18.3,9.1c1.5,1.4,2.9,2.9,4.2,4.5c1.3,1.6,2.8,3.1,4.4,4.4c10.9,8.9,16.8,26.7,15.1,41.5
			c-0.4,3.6-0.2,7.3,0.4,11.1c16.2,90.8-86.6,162.8-180.8,150.1c-1.5-0.2-2.9-0.4-4.4-0.7c-0.8-0.1-1.6-0.3-2.5-0.4
			c-2.1-0.4-4.1-0.8-6.2-1.2c-2.5-0.5-5.1-1.2-7.6-1.9c-37.6-13.7-63.3-37.5-76.7-71.7C670.1,439.6,698,403.1,695.8,346z"/>
		<path d="M705.6,508.8c-2.6-0.3-2.6,3.3-0.2,4.3c49.7,17.2,99.2,5.4,138.7-17.5c39.2-23.5,75-65.5,69.3-122.7
			c-0.3-3-1.8-11.4-1.6-14.2c0-1.3,0.2-3.1,0.3-4.5c1-14.9-3.6-31.7-15.4-43.8c-1.7-1.7-3.7-3.1-5.3-4.9c-5.7-7.3-13.1-12.8-21-15.4
			c-13.8-4.6-27.2-0.9-37.4,6.4c-6.7,4.6-14.3,9.2-21.4,13c-39.2,22.4-83.7,32.4-130.2,37c-0.8,0.1-1.3,0.8-1.3,1.7
			c0.1,1.1,0.9,2.1,1.9,2.3c56.9,7.8,113.7-15.4,157.8-43.4c8.2-5.7,18.6-8.9,29.3-5.4c5.9,1.9,11,6.1,15.1,11.5
			c1.8,2.2,4.1,3.9,6,5.7c3.8,3.8,6.8,9.2,8.6,14.9c1.9,5.8,2.6,11.6,2.1,17.3c-0.4,3.6-0.5,7.3-0.1,11.1l1.4,10
			c0.8,6.2,0.7,12.6,0.4,18.6c-1.5,18.5-7.9,35-17,49.2C847.6,496.6,776.4,521.4,705.6,508.8L705.6,508.8z"/>
		<path d="M896.3,312.1c-2.1-7.2-11.2-6.6-9.9,0.7c0.9,4.1,0.6,8.2-0.4,12c-3.6,12.5-12,21.9-20.5,30.7c-5.9,6-12.4,11.4-19,16.8
			s-13.4,10.4-20.2,15.7c-0.9,0.7-1.1,2.1-0.5,3.4c0.7,1.5,2.3,2.3,3.6,1.8C854.3,382.7,905.8,349.4,896.3,312.1L896.3,312.1z"/>
		<path d="M911.4,356.8c1.7-6.6-7.5-11.7-9.8-5.5c-3.3,9.4-7.5,18.4-12.4,26.7c-9.9,16.7-23.1,30.5-38.2,41.6
			c-7.7,5.6-15.7,10.8-24,15.4c-0.9,0.5-1.3,1.8-0.8,3c0.6,1.4,1.9,2.2,3.1,1.8C867.6,428.3,899.6,398.8,911.4,356.8L911.4,356.8z"
			/>
		<g class="st3">
			<path d="M891.3,312.6c-1.6-1.3-3.1-2.8-4.4-4.4c-1.3-1.6-2.7-3.2-4.2-4.5c-5.4-5-11.7-8.1-18.3-9.1c-5.8,1-11.6,2.6-17,4.2
				c9.3-0.4,19.3,8.3,23.4,18.6c4.1,10.2,3.3,21.2-0.2,30.2s-9.2,16.1-14.9,23.2c9.7,7.9,12.3,23.1,8.6,33.6
				c-3.7,10.5-11.9,17.5-19.9,24.1c7,1.4,12.6,10,13.3,17.6c0.7,7.6-2.4,14.3-6.4,19.7c-8.4,11.1-20.6,17.9-33,23.5
				c-32,14.3-66.9,22.3-103.5,23.6l-1.7,0.3c2.1,0.5,4.1,0.9,6.2,1.2c0.8,0.2,1.7,0.3,2.5,0.4c1.5,0.3,2.9,0.5,4.4,0.7
				c94.1,12.7,196.9-59.3,180.8-150.1c-0.7-3.8-0.8-7.5-0.4-11.1C908.1,339.3,902.3,321.5,891.3,312.6z"/>
		</g>
	</g>
	
		<linearGradient id="SVGID_00000010306380876195081320000010692619876355138180_" gradientUnits="userSpaceOnUse" x1="275.3247" y1="469.3421" x2="786.0188" y2="469.3421">
		<stop  offset="0" style="stop-color:#E6007A"/>
		<stop  offset="0.3" style="stop-color:#E30078"/>
		<stop  offset="0.52" style="stop-color:#DA0074"/>
		<stop  offset="0.71" style="stop-color:#CA006B"/>
		<stop  offset="0.89" style="stop-color:#B3005F"/>
		<stop  offset="1" style="stop-color:#A10056"/>
	</linearGradient>
	
		<ellipse style="fill:url(#SVGID_00000010306380876195081320000010692619876355138180_);stroke:#000000;stroke-width:11.749;stroke-miterlimit:10;" cx="530.7" cy="469.3" rx="255.3" ry="253.6"/>
	<g class="st1">
		<path class="st2" d="M396.1,248.9c-28.6,18.1-51.8,43.4-68.5,72.7c-13.1,22.9-26.4,42.1-40.7,58.3c-0.1,3.2-0.7,6.3-1.7,9.4
			c-0.8,2.5-1.7,4.9-2.5,7.3c2.5,3.1,5.1,6,7.8,8.9c15.8-17.1,30.4-37.7,44.6-62.6c16.7-29.3,39.9-54.6,68.5-72.7
			C532.2,189,713,248,769.3,386.3C723.6,232.9,531.1,163.6,396.1,248.9z"/>
	</g>
	<polygon class="st2" points="282.3,401.7 319.5,418.5 378.7,455.7 429.9,452.2 453.1,430.1 470,419.1 488.5,425.5 500.8,437.1 
		521.7,452.2 546.6,458.6 598.4,463.2 704.1,458.6 773.8,399.3 784.3,435.4 784.9,501.6 761,577.7 712.2,648 648.3,694.5 
		600.1,713.1 514.7,725.9 406.6,692.7 335.2,632.9 291,563.2 274.7,496.4 276.5,427.8 	"/>
	<g class="st7">
		<path d="M551.4,706c-0.1,0-0.3,0-0.4,0c-0.1-0.1-0.3-0.1-0.5,0c-1.1,0.4-2.2,0.8-3.2,1.1c0,0,0,0,0,0c-6.6,1.7-13.2,3.4-19.9,4.8
			c0,0,0,0-0.1,0c-23.3,3.4-47.7-0.5-68.6-11.2c-0.4-0.2-0.9,0-0.9,0.5c-0.8,3.9-1.7,7.7-2.7,11.5c6,1.4,11.8,3.6,17.6,5.9
			c0.6,0.2,1.1,0.5,1.7,0.7c4.7,0.2,9.4,1.1,14.1,1.9c1.5,0.3,3,0.5,4.5,0.7c0.2,0,0.5,0.1,0.7,0.1c0.1,0,0.2,0,0.3,0
			c0.6,0.1,1.2,0.1,1.9,0.2c2.9,0.2,5.8,0.2,8.6,0.2c5.8,0,11.6,0,17.4,0.2c5.6,0.2,11.1,0.5,16.7,0.2c11.3-0.6,22.5-2.6,33.8-2.6
			c4.5,0,9.1,0.1,13.6,0.1c0.3-0.1,0.5-0.2,0.8-0.3c1.5-0.7,3-1.3,4.5-2c3.2-1.4,6.4-2.9,9.6-4.3c7-3,14.2-5.3,21.5-7.3
			c8.8-5.7,17.7-11.3,26.5-17c17.2-11.1,35.6-20.1,52.8-31.3c2.2-1.5,4.4-2.9,6.6-4.5c0.3-0.2,0.7-0.5,1-0.7c0.1-0.1,0.9-0.7,1-0.8
			c0.8-0.7,1.6-1.4,2.4-2.1c3.6-3.2,7-6.6,10.2-10.2c1.7-1.8,3.3-3.7,4.8-5.7c0.6-0.8,1.3-1.6,1.9-2.4c-0.1,0.2-0.2,0.3-0.3,0.4
			c0.2-0.3,0.5-0.7,0.6-0.8c0.4-0.5,0.7-1,1.1-1.5c2.8-3.8,5.6-7.8,8.2-11.7c5.6-8.5,10.9-17.2,16.5-25.7
			c5.6-8.7,11.4-17.4,15.6-26.8c0.1-0.3,0.2-0.5,0.3-0.8c0-0.1,0.1-0.1,0.1-0.2c0.2-0.6,0.5-1.2,0.7-1.8c0.4-1,0.8-2,1.1-3
			c0.8-2.2,1.6-4.4,2.3-6.6c1.5-4.7,2.9-9.4,4.2-14.2c0.6-2.2,1.2-4.4,1.8-6.6C723.9,625.6,645.3,680.2,551.4,706z"/>
	</g>
	<path class="st8" d="M702.3,414.4c-7.6,8.4-16.8,8.7-26.7,0.3c-9.3-12.9-27.7-12.5-39.8-4.6c-18.5,21-39.2,16.7-61,0l-15.4,22.5
		c-7.8,11.4-21.2,17.2-34.2,14.2l-0.2-0.1c-7.6-1.8-15-5.2-20.8-11c-4.1-4.1-7.4-8.7-12-12.2c-11.2-8.6-23.2-12.6-35.5-4
		c-4.2,2.9-7.8,6.6-10.8,10.9l-0.1,0.2c-6.2,8.7-15.8,13.8-26,14c-50.7,0.6-89.1-26.8-115.4-82.2c-0.3,0.7-0.6,1.3-1,2
		c-2,4.9-4.1,9.8-6.4,14.6c-3.5,7.4-7.5,14.6-11.2,22c-0.7,2.6-1.4,5.2-2.1,7.8c36.9,58.7,98.2,76.7,145.3,46.9
		c2.1-1.3,4.3-2.4,6.6-3.3c4.7-2,9-5,12.3-9.2c3.6-4.4,6-9.6,10.2-13.5c13.8-12.6,27.7-1.7,37.9,10c7.2,8.3,16.6,13.4,26.7,15.8
		c4.6,2.8,9.9,4.5,15.1,5.4c8.7,1.4,17.6,0.7,26.3,1.1h0.1c8.8,0.4,17.2,4,23.8,10.2c17.1,16.2,32.3,39.8,46,69
		c2,4.3,7.9,4.3,9.8-0.2c15.1-34.9,42.2-64.2,77.1-89.8L702.3,414.4z"/>
	<g class="st3">
		<path d="M618.4,471.8c10.6,28,30.7,39.8,59.9,35.1c-10.6,14.5-26.5,24.3-44.2,27.2c-3.4,0.6-7,0.8-10.1-0.5
			c-3.5-1.5-5.8-4.7-7.7-7.9c-9.2-16-9.2-37,0-53.1"/>
	</g>
	<path class="st9" d="M647.2,441.6c1.1-0.4,2.2-0.7,3.3-0.9c4.2-0.7,8.6,0.1,12.3,2.3c20,11.8,30,32.2,27.7,54.2
		c-3.7,3.3-7.9,5.9-12.5,7.7c-10.5,4.4-23.4,5.6-37.5,5.1c-5.2-0.2-10-2.7-12.7-6.8C615.4,483.7,616.5,453.3,647.2,441.6z"/>
	<g class="st3">
		<path d="M650.5,440.7c4.2-0.7,8.6,0.1,12.3,2.3c20,11.8,30,32.2,27.7,54.2c-3.7,3.3-7.9,5.9-12.5,7.7c-9.2,2.6-19.7,3.3-31.1,2.8
			c-5.2-0.2-10-2.7-12.6-6.8C622.3,482.2,622.9,453.2,650.5,440.7z"/>
	</g>
	<path d="M640.3,514.5c-6.8-0.3-12.9-3.6-16.3-8.9c-8.1-12.7-10.3-28.1-6-41.2c2.9-8.6,10-20.3,27.5-27l0,0
		c6.4-2.4,13.6-1.8,19.5,1.7c21.2,12.6,32.4,34.4,29.9,58.5c-0.1,1.1-0.6,2.1-1.5,2.9c-10.6,9.5-25.6,14.1-46.9,14.1
		C644.5,514.6,642.4,514.6,640.3,514.5z M686.1,495c1.4-19.8-8.1-37.7-25.7-48.1c-3.5-2.1-7.8-2.5-11.7-1.1l0,0
		c-11.3,4.3-19,11.7-22.2,21.4c-3.4,10.4-1.5,23.2,5,33.5c1.8,2.8,5.2,4.6,9,4.7C661.8,506.3,676.3,503,686.1,495L686.1,495z"/>
	<path class="st9" d="M667.2,445.9c-15.1-11.3-29.3-3.4-43,15.3c15.1,31.4,39.6,48.9,66.2,35.9C692.8,473.9,682.5,458.3,667.2,445.9
		z"/>
	<path d="M624.2,461.3c15.2,31.5,39.6,48.9,66.3,35.9l-0.1-0.2c-20.3,5.1-38.9-6.8-52.1-28.1c-3.3-5.3-2.5-12.1,1.8-16.6
		c5.7-5.9,11.5-9.8,17.4-11.1C646,438.6,635,446.6,624.2,461.3z"/>
	<path d="M659.4,502.9c-14.9-5.2-28.6-19.4-38.6-40.1c-0.6-1.2-0.5-2.7,0.4-3.8c9.7-13.3,19-20.4,28.5-21.8c6.7-1,13.3,0.9,19.8,5.8
		c18.9,15.4,26.8,32.7,24.6,54.5c-0.1,1.3-0.9,2.4-2.1,3c-6.5,3.1-12.9,4.7-19.3,4.7C668.2,505.2,663.7,504.5,659.4,502.9z
		 M686.9,494.7c1.2-18.3-5.6-32.6-21.9-45.8c-4.8-3.6-9.4-5-14.1-4.3c-6.9,1-14.4,6.8-22.2,17c9,17.7,20.7,29.8,33.3,34.2
		C670,498.7,678.5,498.3,686.9,494.7L686.9,494.7z"/>
	<g class="st10">
		<path class="st2" d="M658.8,451c12.3,5.2,24.7,20.2,24.7,36.9C670.1,478,667.6,463,658.8,451z"/>
	</g>
	<ellipse cx="547.7" cy="406.2" rx="41.2" ry="50.3"/>
	<ellipse class="st2" cx="563.6" cy="397.7" rx="12.6" ry="19.2"/>
	<g class="st11">
		
			<ellipse transform="matrix(0.9536 -0.3012 0.3012 0.9536 -103.9411 180.1835)" class="st2" cx="532.3" cy="427.2" rx="9.7" ry="14.8"/>
	</g>
	<ellipse cx="731" cy="406.2" rx="41.2" ry="50.3"/>
	<ellipse class="st2" cx="715" cy="397.7" rx="12.6" ry="19.2"/>
	<g class="st11">
		
			<ellipse transform="matrix(0.3012 -0.9536 0.9536 0.3012 114.143 1010.2339)" class="st2" cx="746.3" cy="427.2" rx="14.8" ry="9.7"/>
	</g>
	<ellipse class="st12" cx="530.7" cy="469.3" rx="255.3" ry="253.6"/>
	<g>
		
			<linearGradient id="SVGID_00000022541064749201164680000012606820421586541984_" gradientUnits="userSpaceOnUse" x1="56.3833" y1="515.4083" x2="423.1494" y2="515.4083">
			<stop  offset="0" style="stop-color:#E6007A"/>
			<stop  offset="0.3" style="stop-color:#E30078"/>
			<stop  offset="0.52" style="stop-color:#DA0074"/>
			<stop  offset="0.71" style="stop-color:#CA006B"/>
			<stop  offset="0.89" style="stop-color:#B3005F"/>
			<stop  offset="1" style="stop-color:#A10056"/>
		</linearGradient>
		<path style="fill:url(#SVGID_00000022541064749201164680000012606820421586541984_);" d="M288.4,415.8c-0.2,0.1-0.3,0.1-0.4,0.2
			c-2.4,1.1-4.8,2-7.2,3c-0.9,0.4-1.9,0.8-2.8,1.1c-0.2,0.1-0.3,0.1-0.4,0.2c-0.7,0.3-1.5,0.6-2.2,0.9c-3.5,1.3-7.2,2.1-10.8,3.1
			c-2,0.5-3.9,1.1-5.9,1.7c-0.4,0.1-0.8,0.3-1.1,0.4c-0.4,0.1-0.6,0.2-0.6,0.2c-0.6,0.3-1.3,0.7-1.8,1c-1.9,1.1-4,1.3-5.9,0.8
			c-5.7,2.2-11.4,4.1-17.2,6c-13.2,4.1-29.9,7-63.4,13c-15.1,2.7-28.2,4.7-45.3,4.7c-11.2,0-9.9-0.1-15.4-0.3
			c-12.5-0.5-24,2.6-32.5,8.6c-6.3,4.4-11.1,10.3-13.5,17.4c-0.7,2-1.2,4-1.5,6.1c-0.3,2.1-0.9,4.1-1.8,6.1
			c-5.8,13.3-0.4,31.5,11,43.2c2.8,2.9,5.1,6.1,6.8,9.7c42.2,85.8,198.5,93.2,290.2,33.1c1.4-0.9,2.9-1.9,4.3-2.9
			c0.8-0.5,1.6-1.1,2.4-1.7c2-1.4,3.9-2.8,5.8-4.3c2.3-1.8,4.6-3.7,6.8-5.6c31.1-31.4,42.8-65.1,34.7-101.2
			C376.9,482,323.4,465.5,288.4,415.8z"/>
		<path d="M384.4,559.6c2.5-1.6,4.9,1.4,3,3.5c-41.6,40.7-102,56.5-158.9,57.7c-57,0.5-122.6-16.4-153.9-68.2
			c-1.6-2.7-5.6-10.7-7.6-12.9c-0.8-1.1-2.3-2.6-3.2-3.6c-10.8-12.2-16.9-28.9-12.3-45.3c0.7-2.3,1.9-4.6,2.4-7
			c1.2-9.2,5.5-17.7,12.2-24.2c11.7-11.1,28.4-15,43.9-14.1c10.1,0.4,21.2,0.3,31.3-0.2c56.3-1.5,110.1-16.3,162.5-36.7
			c0.9-0.3,2,0,2.5,0.8c0.6,1,0.4,2.3-0.6,2.9c-55.4,36.4-130.9,46.4-196.1,45.7c-12.4-0.6-25.6,2.1-34.7,10.8
			c-5,4.7-7.7,11-8.6,17.7c-0.5,2.8-1.8,5.4-2.7,8c-1.6,5.2-1.2,11.4,0.6,17.2c1.8,5.9,4.9,11.3,9,15.8c2.7,2.8,5.3,6,7.3,9.4
			l5.1,9.3c3.2,5.7,7.5,11.1,11.7,16c13.7,14.9,31.2,25.7,50.2,33C225.5,623.6,317.4,607.4,384.4,559.6L384.4,559.6z"/>
		<path d="M53.1,491.9c-2.5-7.2,7.6-11.5,11-4.6c1.8,4,4.7,7.3,8.2,10c12.1,8.7,27.1,12.4,41.9,15.4c10.2,2,20.6,3.2,31.1,4.3
			c10.5,1.1,21,1.9,31.7,2.8c1.4,0.1,2.6,1.2,2.8,2.6c0.2,1.7-1,3.2-2.6,3.4C144,530.1,67.5,528.7,53.1,491.9L53.1,491.9z"/>
		<path d="M66.3,537.9c-6.1-4.7,0.3-13.9,6.8-9.9c9.7,6.3,20,11.7,30.7,16.2c21.5,9.1,44.5,13.8,67.8,15.4c11.8,0.8,23.7,1,35.5,0.5
			c1.3-0.1,2.5,0.9,2.8,2.2c0.3,1.5-0.6,2.9-2.1,3.2C159.7,575.9,106.3,567.6,66.3,537.9L66.3,537.9z"/>
		<g class="st3">
			<path d="M58.7,489.8c0.9-1.9,1.5-4,1.8-6.1c0.3-2.1,0.8-4.1,1.5-6.1c2.4-7.1,7.2-13,13.5-17.4c6.8-2.2,14-3.9,20.8-5.4
				c-10.2,4.5-15,17.2-12.7,28.1c2.3,10.9,10.4,19.8,19.9,25.6s20.3,8.9,31,11.9c-5.2,11.8,2.1,26.1,12.9,33.1s24.1,8.7,36.9,10.1
				c-6.5,4.9-6.9,15.1-2.7,22c4.2,6.9,11.9,10.9,19.7,13.4c16.2,5.1,33.6,4.4,50.5,2.7c43.4-4.5,85.7-16,125.4-34.1l2-0.6
				c-1.9,1.5-3.8,2.9-5.8,4.3c-0.8,0.6-1.6,1.1-2.4,1.7c-1.4,1-2.8,1.9-4.3,2.9c-91.7,60.1-248.1,52.7-290.2-33.1
				c-1.7-3.6-4-6.8-6.8-9.7C58.3,521.3,53,503.1,58.7,489.8z"/>
		</g>
	</g>
	<path class="st9" d="M658.4,691.4c-0.5-0.5-1-1-1.5-1.4c0,0,0.1,0,0.1,0c10.8-3.5,19-7.4,24.7-11.8l3.4,4l0.1,0.1l5.4,6.3
		l10.4,12.1c1.8,2.1,4.2,3.4,6.9,3.6l0.9,0.1c3.3,0.3,6.7-0.7,9.3-2.9l42.2-35.1c3.8-3.2,8.8-4.6,13.6-3.5
		c6.7,1.6,11.6,7.6,11.2,15.1c-0.1,2.2-0.7,4.4-1.6,6.4c1.8-0.2,3.6-0.1,5.3,0.3c1.5,0.3,3,0.9,4.4,1.7c6.2,3.7,7.8,11.7,3.7,17.9
		c-1.2,1.8-2.8,3.2-4.6,4.2c-19.6,11.9-50.8,17.8-84,28.7c-1.6,0.5-3.1,1.4-4.4,2.6c-5.3,4.8-9.6,9.6-12.9,14.4
		c-3.5,5.1-9.2,8.1-15.1,7.6c-1.9-0.1-3.7-0.7-5.4-1.5c-2.5-1.3-4.5-3.4-5.7-6c-3.3-6.5-1.7-14.5,3.5-19.4l11.3-11
		c1.9-1.8,2.2-4.7,0.8-6.9C674.4,708.3,666.9,699.8,658.4,691.4z"/>
	<g class="st1">
		<path class="st2" d="M784.9,675.5c-0.6-6.4-5.1-11.3-11.1-12.7c-4.7-1.1-9.7,0.3-13.6,3.5L718,701.4c-2.6,2.2-6,3.2-9.3,2.9
			l-0.9-0.1c-2.6-0.3-5.1-1.6-6.9-3.6l-10.4-12.1l-5.4-6.3l-0.1-0.1l-3.4-4c-5.6,4.4-13.9,8.3-24.7,11.8c0,0-0.1,0-0.1,0
			c0.5,0.5,1,1,1.5,1.4l1,1c3-1.1,6.3-2.5,9.7-4.1c3-1.4,5.7-2.9,8.2-4.4l4.4,5.8l0.1,0.1l5.7,6.6l11.1,12.7
			c1.9,2.2,4.5,3.5,7.3,3.8l0.9,0.1c3.6,0.4,7.1-0.7,9.9-3l44.9-36.6c4.1-3.3,9.4-4.8,14.4-3.6C779.5,670.5,782.6,672.5,784.9,675.5
			z"/>
	</g>
	<path d="M675.4,766c-6.3-0.5-11.4-4-14.3-9.7c-4.1-8.1-2.3-18.1,4.3-24.5l11.4-11c0.4-0.4,0.5-0.9,0.2-1.4
		c-5.4-8.2-12.8-16.8-22.7-26.4c-0.5-0.5-0.9-1.1-1.1-1.8c-0.6-2.2,0.5-4.6,2.6-5.2c10.5-3.4,18.4-7.1,23.6-11.2
		c1.6-1.3,3.9-1,5.3,0.6l19.2,22.4c1.1,1.3,2.7,2.1,4.3,2.3l0.9,0.1c2.3,0.3,4.7-0.5,6.5-2l42.2-35.1c4.9-4.1,11.1-5.7,16.9-4.3
		c5.6,1.3,10.1,5,12.5,10.1c1.7,3.6,2.2,7.6,1.5,11.5c5.4,0.9,9.8,3.9,12.3,8.6c3,5.5,2.6,12.3-0.9,17.7c-1.4,2.1-3.4,4-5.9,5.5
		c-13.8,8.4-32.4,13.7-53.9,19.8c-10,2.8-20.3,5.8-30.9,9.3c-1.1,0.4-2.2,1-3.1,1.8c-5,4.5-9.2,9.1-12.2,13.6
		c-4,5.9-10.5,9.4-17.1,9.4C676.5,766.1,676,766.1,675.4,766z M783.6,688.5c-0.7,0-1.3-0.1-1.9-0.4c-2-1-2.9-3.5-2-5.6
		c1.6-3.6,1.7-7.1,0.3-10c-1.3-2.8-3.9-4.9-7.1-5.7c-3.5-0.8-7.2,0.2-10.3,2.7l-42.2,35.1c-3.4,2.9-7.8,4.2-12.2,3.8l-0.9-0.1
		c-3.6-0.4-7-2.2-9.4-5l-16.9-19.7c-4.4,2.9-9.9,5.6-16.6,8.1c7.9,8.1,14.2,15.7,18.9,22.9c2.6,3.9,2,9.2-1.3,12.4l-11.4,11
		c-3.9,3.8-5,9.7-2.6,14.4c1.6,3.2,4.3,5,8,5.3c4.5,0.4,8.9-1.9,11.6-5.9c3.4-5.1,8-10.2,13.5-15.1c1.7-1.5,3.7-2.7,5.8-3.4
		c10.7-3.5,21.1-6.5,31.2-9.4c21-6,39.2-11.2,52-19c1.5-0.9,2.6-1.9,3.3-3c1.8-2.7,2-6.1,0.6-8.7c-1.6-3-4.9-4.6-9.1-4.6
		C784.6,688.5,784.1,688.5,783.6,688.5z"/>
	<path d="M780.5,681.4c3.8-4.3,9.6,1.8,5.7,5.8c-12.4,11.6-27.8,18.5-43,24.6c-2,0.7-3.2-2.3-1.3-3.3c7.1-3.6,14.1-7.6,20.7-12.1
		C769,692.2,775.5,687.3,780.5,681.4L780.5,681.4z"/>
	<g class="st14">
		<path d="M658.4,691.3c-0.4-0.5-0.9-1-1.3-1.5c10.8-3.5,19-7.4,24.7-11.8l3.4,4l0.1,0.1l-2,1.3c-2.6-1-5.2,2.1-5.4,5.1
			c-0.2,3,1.3,5.9,2.7,8.4c2.7,4.9,5.4,9.8,8.9,13.9c3.5,4.1,8.1,7.4,13.1,8.2c5.3,0.9,10.7-1,15.7-3.1c18.3-7.5,35.5-17.6,51.2-30
			c4.3-3.4,9.1-7.1,14-8.5c0.5,0.1,1,0.3,1.6,0.4c-0.1,2.2-0.7,4.4-1.6,6.4c1.8-0.2,3.6-0.1,5.3,0.3c1.5,0.3,3,0.9,4.4,1.7
			c1.1,3.8,0.7,8.2-1.7,11.9c-1.2,1.9-2.8,3.4-4.6,4.6c-19.7,12.8-50.9,19.3-84.2,31.1c-1.7,0.6-3.2,1.5-4.5,2.8
			c-5.3,5.1-9.7,10.2-13,15.4c-3.4,5.3-9,8.5-14.8,8.2c-2.5-1.3-4.5-3.4-5.7-6c-3.3-6.5-1.7-14.5,3.5-19.4l11.3-11
			c1.9-1.8,2.2-4.7,0.8-6.9C674.4,708.3,666.9,699.8,658.4,691.3z"/>
	</g>
	<path class="st2" d="M592.6,673.4c47,47.8,125.4,10,117.3-52.5C674.5,598.5,600.1,628.6,592.6,673.4z"/>
	<g class="st7">
		<path d="M596.6,662.7c-0.4-0.2-0.8,0-1,0.4c-1.4,3.3-2.4,6.8-3,10.4c47.7,48.5,127.6,8.9,116.9-55.2c-3,52.6-68.8,82.1-112.7,44.6
			C596.7,662.8,596.6,662.7,596.6,662.7z"/>
	</g>
	<path d="M708.7,621.1c0.1-0.4,0.3-0.8,0.7-1c0.6-0.3,1.3,0,1.6,0.7c1.4,3.6,2.2,7.3,2.4,11.2c0.2,3.9-0.2,7.7-0.7,11.6
		c-7.9,49.3-66.6,72-105.2,46.2c-3.1-2-6.1-4.2-8.9-6.6c-2.8-2.4-5.3-5.3-6.8-8.9c-0.5-0.9,0.5-2.1,1.4-1.7
		c6.5,2.5,11.5,7.5,17.8,10.2c29.2,14.3,67.3,5.3,86.3-22.6c3.8-5.5,6.6-11.7,8.2-18.2C707.2,635.1,707.5,628.1,708.7,621.1
		L708.7,621.1z"/>
	<path class="st2" d="M419.9,677.2c36.6,57,120.7,37.3,125-25.7C514.7,621.9,436,635,419.9,677.2z"/>
	<g class="st7">
		<path d="M425.9,667.6c-0.3-0.3-0.8-0.2-1.1,0.2c-2,2.9-3.7,6.1-5,9.5C457,735.1,543,713.9,545,648.8
			c-13.2,50.8-83.3,65.2-119,18.9C426,667.7,426,667.6,425.9,667.6z"/>
	</g>
	<path d="M543.7,651.4c0.1-0.4,0.5-0.7,0.9-0.8c0.7-0.1,1.3,0.3,1.4,1c0.7,3.8,0.7,7.7,0.2,11.5c-0.6,3.8-1.7,7.5-3,11.2
		c-17.4,46.5-79.2,55.9-112,22.2c-2.7-2.6-5.1-5.4-7.4-8.4c-2.3-3-4.1-6.4-5-10.2c-0.3-1,0.9-1.9,1.7-1.4c5.8,3.9,9.8,9.8,15.4,13.8
		c25.8,20.4,64.8,19.9,88.8-3.2c4.8-4.6,8.7-10,11.6-16C539.6,664.8,541.2,658,543.7,651.4L543.7,651.4z"/>
	<path class="st9" d="M502.9,708.9c-0.6-0.5-1.1-0.9-1.7-1.4c0,0,0.1,0,0.1-0.1c11.3-5,19.9-10.1,25.6-15.5l4.1,3.9l0.1,0.1l6.5,6.2
		l12.5,12c2.1,2,4.9,3.2,7.8,3.2h0.9c3.7,0,7.2-1.5,9.8-4.2l42.3-42.8c3.8-3.9,9.1-6,14.3-5.3c7.5,0.9,13.4,6.9,13.6,15.1
		c0.1,2.4-0.3,4.8-1.1,7.1c1.9-0.4,3.9-0.5,5.8-0.3c1.7,0.2,3.4,0.6,4.9,1.3c7.1,3.3,9.6,11.8,5.9,19c-1.1,2.1-2.7,3.8-4.5,5.1
		c-20.1,15.1-53.3,25.1-88.2,40.6c-1.7,0.8-3.3,1.9-4.6,3.3c-5.3,5.8-9.5,11.5-12.5,17.1c-3.2,5.9-9.2,9.8-15.7,10
		c-2,0.1-4.1-0.3-6-1.1c-2.8-1.1-5.2-3.2-6.8-5.9c-4.2-6.6-3.3-15.5,1.8-21.5l11.2-13.2c1.8-2.1,1.9-5.4,0.1-7.6
		C522,725.5,513,717.1,502.9,708.9z"/>
	<g class="st1">
		<path class="st2" d="M638.6,677.5c-1.3-6.9-6.7-11.7-13.3-12.5c-5.3-0.7-10.5,1.4-14.3,5.3l-42.3,42.8c-2.6,2.7-6.2,4.2-9.8,4.2
			h-0.9c-2.9,0-5.7-1.1-7.8-3.2l-12.5-12l-6.5-6.2l-0.1-0.1l-4.1-3.9c-5.7,5.4-14.3,10.6-25.6,15.5c0,0-0.1,0-0.1,0.1
			c0.6,0.5,1.1,0.9,1.7,1.4c0.4,0.3,0.8,0.7,1.2,1c3.1-1.6,6.5-3.4,10-5.6c3.1-1.9,5.9-3.8,8.4-5.7l5.3,5.8l0.1,0.1l6.9,6.5
			l13.3,12.5c2.3,2.1,5.2,3.3,8.3,3.3h1c3.9,0,7.6-1.6,10.5-4.4l45-44.8c4.1-4.1,9.7-6.3,15.3-5.6
			C632.1,672.6,635.8,674.5,638.6,677.5z"/>
	</g>
	<path d="M512.4,779.1c-5.2-8.3-4.3-19.4,2.2-27l11.2-13.2c0.4-0.4,0.4-1.1,0.1-1.5c-6.7-8.2-15.6-16.8-27.3-26.1
		c-0.6-0.5-1.1-1.1-1.4-1.9c-0.9-2.3,0.1-5,2.3-6c11-4.8,19.3-9.8,24.5-14.8c1.6-1.6,4.1-1.6,5.8,0l23.1,22.2c1.3,1.3,3.1,2,4.9,2
		h0.9c2.6,0,5-1,6.9-2.9l42.3-42.8c4.9-5,11.4-7.4,17.8-6.6c6.2,0.8,11.5,4.3,14.6,9.6c2.2,3.7,3.1,8,2.8,12.3
		c6,0.4,11.1,3.2,14.2,7.9c3.8,5.6,4.1,13,0.8,19.3c-1.3,2.5-3.3,4.7-5.8,6.6c-14.1,10.6-33.7,18.5-56.5,27.6
		c-10.5,4.2-21.4,8.6-32.6,13.5c-1.2,0.5-2.2,1.3-3.1,2.3c-5,5.5-9,10.9-11.9,16.2c-4,7.4-11.4,12.1-19.3,12.3h-0.5
		C521.7,788,516,784.9,512.4,779.1z M638.5,691.8c-0.7,0.1-1.5,0.1-2.2-0.2c-2.2-0.8-3.4-3.4-2.7-5.8c1.3-4.1,1.1-7.8-0.7-10.9
		c-1.7-2.9-4.8-4.9-8.3-5.3c-3.8-0.5-7.8,1-10.9,4.1l-42.3,42.8c-3.4,3.5-8,5.5-12.8,5.4h-0.9c-4,0-7.8-1.6-10.7-4.4L526.8,698
		c-4.5,3.6-10.2,7.2-17.2,10.6c9.4,7.9,16.9,15.4,22.8,22.7c3.2,3.9,3.1,9.8-0.2,13.6L521,758.2c-3.9,4.5-4.4,11.1-1.4,15.9
		c2.1,3.3,5.2,5,9.2,4.9c4.9-0.1,9.5-3.1,12-7.7c3.2-5.9,7.7-11.9,13.2-17.9c1.7-1.9,3.7-3.4,6-4.4c11.3-5,22.3-9.4,32.9-13.7
		c22.2-8.9,41.3-16.5,54.5-26.5c1.5-1.1,2.6-2.4,3.3-3.6c1.7-3.2,1.6-6.8-0.3-9.5c-1.8-2.7-4.9-4.1-8.7-4.1
		C640.6,691.5,639.5,691.6,638.5,691.8z"/>
	<path d="M641.1,690.1c-12.3,14-28.3,23.2-44.2,31.6c-2.1,1-3.7-2.1-1.7-3.4c7.4-4.7,14.5-9.8,21.3-15.4c6.5-5.4,13-11.5,17.9-18.4
		C638.1,679.4,644.9,685.2,641.1,690.1z"/>
	<g class="st14">
		<path d="M502.9,708.9c-0.5-0.5-1.1-1-1.6-1.4c11.3-5,19.9-10.1,25.6-15.5l4.1,3.9l0.1,0.1l-2,1.6c-2.9-0.7-5.5,2.9-5.3,6.2
			c0.1,3.3,2,6.2,3.8,8.9c3.4,5,6.8,10,11.1,14.1c4.2,4.1,9.5,7.1,15.1,7.4c5.8,0.3,11.5-2.3,16.7-5.2c19-10.2,36.7-23.1,52.5-38.3
			c4.3-4.2,9.1-8.7,14.3-10.8c0.6,0.1,1.2,0.2,1.7,0.3c0.1,2.4-0.3,4.8-1.1,7.1c1.9-0.4,3.9-0.5,5.8-0.3c1.7,0.2,3.4,0.6,4.9,1.3
			c1.6,4,1.5,8.8-0.6,13.1c-1.1,2.2-2.7,4-4.5,5.5c-20.1,16.1-53.3,26.6-88.2,43.2c-1.7,0.8-3.3,2-4.6,3.5
			c-5.3,6.1-9.5,12.2-12.5,18.1c-3.2,6.2-8.9,10.3-15.2,10.6c-2.8-1.1-5.2-3.2-6.8-5.9c-4.2-6.6-3.3-15.5,1.8-21.5l11.2-13.2
			c1.8-2.1,1.9-5.4,0.1-7.6C522,725.5,513,717.1,502.9,708.9z"/>
	</g>
</g>
</svg>
