<svg id="Capa_1" data-name="Capa 1" xmlns="http://www.w3.org/2000/svg" xmlns:xlink="http://www.w3.org/1999/xlink" viewBox="0 0 2500 2500"><defs><style>.cls-1{fill:#171918;}.cls-2{fill:url(#Degradado_sin_nombre_4);}.cls-3{fill:#90004d;}.cls-4{opacity:0.6;}.cls-5{fill:#fff;}.cls-6{opacity:0.3;}.cls-7{fill:#000072;}.cls-8{fill:url(#Degradado_sin_nombre_4-2);}.cls-9{fill:#9e0054;}.cls-10,.cls-17{stroke:#000;stroke-miterlimit:10;stroke-width:29.6px;}.cls-10{fill:url(#Degradado_sin_nombre_4-3);}.cls-11{fill:#ccc;}.cls-12{fill:#a10056;}.cls-13{fill:#ffb839;}.cls-14{fill:#b38128;}.cls-15{fill:#ffeac3;}.cls-16{opacity:0.35;}.cls-17{fill:none;}.cls-18{fill:url(#Degradado_sin_nombre_4-4);}.cls-19{fill:#ffe3b0;}.cls-20{fill:#996e22;}</style><linearGradient id="Degradado_sin_nombre_4" x1="1163.13" y1="4427.94" x2="1490.65" y2="4427.94" gradientTransform="matrix(1, 0, 0, -1, 459.28, 5279.69)" gradientUnits="userSpaceOnUse"><stop offset="0" stop-color="#e6007a"/><stop offset="0.3" stop-color="#e30078"/><stop offset="0.52" stop-color="#da0074"/><stop offset="0.71" stop-color="#ca006b"/><stop offset="0.89" stop-color="#b3005f"/><stop offset="1" stop-color="#a10056"/></linearGradient><linearGradient id="Degradado_sin_nombre_4-2" x1="1067.41" y1="-389.24" x2="1993.77" y2="-389.24" gradientTransform="matrix(0.68, 0.42, -0.52, 0.85, -806.01, 711.32)" xlink:href="#Degradado_sin_nombre_4"/><linearGradient id="Degradado_sin_nombre_4-3" x1="304.2" y1="396.65" x2="1593.16" y2="396.65" gradientTransform="matrix(-1, 0, 0, 1, 2128.15, 840.03)" xlink:href="#Degradado_sin_nombre_4"/><linearGradient id="Degradado_sin_nombre_4-4" x1="-248.73" y1="514.18" x2="677.34" y2="514.18" gradientTransform="matrix(-1, 0, 0, 1, 2128.14, 840.03)" xlink:href="#Degradado_sin_nombre_4"/></defs><rect class="cls-1" x="2500" transform="translate(5000 0) rotate(180)"/><rect class="cls-1" x="2500" y="2500" transform="translate(5000 5000) rotate(180)"/><rect class="cls-1" y="2500" transform="translate(0 5000) rotate(180)"/><rect class="cls-1"/><g id="Capa_4" data-name="Capa 4"><path class="cls-2" d="M1746.14,1068.88a603.15,603.15,0,0,0-18.49-123.24,174.15,174.15,0,0,0-15.59-37.58c-18.48-31.29-46.51-44.22-89.65-51.71a788.46,788.46,0,0,1,241.65-218.69,21.26,21.26,0,0,1,29.18,7.27l.06.1a13.79,13.79,0,0,1,1.33,2.29,83,83,0,0,1,7.25,36.25,77.53,77.53,0,0,1-8.09,31,8.69,8.69,0,0,1-1,2.18h1a33,33,0,0,1,7.12-1.21,39.14,39.14,0,0,1,37.34,26.22,120.82,120.82,0,0,1,3,80.59h0c-1,3.5-2,7-3.26,10.75a94,94,0,0,1,6.28,13.17C1980.66,941.89,1832.53,1060.54,1746.14,1068.88Z" transform="translate(0 0)"/><path class="cls-3" d="M1944.29,844.61c0,87.35-123.24,184-199.72,193.32a609.3,609.3,0,0,0-21.15-123c10.88-1.45,82.53-13.9,105.48-70.69a96.59,96.59,0,0,0,6.89-38.9,111.82,111.82,0,0,0,52.44-62.11,106.38,106.38,0,0,0,5.31-28.27,34.53,34.53,0,0,1,7.13-1.21A39.39,39.39,0,0,1,1938,740a156,156,0,0,1-6.89,57.88,91.11,91.11,0,0,1,9.91,22.47h0A83.1,83.1,0,0,1,1944.29,844.61Z" transform="translate(0 0)"/><g class="cls-4"><path class="cls-5" d="M1888.71,656.6a20.89,20.89,0,0,1,8.94-3.14c-1.08-2.66-1.81-5.19-3-7.73a21.61,21.61,0,0,0-28.39-10.63l-2.18,1.2A788.37,788.37,0,0,0,1622.41,855a197,197,0,0,1,33.35,8.09A791.35,791.35,0,0,1,1888.71,656.6Z" transform="translate(0 0)"/></g><path d="M1950.33,837.62a332,332,0,0,1-135.81,102.7,8.76,8.76,0,0,1-7.24-16h0a333.83,333.83,0,0,0,66.21-44.58,291.14,291.14,0,0,0,51.83-59.69,15.1,15.1,0,1,1,24.17,17.52Z" transform="translate(0 0)"/><path d="M1746.14,1081.67a14.88,14.88,0,0,1-15.11-13.9c-12.08-157.07-36.24-185-111.15-198.15a14.74,14.74,0,0,1-12.17-16.93c0-.16,0-.31.08-.47a12.74,12.74,0,0,1,2.54-6,807.15,807.15,0,0,1,246.12-222.93,36.25,36.25,0,0,1,49.88,11.85l.14.24a30.84,30.84,0,0,1,1.94,4.11,91.36,91.36,0,0,1,6.4,60.41A48.35,48.35,0,0,1,1939,713.75c23.44,24.17,29.49,68.87,16,115.87,15.83,31.54,14.14,68.15-5.07,106.33-40.12,77.81-138.59,139-202.5,146C1746.86,1082.15,1746.38,1082.15,1746.14,1081.67Zm-98-236.34c74.31,19.94,99.8,68.51,111.4,203.71,54.73-13,131.94-66.33,162.51-126.62,16-31,16.91-59.33,2.78-83.37a16.16,16.16,0,0,1-1.21-12.08c14.38-43.74,6.52-78.06-6.89-91.47a18.59,18.59,0,0,0-19.69-5.31,15,15,0,0,1-18.83-9.72l0-.07a14.34,14.34,0,0,1,1-11.36,63,63,0,0,0,1.33-56.55,6.22,6.22,0,0,0-3.87-3.26,5.44,5.44,0,0,0-5.08,0A794.55,794.55,0,0,0,1648.15,845.33Z" transform="translate(0 0)"/><g class="cls-6"><path class="cls-7" d="M1901.64,682.34a76.73,76.73,0,0,1-8.1,31Z" transform="translate(0 0)"/></g><path d="M1903.14,719.19a184.07,184.07,0,0,1-57.52,84.58,556.77,556.77,0,0,1-77.81,57.75,9.55,9.55,0,0,1-13.22-2.72c-.07-.1-.13-.2-.19-.3a10,10,0,0,1,2.54-13.17,580,580,0,0,0,71.53-60.41,160.37,160.37,0,0,0,45.43-72.5,15.1,15.1,0,1,1,29.67,5.66,16.44,16.44,0,0,1-.43,1.71Z" transform="translate(0 0)"/><path class="cls-8" d="M932,1160.44c-33.83,86.39-98.72,146.44-193.32,181.24-6.29,1.81-12.81,3.51-19.21,4.83l-15.59,3-6.4,1c-3.75.85-7.25,1.33-11,1.81-238.75,31.78-497.8-149.94-456.24-379.15a104.4,104.4,0,0,0,0-28C226,907.8,240.9,862.85,268.45,840.38a87.75,87.75,0,0,0,11.11-11.12,105.55,105.55,0,0,1,10.51-11.36A88.11,88.11,0,0,1,336.35,795,92.62,92.62,0,0,1,403.77,811a281.54,281.54,0,0,0,26,17.15,378,378,0,0,0,84.57,37.94,1023.44,1023.44,0,0,0,126.75,39.63c12.08,2.3,25,4.23,37.7,5.56,2.78,3.17,11.11-1.18,11.11-1.18h4.47s.89,5.73,1.33,0h2.54c4.23,6.5,8.34,7.22,12.08,8.19A161.65,161.65,0,0,0,733,923.14a19.71,19.71,0,0,0,5.07-.94h7.25c5.56.94,16.43,12.08,16.43,12.08h1.09S827.5,1161.65,932,1160.44Z" transform="translate(0 0)"/><path class="cls-9" d="M230.26,946.34a95.46,95.46,0,0,1-1,28c-40.6,229.21,218.45,411.05,456.48,378.43,3.86,0,7.37-1,11.11-1.69a39.94,39.94,0,0,0,6.41-1.09,142.32,142.32,0,0,0,15.58-3l-4.23-.73a698.35,698.35,0,0,1-261.34-59.56,205.42,205.42,0,0,1-83.25-59.33,72.5,72.5,0,0,1-16.19-49.78c1.81-19.21,15.95-40.84,33.59-44.34-20.18-16.68-41-34.44-50.26-60.41a80.71,80.71,0,0,1,21.74-84.58,226.24,226.24,0,0,1-37.69-58.36,104.82,104.82,0,0,1,0-76.24c10.39-26,36.24-48.33,59.08-46.88a367.93,367.93,0,0,0-42.89-10.63,95,95,0,0,0-56.79,34.31,81.15,81.15,0,0,1-11.12,11.12C241.26,863.58,226.64,908.52,230.26,946.34Z" transform="translate(0 0)"/><path d="M256.36,837.62C232.2,931.86,362.45,1016,425.52,1042.42a7.49,7.49,0,0,0,9.06-4.59,6.89,6.89,0,0,0-1.21-8.58c-17.16-13.29-34.31-26-51-39.63a577.44,577.44,0,0,1-48.33-42.41c-21.5-22.23-42.65-45.91-51.71-77.45a64.31,64.31,0,0,1-1.09-30.33c3.27-18.36-19.69-19.93-25-1.81Z" transform="translate(0 0)"/><path d="M218.18,958.45a303.75,303.75,0,0,0,207.34,209.63,6.76,6.76,0,0,0,7.85-4.59,5.93,5.93,0,0,0-2.05-7.62,589.77,589.77,0,0,1-60.41-38.78A355.7,355.7,0,0,1,274.25,1012a375.77,375.77,0,0,1-31.3-67.3c-5.8-15.71-29.12-2.78-24.16,13.78Z" transform="translate(0 0)"/><path d="M737.73,1333c-178.7,31.9-358.49-30.81-454.42-173.62A255,255,0,0,1,241.5,988.29L245,962.8a121.74,121.74,0,0,0,0-28,108.62,108.62,0,0,1,5.31-43.61,93.44,93.44,0,0,1,21.51-37.1,153.18,153.18,0,0,0,15.1-14.5,80.68,80.68,0,0,1,38.18-29,83.13,83.13,0,0,1,74.31,13.29c111.28,70.68,254.7,129.28,398.72,109.59a6.55,6.55,0,0,0,4.84-5.8,4.11,4.11,0,0,0-3.27-4.35C682.27,911.2,570.15,887,471,829.89a586.1,586.1,0,0,1-54-32.75,103.79,103.79,0,0,0-95.09-15.58,113.8,113.8,0,0,0-53,38.9c-4.11,4.47-9.06,8-13.41,12.09A145.82,145.82,0,0,0,216.49,943.1c0,3.51.85,8.1.85,11.36,0,7.13-3.39,28.27-4.11,36.25-14.38,143.66,76,250,175,309.07s224.74,87.6,350.4,44.1c6-2.54,6-12.08,0-10.88Z" transform="translate(0 0)"/><ellipse class="cls-10" cx="1179.47" cy="1236.68" rx="644.48" ry="640.25"/><g class="cls-4"><path class="cls-5" d="M577,1027.17C719.12,678,1175.6,529,1500.26,734.05a522.31,522.31,0,0,1,172.9,183.78,855.49,855.49,0,0,0,112.61,158c6.76-7.37,13.41-14.62,19.69-22.48-2-6-4.35-12.08-6.28-18.48a83.58,83.58,0,0,1-4.35-24.17,882.92,882.92,0,0,1-102.58-146.92,522.31,522.31,0,0,0-172.9-183.54C1178.38,465,692.42,639.93,577,1027.17Z" transform="translate(0 0)"/></g><polygon class="cls-5" points="1821.34 1131.93 1825.81 1305.19 1784.73 1473.74 1673.08 1649.79 1492.93 1800.7 1219.99 1884.55 1004.44 1852.17 882.77 1805.29 721.34 1687.85 598.22 1510.35 537.81 1318.24 539.38 1151.14 565.84 1060.04 741.88 1209.74 1008.67 1221.34 1139.4 1209.74 1202.35 1193.55 1255.03 1155.49 1286.08 1126.13 1332.84 1110.06 1375.49 1137.73 1434.09 1193.55 1563.25 1202.37 1712.84 1108.49 1806.72 1066.08 1821.34 1131.93"/><path class="cls-11" d="M545.5,1372.21l4.47,17.73c3.38,12.86,6.89,25.71,10.63,38.57q2.65,8.87,5.8,17.73c.73,2.7,1.81,5.4,2.78,8.1s1.33,3.22,1.81,4.76h0a3.65,3.65,0,0,0,.73,2.18,569.47,569.47,0,0,0,39.39,72c14.13,22.88,27.54,46.15,41.68,69,6.53,10.54,13.65,21.21,20.66,31.36,1.09,1.42,1.81,2.7,2.78,4.12a12.21,12.21,0,0,1,1.57,2.18l-.84-1.16,4.83,6.43a164.39,164.39,0,0,0,12.08,15.3,299.28,299.28,0,0,0,25.86,27.5l6,5.53a21.11,21.11,0,0,0,2.54,2.19l2.41,1.92c5.56,4.25,11.12,8,16.68,12.09,43.49,30.07,89.89,54.24,132.9,84.06,22.12,15.3,44.59,30.34,66.82,45.63a410.19,410.19,0,0,1,54.25,19.54c8.1,3.86,16.19,7.84,24.17,11.57,3.74,1.93,7.61,3.47,11.35,5.4l2.06.77h34.31s56.79-1.47,85.3.1c14.14.72,28,0,42.17-.61s44,.51,44,.51h26.63c3.39,0,6.88-1,10.26-1.64a268.88,268.88,0,0,1,32.21-4.37l3.82-1.53a280.22,280.22,0,0,1,40.18-13.42c-2.29-8.74-4.37-17.36-6.22-26.32a1.31,1.31,0,0,0-1.35-1.26,1.23,1.23,0,0,0-.62.17,263.76,263.76,0,0,1-156.56,25.55h0c-15.29-3.17-30.35-7.1-45.42-10.92h0l-7.21-2.51h-13.88C890.09,1769.26,691.7,1622.6,545.5,1372.21Z" transform="translate(0 0)"/><path class="cls-12" d="M699.19,1191c88.08,64.64,157.07,138.59,194.65,226.67a13.41,13.41,0,0,0,24.16,0c34.56-73.7,72.5-132.91,116.11-174.11a94.18,94.18,0,0,1,60.42-25.86h0a554.32,554.32,0,0,0,66.45-2.77A107.91,107.91,0,0,0,1199,1201.4a126.72,126.72,0,0,0,67.42-39.87c25.74-29.6,60.41-57.15,95.7-25.25a297.06,297.06,0,0,1,25.73,34.07,78.83,78.83,0,0,0,31,23.2,107.32,107.32,0,0,1,16.68,8.34c118.89,75.15,273.67,29.72,366.82-118.41l-5.31-19.7c-9.31-18.72-19.46-36.85-28.28-55.58-5.8-12.08-11.11-24.16-16.19-36.24a39.33,39.33,0,0,1-2.41-5.08q-99.69,209.88-291.43,207.58a82.65,82.65,0,0,1-65.61-35.4h0a109.47,109.47,0,0,0-27.19-27.91c-31-21.63-61.26-12.09-89.53,10.15a317.31,317.31,0,0,0-30.33,30.81,108.8,108.8,0,0,1-52.56,27.79h0a82.64,82.64,0,0,1-86.27-36.25L1068.07,1087c-55.1,42.17-107.3,53-154.06,0-30.56-19.93-77-20.9-100.4,12.08-25,21.27-48.33,20.42-67.42-.72Z" transform="translate(0 0)"/><path class="cls-13" d="M934.19,1322.23a39.66,39.66,0,0,1-32,17.16,225.88,225.88,0,0,1-94.6-12.81,105.64,105.64,0,0,1-31.66-19.45,139,139,0,0,1,70.56-136.9,47.24,47.24,0,0,1,31.06-5.8,70.85,70.85,0,0,1,8.33,2.3C962.83,1196.33,965.61,1273.05,934.19,1322.23Z" transform="translate(0 0)"/><path class="cls-14" d="M917.88,1316.55a39.15,39.15,0,0,1-31.9,17.16,249.47,249.47,0,0,1-78.41-7,105.64,105.64,0,0,1-31.66-19.45,139,139,0,0,1,70.56-137,47.24,47.24,0,0,1,31.06-5.8C946.64,1195.72,948.09,1269.31,917.88,1316.55Z" transform="translate(0 0)"/><path d="M887.07,1351.11c-53.77,0-91.71-12.09-118.41-36.25a12,12,0,0,1-3.86-7.37,150.42,150.42,0,0,1,75.51-147.65,57.49,57.49,0,0,1,49.3-4.35h0A110.16,110.16,0,0,1,959,1223.76a124,124,0,0,1-15.1,103.91,51,51,0,0,1-41.2,22.47A85.48,85.48,0,0,1,887.07,1351.11Zm-95.53-49.54c24.77,20.18,61.38,28.51,115.15,26.22a27.45,27.45,0,0,0,22.72-12.09,102.92,102.92,0,0,0,12.68-84.57,88.44,88.44,0,0,0-56.06-54h0a34.77,34.77,0,0,0-29.6,2.78,128.32,128.32,0,0,0-64.89,121.43Z" transform="translate(0 0)"/><path class="cls-13" d="M776.15,1306.88c67.18,32.75,129-11.35,167.23-90.62-34.68-47.24-70.45-67.17-108.75-38.66C796.21,1208.89,770.11,1248.28,776.15,1306.88Z" transform="translate(0 0)"/><path d="M859.28,1165.76a91.31,91.31,0,0,1,43.86,28,34.33,34.33,0,0,1,4.59,41.93c-33.35,53.76-80.23,83.73-131.58,70.92h0c67.42,32.87,129-11.11,167.47-90.62C916.07,1179.41,888.28,1159.48,859.28,1165.76Z" transform="translate(0 0)"/><path d="M820.86,1327.3a112.11,112.11,0,0,1-48.33-12.08,9.42,9.42,0,0,1-5.32-7.61c-5.56-55,14.38-98.72,62.11-137.62a65.35,65.35,0,0,1,50-14.62c24.16,3.62,47.48,21.51,72.49,55.1a8.93,8.93,0,0,1,1.09,9.54c-25.25,52.32-60.41,88.08-97.51,101.25A97.17,97.17,0,0,1,820.86,1327.3Zm-36.25-30.54a84.64,84.64,0,0,0,62.83,2.78c31.78-11.12,61.38-41.69,84.58-86.39-19.7-25.74-38.67-40.36-56.07-42.9a46.52,46.52,0,0,0-36.24,10.88c-41.08,33.34-58.24,69.35-55.22,115.63Z" transform="translate(0 0)"/><path class="cls-15" d="M793.67,1283.69A107.43,107.43,0,0,1,856,1190.53C834.39,1220.74,827.5,1258.67,793.67,1283.69Z" transform="translate(0 0)"/><ellipse cx="1136.45" cy="1077.44" rx="104.03" ry="126.99"/><ellipse class="cls-5" cx="1096.34" cy="1055.93" rx="31.78" ry="48.45"/><g class="cls-16"><ellipse class="cls-5" cx="1175.29" cy="1130.56" rx="37.33" ry="24.53" transform="translate(-256.77 1910.74) rotate(-72.47)"/></g><ellipse cx="673.81" cy="1077.44" rx="104.03" ry="126.99"/><ellipse class="cls-5" cx="714.17" cy="1055.93" rx="31.78" ry="48.45"/><g class="cls-16"><ellipse class="cls-5" cx="635.1" cy="1130.48" rx="24.53" ry="37.33" transform="translate(-311.01 243.79) rotate(-17.53)"/></g><ellipse class="cls-17" cx="1179.47" cy="1236.68" rx="644.48" ry="640.25"/><path class="cls-18" d="M1457.12,1214c-20.54,91.1,9.07,176.16,87.6,255.42,5.56,4.84,11.36,9.67,17.16,14.14s9.54,7.37,14.62,10.87c2,1.58,4,3,6,4.35s7.37,5.08,10.87,7.25c231.51,151.76,626.12,132.91,732.57-83.49a95.24,95.24,0,0,1,17.15-24.16c28.88-29.48,42.41-75.52,27.79-108.74a55.59,55.59,0,0,1-4.47-15.47,80.92,80.92,0,0,0-3.86-15.34,87.77,87.77,0,0,0-34.08-44,133.83,133.83,0,0,0-82-21.75c-13.89,0-10.63.84-38.9.84a597.15,597.15,0,0,1-114.3-12.08c-84.58-15.1-126.75-22.47-160.1-32.74-14.62-4.84-29-9.67-43.37-15.23a19.09,19.09,0,0,1-14.86-1.93l-4.59-4.33h-1.58s-1.82,1-2.77.7c-5-1.45-9.79-3-14.87-4.22-9.06-2.54-18.36-4.6-27.3-7.86l-5.44-.7h-1.09a68.06,68.06,0,0,0-7-4.37c-6-2.54-18.25-7.71-18.25-7.71h-1S1567.68,1268.22,1457.12,1214Z" transform="translate(0 0)"/><path class="cls-9" d="M2343.13,1397.74a93.56,93.56,0,0,0-17.15,24.17c-106.21,216.52-501.06,235.25-732.57,83.49-3.74-2.54-7.37-4.71-10.87-7.25l-6-4.35c-5.08-3.5-9.91-7-14.62-10.87l4.95,1.57a1016.34,1016.34,0,0,0,316.69,86c42.65,4.35,86.51,6.17,127.47-6.76a86.51,86.51,0,0,0,49.66-33.83,43.14,43.14,0,0,0-6.77-55.58c32.26-3.51,65.85-7.74,93.16-25.5s45.67-53.76,32.5-83.49a307.14,307.14,0,0,0,78.29-30.08,104.27,104.27,0,0,0,50.27-64.64,63.69,63.69,0,0,0-32-70.93c17.15,3.75,35.28,8.1,52.44,13.66a88,88,0,0,1,34.07,43.85,85.2,85.2,0,0,1,3.86,15.47,51.4,51.4,0,0,0,4.47,15.35C2385.3,1322,2372,1367.9,2343.13,1397.74Z" transform="translate(0 0)"/><path d="M2386.44,1293.71c-36.25,92.92-229.57,96.66-313.3,85.67a7.85,7.85,0,0,1-6.53-8.7,7.76,7.76,0,0,1,7-6.53c27.06-2.29,53.53-4.22,80.11-7s52.68-5.8,78.53-10.88c37.34-7.61,75.16-16.91,105.73-38.9a65.58,65.58,0,0,0,20.66-25.26,15.15,15.15,0,0,1,27.79,12.09Z" transform="translate(0 0)"/><path d="M2350.19,1409.83c-100.89,75-235.73,95.93-357.16,69.71a6.76,6.76,0,0,1-5.35-7.93l0-.16a7,7,0,0,1,7.13-5.56,820.26,820.26,0,0,0,89.53-1.21,533,533,0,0,0,171.21-39.39,488.63,488.63,0,0,0,77.45-41,15.22,15.22,0,0,1,17.16,25Z" transform="translate(0 0)"/><path d="M1548.71,1464.68c169.15,120.83,401.14,161.54,598.08,89.9a334.37,334.37,0,0,0,126.75-83.37,263.91,263.91,0,0,0,29.48-40.36l12.93-23.56a134.88,134.88,0,0,1,18.36-24.17,103.26,103.26,0,0,0,22.72-39.87,75.24,75.24,0,0,0,1.57-43.37,143.94,143.94,0,0,1-6.89-20.3,72.47,72.47,0,0,0-21.62-44.59,117.07,117.07,0,0,0-87.6-27.18c-164.69,1.81-355.23-23.44-495.39-115.39a5.21,5.21,0,0,1-1.58-7.18,2.14,2.14,0,0,0,.13-.19,5.45,5.45,0,0,1,6.29-1.93c132.3,51.47,268.11,88.8,410.2,92.67a783,783,0,0,0,79,0,148.14,148.14,0,0,1,110.92,35.52,103.86,103.86,0,0,1,30.69,61.14c1.32,6,4.35,12.08,6.16,17.64a124.08,124.08,0,0,1-31,114.42,115.87,115.87,0,0,0-8.1,9.06,306.71,306.71,0,0,0-19.21,32.5c-79,130.86-244.67,173.51-388.58,172.18s-296-42.89-401.13-145a5.82,5.82,0,1,1,7.61-8.82h0Z" transform="translate(0 0)"/><path class="cls-13" d="M801.41,1860.16a13.89,13.89,0,0,0,2.05,17.52L832,1905.35a41.91,41.91,0,0,1,8.82,49.06,31.72,31.72,0,0,1-14.37,15.1,35.44,35.44,0,0,1-13.66,3.75,42.31,42.31,0,0,1-38.06-19.09,206.13,206.13,0,0,0-32.62-36.25,30,30,0,0,0-11.12-6.65c-83.73-27.42-162.51-42.41-212-72.49a33.62,33.62,0,0,1-12.09-10.63,31.54,31.54,0,0,1,7.54-44q.93-.64,1.89-1.23a34.63,34.63,0,0,1,11.11-4.23,37.65,37.65,0,0,1,13.29-.85,43.35,43.35,0,0,1-3.5-16.07,36.25,36.25,0,0,1,28.27-38.18,39.66,39.66,0,0,1,34.32,8.82l106.57,88.69a31.93,31.93,0,0,0,23.44,7.25h2.29a25.27,25.27,0,0,0,17.4-9.06l26.22-30.57,13.65-16h0l8.82-11a208.65,208.65,0,0,0,62.35,29.73h0l-3.75,3.62A463,463,0,0,0,801.41,1860.16Z" transform="translate(0 0)"/><path class="cls-19" d="M546.63,1732.66a46.86,46.86,0,0,1,39.83,9.95L711,1844.19a37.09,37.09,0,0,0,27.49,8.36H741a31.14,31.14,0,0,0,20.18-10.62L792,1806.74l15.93-18.58h0l12.22-16.07c7,4.12,14.47,8.23,22.83,12.22s18.59,8.23,26.56,11.28l2.79-2.79a37.77,37.77,0,0,0,4.25-3.85h0a225.57,225.57,0,0,1-68.65-33.19l-9.43,11h0l-15,17.53-28.68,34.12a30.71,30.71,0,0,1-19.12,10h-2.52a35.2,35.2,0,0,1-25.76-8.1L590.31,1723a44,44,0,0,0-37.71-9.69,39.84,39.84,0,0,0-30.8,35.19A43.34,43.34,0,0,1,546.63,1732.66Z" transform="translate(0 0)"/><path class="cls-20" d="M801.77,1861.71a13.89,13.89,0,0,0,1.93,17.52l28.52,27.67A42,42,0,0,1,841,1956a31.79,31.79,0,0,1-14.38,15.1,42.79,42.79,0,0,1-37.34-20.66,218.4,218.4,0,0,0-32.74-38.91,31.71,31.71,0,0,0-12.08-7.13C659.92,1874.64,581.75,1858.21,532,1826a40.83,40.83,0,0,1-12.09-12.08,36.3,36.3,0,0,1-4.23-30.09,38.15,38.15,0,0,1,11.12-4.35,40.66,40.66,0,0,1,13.29-.72,44.36,44.36,0,0,1-2.9-15.11l4-1a111.88,111.88,0,0,1,35.4,21.5,533,533,0,0,0,129.28,75.64,72.51,72.51,0,0,0,39.63,7.85,56.75,56.75,0,0,0,33-20.66,205.66,205.66,0,0,0,22.47-35.16,39.94,39.94,0,0,0,6.89-21.14c0-7.61-7.13-15.35-13.65-12.93l-5.08-3.26h0l9.06-10.88a208.65,208.65,0,0,0,62.35,29.73c-1,1.33-2.3,2.53-3.26,3.74A469.9,469.9,0,0,0,801.77,1861.71Z" transform="translate(0 0)"/><path d="M810.23,1982.44a53,53,0,0,1-43.14-24.17A187.8,187.8,0,0,0,736.28,1924a25.71,25.71,0,0,0-7.85-4.59c-26.71-8.82-52.68-16.43-77.94-23.44-54.25-15.47-101.25-28.76-136-50a46.43,46.43,0,0,1-15.23-13.29,43.73,43.73,0,0,1-2.17-44.71,42,42,0,0,1,31.05-21.63,47.5,47.5,0,0,1,3.74-29.12,46.55,46.55,0,0,1,31.54-25.37A49.06,49.06,0,0,1,606,1722.67l106.57,88.68a21.59,21.59,0,0,0,16.43,5h2.3a17,17,0,0,0,10.75-5.79L790.41,1754a9.55,9.55,0,0,1,13.29-1.45,198.58,198.58,0,0,0,59.57,28.27,10.62,10.62,0,0,1,3.86,17.64,406.4,406.4,0,0,0-56.9,66.21,2.65,2.65,0,0,0,.6,3.51l28.76,27.79a53.28,53.28,0,0,1,10.87,61.86A43.25,43.25,0,0,1,814.21,1982,25.3,25.3,0,0,1,810.23,1982.44Zm-272.59-193.2a24.16,24.16,0,0,0-22.95,12.08,21.86,21.86,0,0,0,1.45,22,25.6,25.6,0,0,0,8.33,7.61c32.39,19.7,78.3,32.75,131.34,48.33,25.5,7.25,51.71,14.87,78.78,24.17a44.84,44.84,0,0,1,14.62,8.58,200.56,200.56,0,0,1,34.07,38.18A32.39,32.39,0,0,0,812.52,1965a23.42,23.42,0,0,0,20.3-13.41,31.29,31.29,0,0,0-6.65-36.25l-28.75-27.79a24.88,24.88,0,0,1-3.26-31.29,389.71,389.71,0,0,1,48.33-57.76,211.46,211.46,0,0,1-41.93-20.42l-42.65,49.66a36.84,36.84,0,0,1-24.17,12.69h-2.17a41.55,41.55,0,0,1-30.81-9.67l-106.57-88.56a30.44,30.44,0,0,0-26-6.77,26.58,26.58,0,0,0-18,14.38,29.47,29.47,0,0,0,.85,25.25,11.24,11.24,0,0,1-5.08,14.14,10.86,10.86,0,0,1-4.83,1A12.63,12.63,0,0,0,537.64,1789.24Z" transform="translate(0 0)"/><path d="M548.76,1768A208.49,208.49,0,0,0,594,1805.79a469.64,469.64,0,0,0,52.2,30.57,4.48,4.48,0,0,1-3.27,8.34,340.41,340.41,0,0,1-108.74-62.11c-9.91-10.14,4.83-25.49,14.38-14.62Z" transform="translate(0 0)"/><path class="cls-5" d="M727,1619.46c-20.42,157.68,177.49,253.73,296.14,132.91C1004.15,1638.79,816.39,1562.91,727,1619.46Z" transform="translate(0 0)"/><path class="cls-11" d="M1012.49,1725.42c-110.8,94.73-276.93,20.18-284.55-112.61-26.94,161.91,174.72,261.83,295.18,139.44a120.72,120.72,0,0,0-7.61-26.34,1.82,1.82,0,0,0-2.34-1.06.88.88,0,0,0-.2.09Z" transform="translate(0 0)"/><path d="M730,1623c3,17.64,3.74,35.29,8.09,52.68a140.38,140.38,0,0,0,20.66,46,174.72,174.72,0,0,0,217.49,57c16-6.89,28.64-19.46,45-25.74,2.29-1.09,4.83,1.94,3.62,4.23a62.15,62.15,0,0,1-17.16,22.47,230,230,0,0,1-22.47,16.68c-97.51,65.12-245.64,7.85-265.81-116.6a159.41,159.41,0,0,1-1.82-29.36,91.38,91.38,0,0,1,6-28.27,2.91,2.91,0,0,1,3.68-1.82l.31.13a3.24,3.24,0,0,1,1.81,2.53Z" transform="translate(0 0)"/><path class="cls-5" d="M1143.58,1696.67c10.76,159,223.17,208.78,315.48,64.88C1418.46,1654.86,1219.82,1621.88,1143.58,1696.67Z" transform="translate(0 0)"/><path class="cls-11" d="M1443.71,1731.73c-90.13,117-267.14,80.59-300.49-48.33,5.07,164.44,222.2,217.48,316.08,72.49a113.7,113.7,0,0,0-12.08-24.16,1.94,1.94,0,0,0-2.74,0l0,0Z" transform="translate(0 0)"/><path d="M1146.6,1695.48a422.43,422.43,0,0,0,18.61,49.66,139.21,139.21,0,0,0,29.36,40.48,173.27,173.27,0,0,0,224.13,8.09c14.14-10.15,24.17-25,38.91-34.92a3,3,0,0,1,4,1.41,3.1,3.1,0,0,1,.2,2.1,68.7,68.7,0,0,1-12.09,25.85A184.3,184.3,0,0,1,1431,1809.3c-82.77,84.57-238.76,61.38-282.74-56.07a166.44,166.44,0,0,1-7.61-28.27,93.39,93.39,0,0,1,0-29,2.91,2.91,0,0,1,3.18-2.59l.33.06a3,3,0,0,1,2.29,2Z" transform="translate(0 0)"/><path class="cls-13" d="M1183.45,1907.17a15,15,0,0,0,0,19.09l28.52,32.86a46.52,46.52,0,0,1,4.47,54.25,34.36,34.36,0,0,1-17.16,15,36.27,36.27,0,0,1-14.5,3.27,47.5,47.5,0,0,1-39.63-25.26,225.78,225.78,0,0,0-31.53-43.25,37,37,0,0,0-12.08-8.22c-88.21-39.15-171.94-64.4-222.69-102.58a36.23,36.23,0,0,1-11.35-12.81A34.44,34.44,0,0,1,880,1792.43c.78-.45,1.57-.87,2.38-1.26a38.94,38.94,0,0,1,12.08-3.26,43.22,43.22,0,0,1,14.74.73,48.39,48.39,0,0,1-2.78-18,38.55,38.55,0,0,1,34.32-38.06A43,43,0,0,1,977,1746l106.69,108a34.65,34.65,0,0,0,24.77,10.63h2.3a28.59,28.59,0,0,0,19.69-8.09l31.54-30.33,16.43-15.58h0l10.39-9.79a230.43,230.43,0,0,0,64.64,39.15h0l-4.35,3.5A482.78,482.78,0,0,0,1183.45,1907.17Z" transform="translate(0 0)"/><path class="cls-19" d="M933.72,1751.14a47.27,47.27,0,0,1,38.47,14.07l113,112.53a37.52,37.52,0,0,0,26.33,11.06H1114a30.69,30.69,0,0,0,21-8.35l33.24-31.32,17.44-16.35h0l13.22-14.55c6.37,4.81,13.34,9.5,21.16,14.31s17.31,10.09,25.13,14.06l3-2.52,4.33-3.49h0a224.61,224.61,0,0,1-64.2-38.95l-10.34,9.74h0l-16.71,15-31.38,30.18a27.6,27.6,0,0,1-19.59,8.05H1108a35,35,0,0,1-24-10.57L977.72,1746.58a42.06,42.06,0,0,0-36.07-13.35,38.35,38.35,0,0,0-33.9,31.74A45.35,45.35,0,0,1,933.72,1751.14Z" transform="translate(0 0)"/><path class="cls-20" d="M1182.85,1905.21a15.22,15.22,0,0,0,0,19.21l28.27,33.23a46.64,46.64,0,0,1,4.47,54.37,34.77,34.77,0,0,1-17.15,14.86,46.39,46.39,0,0,1-37.82-26.82,232.61,232.61,0,0,0-31.66-45.67,36.07,36.07,0,0,0-12.08-8.82c-88.08-41.93-171.93-68.39-222.68-108.75a44.12,44.12,0,0,1-11.36-13.89,41,41,0,0,1-1.45-33,39.09,39.09,0,0,1,12.08-3.26,45.73,45.73,0,0,1,14.62.73,50.64,50.64,0,0,1-2.78-17.89l4.35-.84a122.3,122.3,0,0,1,36.25,27.3,599.68,599.68,0,0,0,132.91,96.66,80.45,80.45,0,0,0,42.17,13.17,60.42,60.42,0,0,0,38.06-18.72,212.29,212.29,0,0,0,28-35.53,44.28,44.28,0,0,0,9.54-22.47c.61-8.34-6-17.52-13.29-15.71l-5.07-4h0l10.39-9.91a230.52,230.52,0,0,0,64.64,39.15,50.63,50.63,0,0,0-4.11,3.5A511.76,511.76,0,0,0,1182.85,1905.21Z" transform="translate(0 0)"/><path d="M1187.3,2045.87h-1.24a58.62,58.62,0,0,1-49.28-31.66,220.78,220.78,0,0,0-30.68-41.65,23.76,23.76,0,0,0-8-6c-28.83-12.32-56.92-23.9-83.91-34.74-58.65-23.41-109.16-43.74-145.39-71a53,53,0,0,1-15-17,48.41,48.41,0,0,1,2.09-49.28,46,46,0,0,1,37-20.33,53.5,53.5,0,0,1,7.14-31.67,50.8,50.8,0,0,1,37-24.64,54.36,54.36,0,0,1,45.83,17L1091.68,1845a24.64,24.64,0,0,0,17.75,7.51h2.34a17.85,17.85,0,0,0,12.32-5.17l59.51-57.17a10.59,10.59,0,0,1,14.91,0,218,218,0,0,0,63.08,38.07,12.13,12.13,0,0,1,2.34,20.33,455.19,455.19,0,0,0-70.23,67.27,2.85,2.85,0,0,0,0,3.82l28.83,34a59.62,59.62,0,0,1,5.67,69.49A47.92,47.92,0,0,1,1187.3,2045.87ZM899.15,1800.24a25.34,25.34,0,0,0-22,10.27,23,23,0,0,0-.72,24.16,32,32,0,0,0,8.33,9.06c33.35,25.25,81.56,44.47,137.62,66.94,26.71,10.87,54.5,22,83,34.56a42.42,42.42,0,0,1,15.1,11.11,232.75,232.75,0,0,1,33.35,45.19,36.25,36.25,0,0,0,30.93,19.33,25.26,25.26,0,0,0,23.2-12.08,34.31,34.31,0,0,0-3.5-40.11l-28.88-33.59a27,27,0,0,1,0-34.32,429,429,0,0,1,57.51-57.63,226.27,226.27,0,0,1-43.37-26.83l-51,49.3a39.29,39.29,0,0,1-27.07,11.12h-2.29a44,44,0,0,1-32.74-14.14l-106.81-108a33.37,33.37,0,0,0-27.55-10.39,27.59,27.59,0,0,0-20.91,13.41,33.16,33.16,0,0,0-1.81,27.55,12.07,12.07,0,0,1-6.76,14.62,10.91,10.91,0,0,1-5.56,0A29.76,29.76,0,0,0,899.15,1800.24Z" transform="translate(0 0)"/><path d="M917.64,1779.91a249.52,249.52,0,0,0,45.19,46.52,545.9,545.9,0,0,0,53.77,38.91c4.95,3.26,1,11.11-4.35,8.58-40.12-21.27-80.47-44.47-111.53-79.87C891.06,1781.73,908.21,1767.11,917.64,1779.91Z" transform="translate(0 0)"/></g></svg>