<svg xmlns="http://www.w3.org/2000/svg" xmlns:xlink="http://www.w3.org/1999/xlink" viewBox="0 0 3223.4 2763"><defs><style>.cls-1,.cls-2,.cls-3,.cls-42,.cls-44,.cls-45,.cls-46,.cls-50,.cls-51,.cls-52,.cls-55,.cls-56,.cls-57,.cls-64,.cls-65,.cls-66,.cls-7,.cls-8,.cls-9{fill:none;}.cls-1,.cls-2,.cls-3,.cls-44,.cls-45,.cls-46,.cls-50,.cls-51,.cls-52,.cls-55,.cls-56,.cls-57,.cls-64,.cls-65,.cls-66,.cls-7,.cls-8,.cls-9{stroke-linecap:round;stroke-width:13.75px;}.cls-1,.cls-2,.cls-3,.cls-41,.cls-42,.cls-44,.cls-45,.cls-46,.cls-50,.cls-51,.cls-52,.cls-55,.cls-56,.cls-57,.cls-64,.cls-65,.cls-66,.cls-7,.cls-8,.cls-9{stroke-miterlimit:10;}.cls-1{stroke:url(#Degradado_sin_nombre_14);}.cls-2{stroke-dasharray:1.38 27.65;stroke:url(#Degradado_sin_nombre_14-2);}.cls-3{stroke:url(#Degradado_sin_nombre_14-3);}.cls-4{fill:url(#Degradado_sin_nombre_121);}.cls-5{fill:url(#Degradado_sin_nombre_121-2);}.cls-6{fill:url(#Degradado_sin_nombre_121-3);}.cls-7{stroke:url(#Degradado_sin_nombre_121-4);}.cls-8{stroke-dasharray:1.35 26.94;stroke:url(#Degradado_sin_nombre_121-5);}.cls-9{stroke:url(#Degradado_sin_nombre_121-6);}.cls-10{fill:url(#Degradado_sin_nombre_2);}.cls-11{fill:url(#Degradado_sin_nombre_2-2);}.cls-12{fill:url(#Degradado_sin_nombre_2-3);}.cls-13{fill:url(#Degradado_sin_nombre_2-4);}.cls-14{fill:url(#Degradado_sin_nombre_2-5);}.cls-15{fill:url(#Degradado_sin_nombre_2-6);}.cls-16{fill:#f4f4f4;}.cls-17{fill:#d8d8d8;}.cls-18,.cls-37{fill:#fff;}.cls-19{fill:url(#Degradado_sin_nombre_2-7);}.cls-20{opacity:0.6;}.cls-21{opacity:0.3;}.cls-22{fill:#000072;}.cls-23{fill:#ffb839;}.cls-24{opacity:0.4;}.cls-25{opacity:0.2;}.cls-26{fill:url(#Degradado_sin_nombre_2-8);}.cls-27{fill:url(#Degradado_sin_nombre_2-9);}.cls-28{fill:#af0082;}.cls-29{fill:#a10056;}.cls-30{fill:#feda24;}.cls-31{opacity:0.35;}.cls-32{opacity:0.7;}.cls-33{fill:#020202;}.cls-34{fill:#d9d9d9;}.cls-35{fill:url(#Degradado_sin_nombre_2-10);}.cls-36{fill:url(#Degradado_sin_nombre_2-11);}.cls-37{opacity:0.61;}.cls-38{fill:url(#Degradado_sin_nombre_2-12);}.cls-39{fill:url(#Degradado_sin_nombre_2-13);}.cls-40{fill:url(#Degradado_sin_nombre_2-14);}.cls-41,.cls-42{stroke:#000;stroke-width:4.25px;}.cls-41{fill:url(#Degradado_sin_nombre_2-15);}.cls-43{fill:url(#Degradado_sin_nombre_2-16);}.cls-44{stroke:url(#Degradado_sin_nombre_47);}.cls-45{stroke-dasharray:1.37 27.48;stroke:url(#Degradado_sin_nombre_47-2);}.cls-46{stroke:url(#Degradado_sin_nombre_47-3);}.cls-47{fill:url(#Degradado_sin_nombre_47-4);}.cls-48{fill:url(#Degradado_sin_nombre_47-5);}.cls-49{fill:url(#Degradado_sin_nombre_47-6);}.cls-50{stroke:url(#Degradado_sin_nombre_220);}.cls-51{stroke-dasharray:1.37 27.46;stroke:url(#Degradado_sin_nombre_220-2);}.cls-52{stroke:url(#Degradado_sin_nombre_220-3);}.cls-53{fill:url(#Degradado_sin_nombre_220-4);}.cls-54{fill:url(#Degradado_sin_nombre_220-5);}.cls-55{stroke:url(#Degradado_sin_nombre_46);}.cls-56{stroke-dasharray:1.36 27.18;stroke:url(#Degradado_sin_nombre_46-2);}.cls-57{stroke:url(#Degradado_sin_nombre_46-3);}.cls-58{fill:url(#Degradado_sin_nombre_46-4);}.cls-59{fill:url(#Degradado_sin_nombre_46-5);}.cls-60{fill:url(#Degradado_sin_nombre_46-6);}.cls-61{fill:url(#Degradado_sin_nombre_29);}.cls-62{fill:url(#Degradado_sin_nombre_29-2);}.cls-63{fill:url(#Degradado_sin_nombre_29-3);}.cls-64{stroke:url(#Degradado_sin_nombre_220-6);}.cls-65{stroke-dasharray:1.37 27.48;stroke:url(#Degradado_sin_nombre_220-7);}.cls-66{stroke:url(#Degradado_sin_nombre_220-8);}.cls-67{fill:url(#Degradado_sin_nombre_220-9);}.cls-68{fill:url(#Degradado_sin_nombre_220-10);}.cls-69{fill:url(#Degradado_sin_nombre_31);}.cls-70{fill:url(#Degradado_sin_nombre_6);}.cls-71{fill:url(#Degradado_sin_nombre_46-7);}.cls-72{fill:url(#Degradado_sin_nombre_32);}.cls-73{fill:url(#Degradado_sin_nombre_220-11);}.cls-74{fill:url(#Degradado_sin_nombre_121-7);}</style><linearGradient id="Degradado_sin_nombre_14" x1="2135.12" y1="2350.28" x2="2403.41" y2="2350.28" gradientUnits="userSpaceOnUse"><stop offset="0" stop-color="#e5e5e5"/><stop offset="0.06" stop-color="#d6d6d6"/><stop offset="0.23" stop-color="#b7b7b7"/><stop offset="0.4" stop-color="#9f9f9f"/><stop offset="0.58" stop-color="#8e8e8e"/><stop offset="0.77" stop-color="#838383"/><stop offset="1" stop-color="gray"/></linearGradient><linearGradient id="Degradado_sin_nombre_14-2" x1="2135.12" y1="2532.24" x2="2403.41" y2="2532.24" xlink:href="#Degradado_sin_nombre_14"/><linearGradient id="Degradado_sin_nombre_14-3" x1="2135.12" y1="2702.99" x2="2403.41" y2="2702.99" xlink:href="#Degradado_sin_nombre_14"/><linearGradient id="Degradado_sin_nombre_121" x1="3098.81" y1="1537" x2="3121.49" y2="1537" gradientUnits="userSpaceOnUse"><stop offset="0" stop-color="#ff6fce"/><stop offset="1" stop-color="#e159ac"/></linearGradient><linearGradient id="Degradado_sin_nombre_121-2" x1="3145.94" y1="1537.57" x2="3188.17" y2="1537.57" xlink:href="#Degradado_sin_nombre_121"/><linearGradient id="Degradado_sin_nombre_121-3" x1="3198.3" y1="1537" x2="3274.7" y2="1537" xlink:href="#Degradado_sin_nombre_121"/><linearGradient id="Degradado_sin_nombre_121-4" x1="2541.83" y1="1507" x2="3036.44" y2="1507" xlink:href="#Degradado_sin_nombre_121"/><linearGradient id="Degradado_sin_nombre_121-5" x1="2541.83" y1="1504.54" x2="3036.44" y2="1504.54" xlink:href="#Degradado_sin_nombre_121"/><linearGradient id="Degradado_sin_nombre_121-6" x1="2541.83" y1="1502.22" x2="3036.44" y2="1502.22" xlink:href="#Degradado_sin_nombre_121"/><linearGradient id="Degradado_sin_nombre_2" x1="1528.61" y1="1294.3" x2="1717.3" y2="1294.3" gradientUnits="userSpaceOnUse"><stop offset="0" stop-color="#e6007a"/><stop offset="0.3" stop-color="#e30078"/><stop offset="0.52" stop-color="#da0074"/><stop offset="0.71" stop-color="#ca006b"/><stop offset="0.89" stop-color="#b3005f"/><stop offset="1" stop-color="#a10056"/></linearGradient><linearGradient id="Degradado_sin_nombre_2-2" x1="1528.61" y1="1707.74" x2="1717.3" y2="1707.74" xlink:href="#Degradado_sin_nombre_2"/><linearGradient id="Degradado_sin_nombre_2-3" x1="1428.24" y1="1438.66" x2="1562.2" y2="1438.66" gradientTransform="translate(1993.5 -575.6) rotate(60)" xlink:href="#Degradado_sin_nombre_2"/><linearGradient id="Degradado_sin_nombre_2-4" x1="1786.29" y1="1645.37" x2="1920.2" y2="1645.37" gradientTransform="translate(2351.6 -782.3) rotate(60)" xlink:href="#Degradado_sin_nombre_2"/><linearGradient id="Degradado_sin_nombre_2-5" x1="1428.24" y1="1645.4" x2="1562.2" y2="1645.4" gradientTransform="translate(1023 -527.2) rotate(30)" xlink:href="#Degradado_sin_nombre_2"/><linearGradient id="Degradado_sin_nombre_2-6" x1="1786.33" y1="1438.7" x2="1920.25" y2="1438.7" gradientTransform="translate(967.6 -733.9) rotate(30)" xlink:href="#Degradado_sin_nombre_2"/><linearGradient id="Degradado_sin_nombre_2-7" x1="1303.21" y1="1321.39" x2="1328.84" y2="1321.39" gradientTransform="matrix(1, 0, 0, -1, 0.11, 3076)" xlink:href="#Degradado_sin_nombre_2"/><linearGradient id="Degradado_sin_nombre_2-8" x1="1239.56" y1="1314.15" x2="1311.88" y2="1314.15" gradientTransform="matrix(1, 0, 0, -1, 0.11, 3076)" xlink:href="#Degradado_sin_nombre_2"/><linearGradient id="Degradado_sin_nombre_2-9" x1="1159.07" y1="1346.88" x2="1257.69" y2="1346.88" gradientTransform="matrix(1, 0, 0, -1, 0.11, 3076)" xlink:href="#Degradado_sin_nombre_2"/><linearGradient id="Degradado_sin_nombre_2-10" x1="1330.35" y1="1993.52" x2="1978.82" y2="1993.52" xlink:href="#Degradado_sin_nombre_2"/><linearGradient id="Degradado_sin_nombre_2-11" x1="1826" y1="1342.65" x2="2196.56" y2="1342.65" xlink:href="#Degradado_sin_nombre_2"/><linearGradient id="Degradado_sin_nombre_2-12" x1="1117.52" y1="1331.25" x2="1504.99" y2="1331.25" xlink:href="#Degradado_sin_nombre_2"/><linearGradient id="Degradado_sin_nombre_2-13" x1="2639.42" y1="2277.15" x2="2686.3" y2="2277.15" gradientTransform="translate(-471.2 -530.1)" xlink:href="#Degradado_sin_nombre_2"/><linearGradient id="Degradado_sin_nombre_2-14" x1="5738.48" y1="2569.59" x2="5871.08" y2="2569.59" gradientTransform="matrix(0.68, 0.42, 0.52, -0.85, -3294.24, 1532.5)" xlink:href="#Degradado_sin_nombre_2"/><linearGradient id="Degradado_sin_nombre_2-15" x1="2120.61" y1="1101.8" x2="2305.11" y2="1101.8" gradientTransform="translate(4266.3 2863.2) rotate(180)" xlink:href="#Degradado_sin_nombre_2"/><linearGradient id="Degradado_sin_nombre_2-16" x1="2041.45" y1="1085.1" x2="2174.01" y2="1085.1" gradientTransform="translate(4317.6 2904.2) rotate(180)" xlink:href="#Degradado_sin_nombre_2"/><linearGradient id="Degradado_sin_nombre_47" x1="198.37" y1="1499.35" x2="673.86" y2="1499.35" gradientUnits="userSpaceOnUse"><stop offset="0" stop-color="#e20077"/><stop offset="1" stop-color="#8a2454"/></linearGradient><linearGradient id="Degradado_sin_nombre_47-2" x1="198.37" y1="1499.33" x2="673.86" y2="1499.33" xlink:href="#Degradado_sin_nombre_47"/><linearGradient id="Degradado_sin_nombre_47-3" x1="198.37" y1="1499.31" x2="673.86" y2="1499.31" xlink:href="#Degradado_sin_nombre_47"/><linearGradient id="Degradado_sin_nombre_47-4" x1="51.3" y1="1537.57" x2="93.52" y2="1537.57" xlink:href="#Degradado_sin_nombre_47"/><linearGradient id="Degradado_sin_nombre_47-5" x1="104.28" y1="1537" x2="150.38" y2="1537" xlink:href="#Degradado_sin_nombre_47"/><linearGradient id="Degradado_sin_nombre_47-6" x1="157.27" y1="1537" x2="233.67" y2="1537" xlink:href="#Degradado_sin_nombre_47"/><linearGradient id="Degradado_sin_nombre_220" x1="1802.5" y1="609.95" x2="1903.88" y2="609.95" gradientUnits="userSpaceOnUse"><stop offset="0" stop-color="#ff0b97"/><stop offset="1" stop-color="#b7236d"/></linearGradient><linearGradient id="Degradado_sin_nombre_220-2" x1="1802.5" y1="362.39" x2="1903.88" y2="362.39" xlink:href="#Degradado_sin_nombre_220"/><linearGradient id="Degradado_sin_nombre_220-3" x1="1802.5" y1="128.34" x2="1903.88" y2="128.34" xlink:href="#Degradado_sin_nombre_220"/><linearGradient id="Degradado_sin_nombre_220-4" x1="1846.86" y1="76.69" x2="1889.08" y2="76.69" xlink:href="#Degradado_sin_nombre_220"/><linearGradient id="Degradado_sin_nombre_220-5" x1="1899.22" y1="76.12" x2="1975.62" y2="76.12" xlink:href="#Degradado_sin_nombre_220"/><linearGradient id="Degradado_sin_nombre_46" x1="2363.99" y1="938.69" x2="2746.74" y2="938.69" gradientUnits="userSpaceOnUse"><stop offset="0" stop-color="#ff2cce"/><stop offset="1" stop-color="#b72389"/></linearGradient><linearGradient id="Degradado_sin_nombre_46-2" x1="2363.99" y1="777" x2="2746.74" y2="777" xlink:href="#Degradado_sin_nombre_46"/><linearGradient id="Degradado_sin_nombre_46-3" x1="2363.99" y1="624.14" x2="2746.74" y2="624.14" xlink:href="#Degradado_sin_nombre_46"/><linearGradient id="Degradado_sin_nombre_46-4" x1="2781.71" y1="596.79" x2="2804.39" y2="596.79" xlink:href="#Degradado_sin_nombre_46"/><linearGradient id="Degradado_sin_nombre_46-5" x1="2828.22" y1="596.79" x2="2874.31" y2="596.79" xlink:href="#Degradado_sin_nombre_46"/><linearGradient id="Degradado_sin_nombre_46-6" x1="2881.21" y1="596.79" x2="2957.61" y2="596.79" xlink:href="#Degradado_sin_nombre_46"/><radialGradient id="Degradado_sin_nombre_29" cx="2393.02" cy="2768.88" r="25.32" gradientUnits="userSpaceOnUse"><stop offset="0" stop-color="gray"/><stop offset="0.55" stop-color="#828282"/><stop offset="0.79" stop-color="#898989"/><stop offset="0.97" stop-color="#969696"/><stop offset="1" stop-color="#999"/></radialGradient><radialGradient id="Degradado_sin_nombre_29-2" cx="2449.92" cy="2769.46" r="28.63" xlink:href="#Degradado_sin_nombre_29"/><radialGradient id="Degradado_sin_nombre_29-3" cx="2519.37" cy="2768.88" r="36.69" xlink:href="#Degradado_sin_nombre_29"/><linearGradient id="Degradado_sin_nombre_220-6" x1="2033.24" y1="659.19" x2="2189.21" y2="691" xlink:href="#Degradado_sin_nombre_220"/><linearGradient id="Degradado_sin_nombre_220-7" x1="2081.3" y1="423.56" x2="2237.27" y2="455.38" xlink:href="#Degradado_sin_nombre_220"/><linearGradient id="Degradado_sin_nombre_220-8" x1="2126.73" y1="200.8" x2="2282.7" y2="232.61" xlink:href="#Degradado_sin_nombre_220"/><linearGradient id="Degradado_sin_nombre_220-9" x1="2295.21" y1="211.79" x2="2337.43" y2="211.79" xlink:href="#Degradado_sin_nombre_220"/><linearGradient id="Degradado_sin_nombre_220-10" x1="2347.57" y1="211.21" x2="2423.97" y2="211.21" xlink:href="#Degradado_sin_nombre_220"/><radialGradient id="Degradado_sin_nombre_31" cx="1676.85" cy="1518.01" r="885.27" gradientUnits="userSpaceOnUse"><stop offset="0" stop-color="#8a2454"/><stop offset="0.3" stop-color="#8d2256"/><stop offset="0.52" stop-color="#961d5a"/><stop offset="0.71" stop-color="#a71563"/><stop offset="0.89" stop-color="#bd096e"/><stop offset="1" stop-color="#ce0077"/></radialGradient><radialGradient id="Degradado_sin_nombre_6" cx="1735.48" cy="1667.55" r="729" gradientUnits="userSpaceOnUse"><stop offset="0" stop-color="gray"/><stop offset="0.4" stop-color="#828282"/><stop offset="0.57" stop-color="#898989"/><stop offset="0.69" stop-color="#969696"/><stop offset="0.8" stop-color="#a7a7a7"/><stop offset="0.89" stop-color="#bfbfbf"/><stop offset="0.97" stop-color="#dbdbdb"/><stop offset="1" stop-color="#e6e6e6"/></radialGradient><linearGradient id="Degradado_sin_nombre_46-7" x1="2481.91" y1="923.38" x2="2090.76" y2="1185.64" xlink:href="#Degradado_sin_nombre_46"/><linearGradient id="Degradado_sin_nombre_32" x1="1793.2" y1="1269.78" x2="1942.32" y2="690.16" gradientUnits="userSpaceOnUse"><stop offset="0.22" stop-color="#9f1b5c"/><stop offset="1" stop-color="#d91881"/></linearGradient><linearGradient id="Degradado_sin_nombre_220-11" x1="2087.19" y1="705" x2="1932.16" y2="970.57" xlink:href="#Degradado_sin_nombre_220"/><linearGradient id="Degradado_sin_nombre_121-7" x1="2653.84" y1="1651.93" x2="2346.91" y2="1651.93" xlink:href="#Degradado_sin_nombre_121"/></defs><g id="Capa_3" data-name="Capa 3"><path class="cls-1" d="M2142,2350l.4.6" transform="translate(-51.3 -41)"/><path class="cls-2" d="M2158.6,2373l229.5,318.5" transform="translate(-51.3 -41)"/><path class="cls-3" d="M2396.1,2702.7l.4.6" transform="translate(-51.3 -41)"/><path class="cls-4" d="M3112.6,1511.6h-.2l-11.8,6.4-1.8-7,14.8-8h7.9v68h-8.9Z" transform="translate(-51.3 -41)"/><path class="cls-5" d="M3186.8,1510.8h-25.9l-2.6,17.4a36.7,36.7,0,0,1,5.5-.4,28.6,28.6,0,0,1,14.6,3.7c5.4,3,9.8,8.8,9.8,17.4,0,13.3-10.6,23.2-25.3,23.2-7.4,0-13.7-2.1-17-4.2l2.3-7a30.5,30.5,0,0,0,14.6,3.8c8.6,0,16.1-5.6,16.1-14.7s-6-15.1-19.6-15.1a74.2,74.2,0,0,0-9.4.7l4.4-32.6h32.5Z" transform="translate(-51.3 -41)"/><path class="cls-6" d="M3230.5,1522.2c0,14.3-7.5,21.4-16.3,21.4s-15.8-6.8-15.9-20.5,7.4-21.2,16.4-21.2S3230.5,1509.2,3230.5,1522.2Zm-24.9.6c-.2,8.7,3,15.2,8.8,15.2s8.8-6.4,8.8-15.4-2.4-15.2-8.8-15.2S3205.6,1514.2,3205.6,1522.8Zm8,49.3,39.9-70.2h5.8l-39.9,70.2Zm61.1-21.8c0,14.3-7.5,21.4-16.2,21.4s-15.8-6.8-15.9-20.4,7.4-21.3,16.4-21.3S3274.7,1537.3,3274.7,1550.3Zm-24.9.6c-.1,8.7,3.3,15.3,8.9,15.3s8.8-6.5,8.8-15.5-2.4-15.2-8.8-15.2S3249.8,1542.3,3249.8,1550.9Z" transform="translate(-51.3 -41)"/><line class="cls-7" x1="2548.7" y1="1507" x2="2549.4" y2="1507"/><line class="cls-8" x1="2576.3" y1="1506.7" x2="3015.4" y2="1502.4"/><line class="cls-9" x1="3028.9" y1="1502.2" x2="3029.6" y2="1502.2"/><g id="Capa_9" data-name="Capa 9"><ellipse class="cls-10" cx="1623" cy="1294.3" rx="94.3" ry="54.9"/><ellipse class="cls-11" cx="1623" cy="1707.7" rx="94.3" ry="54.9"/><ellipse class="cls-12" cx="1495.2" cy="1438.7" rx="94.3" ry="54.9" transform="translate(-549.6 1973.2) rotate(-60)"/><ellipse class="cls-13" cx="1853.2" cy="1645.4" rx="94.3" ry="54.9" transform="translate(-549.6 2386.6) rotate(-60)"/><ellipse class="cls-14" cx="1495.2" cy="1645.4" rx="54.9" ry="94.3" transform="translate(-673.7 927.1) rotate(-30)"/><ellipse class="cls-15" cx="1853.3" cy="1438.7" rx="54.9" ry="94.3" transform="translate(-522.4 1078.4) rotate(-30)"/><path class="cls-16" d="M1774.8,1063.9a100.6,100.6,0,0,1-201.1,2.6v-2.6c0-74.8,45-154.2,100.5-154.2S1774.8,988.4,1774.8,1063.9Z" transform="translate(-51.3 -41)"/><path class="cls-17" d="M1774.8,1063.9a100.6,100.6,0,0,1-196.3,30.7,91.9,91.9,0,0,0,170.2-48.2c0-58.9-30-120-70.3-136.6C1732,913.6,1774.8,990.3,1774.8,1063.9Z" transform="translate(-51.3 -41)"/><path d="M1674.3,1166.9A103,103,0,0,1,1571.2,1064h0a211.1,211.1,0,0,1,8-56.4,201.2,201.2,0,0,1,21.9-50.1c9.5-15.3,20.5-27.5,32.6-36.2s26.6-14,40.6-14,27.6,4.7,40.6,14,23,20.7,32.6,36a195.8,195.8,0,0,1,21.8,50.1,204.7,204.7,0,0,1,8,56.6A103,103,0,0,1,1674.4,1167h-.1Zm0-254.6c-12.9,0-25.5,4.4-37.6,13s-22.1,20-31.3,34.8a196.7,196.7,0,0,0-21.4,48.8,207.4,207.4,0,0,0-7.8,54.9,98,98,0,0,0,196,2.7,12.2,12.2,0,0,0,0-2.7,197.9,197.9,0,0,0-7.8-55.2,189.1,189.1,0,0,0-21.2-48.8c-9.2-14.8-19.7-26.4-31.3-34.6S1687.1,912.3,1674.3,912.3Z" transform="translate(-51.3 -41)"/><path class="cls-18" d="M1643.9,969.5c-15.1,20.1-24.9,38.1-33.8,31.5s-3.8-28.3,11.2-48.3,34.4-31,43.2-24.4S1658.9,949.4,1643.9,969.5Z" transform="translate(-51.3 -41)"/><path class="cls-18" d="M1604.7,1034c-3.2,10.8-4.6,20-9.3,18.6s-7.9-12.3-4.8-23.1,11.5-17.5,16.3-16.1S1607.8,1023.2,1604.7,1034Z" transform="translate(-51.3 -41)"/><path class="cls-17" d="M1666.8,1118c0,2.9-3.6,5.2-8,5.2s-8-2.3-8-5.2,3.1-3.9,7.5-3.9S1666.8,1115.1,1666.8,1118Z" transform="translate(-51.3 -41)"/><path class="cls-17" d="M1699.2,1110.3c1.6,2.3,0,6.3-3.6,8.8s-7.9,2.8-9.5.4.2-4.9,3.8-7.5S1697.5,1108,1699.2,1110.3Z" transform="translate(-51.3 -41)"/><path class="cls-17" d="M1683.6,1105.5c.6,2.6-2.3,5.5-6.3,6.3s-7.8-.5-8.4-3.2,2-4.2,6.1-5.1S1683.1,1102.8,1683.6,1105.5Z" transform="translate(-51.3 -41)"/><path class="cls-19" d="M1313,1771.6a52.9,52.9,0,0,0-1.5-9.7,8.1,8.1,0,0,0-1.2-2.9c-1.4-2.4-3.5-3.4-7-4a61.7,61.7,0,0,1,18.9-17.1,1.7,1.7,0,0,1,2.3.6.3.3,0,0,1,.1.2,6.4,6.4,0,0,1,.6,2.8,6.7,6.7,0,0,1-.7,2.4v.2h.6a3,3,0,0,1,2.9,2,9.7,9.7,0,0,1,.3,6.3h0a3.2,3.2,0,0,1-.3.9,3.1,3.1,0,0,1,.5,1C1331.3,1761.6,1319.7,1770.9,1313,1771.6Z" transform="translate(-51.3 -41)"/><g class="cls-20"><path class="cls-18" d="M1324.1,1739.5l.7-.3a.8.8,0,0,0-.2-.5,1.6,1.6,0,0,0-2.2-.9h-.2a62.7,62.7,0,0,0-18.9,17l2.6.7A63.6,63.6,0,0,1,1324.1,1739.5Z" transform="translate(-51.3 -41)"/></g><path d="M1313,1772.7a1.1,1.1,0,0,1-1.2-1.1c-.9-12.2-2.8-14.4-8.7-15.5a1.1,1.1,0,0,1-.9-.6,1.3,1.3,0,0,1,.2-1.2,61.5,61.5,0,0,1,19.2-17.4,3.1,3.1,0,0,1,2.3-.3,2.6,2.6,0,0,1,1.8,1.6,6.9,6.9,0,0,1,.5,4.7,4.2,4.2,0,0,1,1.8,1.1c1.8,1.8,2.3,5.3,1.2,9a8.7,8.7,0,0,1-.4,8.3c-3,6.1-10.7,10.9-15.7,11.4Zm-7.7-18.5c5.9,1.6,7.8,5.4,8.8,16a22.4,22.4,0,0,0,12.7-9.9,6.6,6.6,0,0,0,.2-6.5,1.2,1.2,0,0,1-.1-1c1.1-3.4.5-6.1-.6-7.2a1.3,1.3,0,0,0-1.5-.4,1.2,1.2,0,0,1-1.5-.7.9.9,0,0,1,.1-.9,5.1,5.1,0,0,0,.1-4.5l-.3-.2a.3.3,0,0,0-.4,0,61,61,0,0,0-17.5,15.3Z" transform="translate(-51.3 -41)"/><path d="M1325.6,1744.4a14.7,14.7,0,0,1-4.5,6.5,46.4,46.4,0,0,1-6.1,4.6.7.7,0,0,1-1-.3.6.6,0,0,1,.2-1,49.8,49.8,0,0,0,5.6-4.7,11.7,11.7,0,0,0,3.5-5.7,1.3,1.3,0,0,1,1.5-.9,1.2,1.2,0,0,1,.8,1.5Z" transform="translate(-51.3 -41)"/><path d="M1329,1753.8a24.8,24.8,0,0,1-10.7,8,.7.7,0,0,1-.9-.3.7.7,0,0,1,.4-.9,25,25,0,0,0,5.2-3.5,22.1,22.1,0,0,0,4-4.6,1.2,1.2,0,0,1,1.7-.3,1.2,1.2,0,0,1,.3,1.6Z" transform="translate(-51.3 -41)"/><g class="cls-21"><path class="cls-22" d="M1325.2,1741.5a6.7,6.7,0,0,1-.7,2.4Z" transform="translate(-51.3 -41)"/></g><g class="cls-21"><path d="M1328.5,1754.2c0,6.8-9.7,14.3-15.6,15.1a45,45,0,0,0-1.7-9.6c.9-.1,6.5-1.1,8.3-5.5a8.1,8.1,0,0,0,.5-3.1,8.3,8.3,0,0,0,4.5-7h.6a3,3,0,0,1,2.9,2,13.5,13.5,0,0,1-.5,4.5,6.7,6.7,0,0,1,.7,1.8h0A5.8,5.8,0,0,1,1328.5,1754.2Z" transform="translate(-51.3 -41)"/></g><path class="cls-23" d="M1197.8,1844a1.2,1.2,0,0,0,.2,1.7l3.1,2.9a4.3,4.3,0,0,1,1,5,4.1,4.1,0,0,1-1.6,1.6l-1.5.4a4.7,4.7,0,0,1-4.1-2,25.3,25.3,0,0,0-3.6-3.7,3.7,3.7,0,0,0-1.2-.7c-9.1-2.8-17.7-4.4-23.1-7.4a4.3,4.3,0,0,1-1.2-1.1,3.2,3.2,0,0,1,.6-4.5l.4-.2,1.2-.4h1.5a4.9,4.9,0,0,1-.5-1.6,3.9,3.9,0,0,1,3.1-4,4.8,4.8,0,0,1,3.7.9l11.6,9.1a3.3,3.3,0,0,0,2.5.8h.3a3,3,0,0,0,1.9-1l2.8-3.1,1.5-1.6h0l.9-1.1a24.6,24.6,0,0,0,6.8,3.1h0l-.4.3A37.8,37.8,0,0,0,1197.8,1844Z" transform="translate(-51.3 -41)"/><g class="cls-20"><path class="cls-18" d="M1171.5,1831.7a4.8,4.8,0,0,1,4,1l12.3,9.4a3.6,3.6,0,0,0,2.7.8h.2a3,3,0,0,0,2-1l3.1-3.3,1.5-1.8h0l1.2-1.5,2.3,1.2,2.6,1,.3-.2.4-.4h0a24.6,24.6,0,0,1-6.8-3.1l-.9,1.1h0l-1.5,1.6-2.8,3.1a3,3,0,0,1-1.9,1h-.2a3.5,3.5,0,0,1-2.6-.8l-11.6-9a4.5,4.5,0,0,0-3.7-1,3.8,3.8,0,0,0-3,3.3A4.5,4.5,0,0,1,1171.5,1831.7Z" transform="translate(-51.3 -41)"/></g><path d="M1198.7,1856.7a5.9,5.9,0,0,1-4.7-2.5,18.8,18.8,0,0,0-3.4-3.5,1.4,1.4,0,0,0-.8-.5l-8.5-2.4a65.1,65.1,0,0,1-14.8-5.2,5.2,5.2,0,0,1-1.6-1.4,4.5,4.5,0,0,1-.2-4.6,4.7,4.7,0,0,1,3.4-2.2,4.5,4.5,0,0,1,.4-3,5,5,0,0,1,3.4-2.6,5.8,5.8,0,0,1,4.6,1.1l11.6,9.1a2.3,2.3,0,0,0,1.8.5h.2a1.7,1.7,0,0,0,1.2-.5l5.3-5.8a1,1,0,0,1,1.4-.2,22.3,22.3,0,0,0,6.5,2.9,1,1,0,0,1,.7.8.9.9,0,0,1-.3,1,45,45,0,0,0-6.2,6.9.2.2,0,0,0,0,.3l3.1,2.9a5.2,5.2,0,0,1,1.2,6.3,4.6,4.6,0,0,1-4,2.5Zm-29.6-20.1a2.5,2.5,0,0,0-2.5,1.2,2,2,0,0,0,.1,2.2,3.2,3.2,0,0,0,.9.8,62,62,0,0,0,14.3,4.9l8.6,2.5,1.6.8a23.4,23.4,0,0,1,3.7,4,3.6,3.6,0,0,0,3.2,1.5,2.4,2.4,0,0,0,2.1-1.4,2.9,2.9,0,0,0-.7-3.7l-3.1-2.8a2.3,2.3,0,0,1-.3-3.2,36.8,36.8,0,0,1,5.1-6,18.5,18.5,0,0,1-4.5-2.1l-4.6,5.1a3.8,3.8,0,0,1-2.6,1.3h-.2a4.6,4.6,0,0,1-3.4-.9l-11.5-9.1a3.4,3.4,0,0,0-2.9-.7,2.7,2.7,0,0,0-1.9,1.4,3,3,0,0,0,0,2.6,1.1,1.1,0,0,1-.1,1.1,1.2,1.2,0,0,1-1,.5Z" transform="translate(-51.3 -41)"/><path d="M1170.3,1834.7a23.2,23.2,0,0,0,4.9,4,51.8,51.8,0,0,0,5.7,3.1.4.4,0,0,1,.1.6.4.4,0,0,1-.5.2,36.7,36.7,0,0,1-11.8-6.4,1.1,1.1,0,0,1,1.4-1.7l.2.2Z" transform="translate(-51.3 -41)"/><g class="cls-24"><path d="M1197.8,1844a1.2,1.2,0,0,0,.2,1.7l3.1,2.9a4.3,4.3,0,0,1,1,5,4.1,4.1,0,0,1-1.6,1.6,4.9,4.9,0,0,1-4.1-2.2,21.7,21.7,0,0,0-3.5-3.9,3.5,3.5,0,0,0-1.3-.8c-9.1-3-17.7-4.7-23.1-8a3.4,3.4,0,0,1-1.2-1.2,3.7,3.7,0,0,1-.5-3.1l1.2-.4h1.5a4.9,4.9,0,0,1-.5-1.6l.5-.2a13,13,0,0,1,3.8,2.2,58.3,58.3,0,0,0,14,7.8,9.4,9.4,0,0,0,4.3.8,6.3,6.3,0,0,0,3.6-2.1,17.8,17.8,0,0,0,2.5-3.6,4.1,4.1,0,0,0,.7-2.2,1.3,1.3,0,0,0-1.5-1.3l-.5-.3h0l.9-1.1a22,22,0,0,0,6.8,3.1l-.4.4A41,41,0,0,0,1197.8,1844Z" transform="translate(-51.3 -41)"/></g><path class="cls-18" d="M1189.7,1819.1c-2.2,16.1,19.2,26,32.2,13.6C1219.8,1821.1,1199.4,1813.3,1189.7,1819.1Z" transform="translate(-51.3 -41)"/><g class="cls-25"><path d="M1220.7,1829.9c-12.1,9.7-30.1,2.1-30.9-11.5-3,16.6,18.9,26.8,32,14.3a9.2,9.2,0,0,0-.8-2.7Z" transform="translate(-51.3 -41)"/></g><path d="M1190,1819.1a50.7,50.7,0,0,0,.9,5.4,13.5,13.5,0,0,0,2.2,4.7,19.8,19.8,0,0,0,23.7,5.9c1.7-.7,3.1-2,4.8-2.7l.5.2a.4.4,0,0,1-.1.3,6.8,6.8,0,0,1-1.8,2.3,22,22,0,0,1-2.5,1.7c-10.6,6.7-26.7.8-28.8-12a15.1,15.1,0,0,1-.2-3,9.4,9.4,0,0,1,.6-2.9.4.4,0,0,1,.5-.2.2.2,0,0,1,.2.2Z" transform="translate(-51.3 -41)"/><path class="cls-18" d="M1294.1,1818.8c-12.6,14-30.4,23.3-49.6,20.8-3.7-.5-7.5-1-11.2-1.3-28.1-2.5-51.1-14.4-66.3-40.7-2.6-.4-4.5-2.9-5.2-8.7-4.3,2-4-4-3.2-11.5-3.2,2-3.3-1.6-1.3-9.2-3.6,3.2-3.9-4.1.3-15.6a24.5,24.5,0,0,0,1.5-6.5v-.5c4.9-35.1,46.6-52.2,75.2-34.1a41.1,41.1,0,0,1,13.5,14.3,65.1,65.1,0,0,0,9.9,13.5c8.8,8.9,19.6,12.5,35.8,14.6,3,.4,6.3.8,9.7,1a9.2,9.2,0,0,1,7.8,6.3C1316.8,1778.9,1309.1,1802.1,1294.1,1818.8Z" transform="translate(-51.3 -41)"/><g class="cls-25"><path d="M1310,1761a9.1,9.1,0,0,0-7.8-6.2l-9.5-1a22.2,22.2,0,0,0-4.6,6.3c-2.2,4.1-4,8.6-7.4,11.8s-9.2,5-14.4,6.3l-11.8,2.8,2.6,2-1.3-.6,1.4.6a21.7,21.7,0,0,0,8.5,3l-1.3-.5a70.4,70.4,0,0,0,13.7,3.4c7.7.9,15.8-.2,22.3-4.5.8-.5,2-1.1,2.6-.4a1.4,1.4,0,0,1-.2,1.8,3.1,3.1,0,0,1-1.8.9,3,3,0,0,1,2.9,3.2v.3a2.9,2.9,0,0,1-2.1,2.3,2.5,2.5,0,0,0-1.6,2.3,25.4,25.4,0,0,1-3.1,12.4,50.8,50.8,0,0,1-8,11c-11.7,10.4-26.7,16.8-42.7,14.7l-9.1-1.1a25.4,25.4,0,0,1-1.3-4.5,22.2,22.2,0,0,1-13.6,2.3l-4-1-.7-.2h-.1c-19.6-5.4-35.9-17.2-47.4-37.6-2.7-.3-4.5-2.9-5.1-8.7-4.3,2-4-3.9-3.2-11.5-3.1,2.1-3.3-1.6-1.3-9.1-3.5,3.1-3.8-4.1.3-15.7a35,35,0,0,0,1.5-6.4v-.5a40.5,40.5,0,0,1,.9-4.8,44.6,44.6,0,0,0-3,11.4v.5a33.2,33.2,0,0,1-1.5,6.4c-4.1,11.6-3.8,18.9-.4,15.7-1.9,7.6-1.8,11.2,1.4,9.2-.9,7.5-1.2,13.5,3.1,11.5.7,5.7,2.5,8.3,5.1,8.6,15,26.4,37.6,38.3,65.3,40.8,3.7.3,7.3.8,11,1.3,19.7,2.6,37.5-7.5,50.1-22.3v-.2l.6-.7h.1l.8-1,.5-.6.4-.6.3-.4.5-.6h0l.3-.5,1-1.3.4-.6.3-.5.5-.7.4-.7.4-.5.3-.6.3-.5.5-.9.3-.4c.1-.3.3-.5.4-.8l.3-.4.4-.8.2-.3.5-1.1c0-.1,0-.2.2-.3l.4-.9.2-.3.4-1h0l.6-1.2v-.2a3,3,0,0,1,.4-1v-.3l.9-2.4c0-.1.2-.3.2-.5l.3-.7v-.2l.4-1.2h0l.4-1.2v-.2a21.7,21.7,0,0,0,.7-2.4h0A48.8,48.8,0,0,0,1310,1761Z" transform="translate(-51.3 -41)"/></g><path class="cls-26" d="M1309.4,1770.7a8,8,0,0,0-1.3,1.9c-8.4,17-39.2,18.5-57.3,6.6l-.8-.6-.5-.3-1.1-.9a6.7,6.7,0,0,1-1.4-1.1c-7.9-8-9.5-16.8-4.4-26.3,5.8-3.5,10.7-7.6,12.9-13.2l9.5,8.4.9,1.1a65.6,65.6,0,0,0,11.5,5,106.3,106.3,0,0,0,12.5,2.5,55.1,55.1,0,0,0,9,1h3a9.7,9.7,0,0,1,6.4,1.7,6.5,6.5,0,0,1,2.7,3.4l.3,1.2a5.3,5.3,0,0,0,.3,1.2A8,8,0,0,1,1309.4,1770.7Z" transform="translate(-51.3 -41)"/><g class="cls-20"><path class="cls-18" d="M1254.8,1739.4l9.5,9.1h0a7,7,0,0,0,2.2,2,58.8,58.8,0,0,0,10.2,4.6,107.4,107.4,0,0,0,12.5,2.8,55.1,55.1,0,0,0,9,1h3a9.1,9.1,0,0,1,6.4,1.8,7.2,7.2,0,0,1,2.7,3.7l.3,1.3a6.1,6.1,0,0,0,.3,1.3,7.4,7.4,0,0,1,.5,3.3,8.8,8.8,0,0,0,.3-6.4,2.8,2.8,0,0,1-.3-1.3l-.3-1.3a7.2,7.2,0,0,0-2.7-3.7,10.4,10.4,0,0,0-6.4-1.8h-3a38.2,38.2,0,0,1-9-1,107,107,0,0,1-12.5-2.7,61.2,61.2,0,0,1-11.6-5.4l-.8-1.2-9.5-9.2" transform="translate(-51.3 -41)"/></g><path class="cls-27" d="M1257.8,1739.3c-7.6,9.9-17,15.1-28.9,14-4.3-4.3-8.3-7-11.6-5.9a18.8,18.8,0,0,1-19.7,5.9c-15,.8-27.8-1.7-38.4-7.7,4.8-35.1,46.5-52.2,75.1-34.1a41.4,41.4,0,0,1,13.6,14.3A62.6,62.6,0,0,0,1257.8,1739.3Z" transform="translate(-51.3 -41)"/><g class="cls-20"><path class="cls-18" d="M1232.9,1715.7a40.2,40.2,0,0,1,13.5,14.3,67.1,67.1,0,0,0,8.8,12.3,25.5,25.5,0,0,0,2.6-3,65.1,65.1,0,0,1-9.9-13.5,41.1,41.1,0,0,0-13.5-14.3c-26.7-16.9-64.6-3.2-73.7,27.1C1171.9,1711.3,1207.5,1699.6,1232.9,1715.7Z" transform="translate(-51.3 -41)"/></g><path class="cls-28" d="M1195.1,1756.4v.2h-.3Z" transform="translate(-51.3 -41)"/><path class="cls-29" d="M1254.9,1735c-5.6,11.4-13.7,17-24.6,16.8a6.8,6.8,0,0,1-5.4-2.7h0a8,8,0,0,0-2.3-2.2c-2.6-1.8-5.1-.9-7.4.8a28.9,28.9,0,0,0-2.5,2.4,9.7,9.7,0,0,1-4.4,2.2h0a7.4,7.4,0,0,1-7.2-2.8l-3.2-4.4c-4.6,3.2-8.9,4.1-12.8,0-2.5-1.6-6.4-1.7-8.3.9s-4.1,1.6-5.6,0l-4,7.1c7.4,5.1,13.1,10.7,16.1,17.7a1.3,1.3,0,0,0,1.6.6,1,1,0,0,0,.5-.6,44.8,44.8,0,0,1,9.6-13.6,8.5,8.5,0,0,1,5-2h0a35,35,0,0,0,5.6-.2,8.7,8.7,0,0,0,3.1-1,10.9,10.9,0,0,0,5.6-3.2c2.2-2.3,5.1-4.4,8-2l2.2,2.7a7.2,7.2,0,0,0,2.5,1.8l1.4.7c10.7,6.4,25.1,1.6,32.5-12.7A44.7,44.7,0,0,1,1254.9,1735Zm-59.8,21.5h-.4l.4-.2v.3Z" transform="translate(-51.3 -41)"/><path class="cls-22" d="M1250.8,1841.2a48.2,48.2,0,0,1-6.5-.4h0c-3.5-.5-7.3-1-11.1-1.3a91.3,91.3,0,0,1-38.4-11.6,79.3,79.3,0,0,1-28.5-29.3c-2.8-.6-4.6-3.3-5.3-8.2a2.8,2.8,0,0,1-2.3-.5c-1.8-1.3-1.9-4.7-1.3-10.7a2.3,2.3,0,0,1-1.4-.4c-1-.8-1.8-2.4-.3-8.6l-.9-.3c-2.7-1.8-.7-10.7,1.8-17.7a33,33,0,0,0,1.5-6.2v-.5a46.8,46.8,0,0,1,9.6-22.8,52.1,52.1,0,0,1,18.6-14.6,52.7,52.7,0,0,1,24.4-5,48.7,48.7,0,0,1,24.3,7.4,41.1,41.1,0,0,1,13.9,14.8,66,66,0,0,0,9.7,13.2c10.5,10.6,23.8,13.6,44.8,15.4a10,10,0,0,1,8.8,7,49.4,49.4,0,0,1-.3,28.5,77.6,77.6,0,0,1-15,28,72.3,72.3,0,0,1-23.3,18.5A51.5,51.5,0,0,1,1250.8,1841.2Zm-89-53.5a1.3,1.3,0,0,1,1.2,1.1c.6,4.7,2,7.3,4.1,7.6a1.1,1.1,0,0,1,.9.6c14.1,24.3,35.4,37.5,65.4,40.1l11.2,1.3h0a43,43,0,0,0,6.2.4c16.1,0,31.9-8.1,44.3-23,14-16.8,20-38.5,14.9-54.2a7.9,7.9,0,0,0-6.8-5.4c-21.5-1.8-35.3-4.9-46.2-16a61.4,61.4,0,0,1-10.1-13.7,40.9,40.9,0,0,0-13.1-14,48.8,48.8,0,0,0-46.6-2.3,45.9,45.9,0,0,0-26.9,35.7v.4a29.8,29.8,0,0,1-1.6,6.7c-3.3,9.2-3.2,13.8-2.8,14.8a1,1,0,0,0,.5-.4,1.4,1.4,0,0,1,1.5-.1,1.2,1.2,0,0,1,.5,1.3c-1.6,6.1-1.3,7.8-1.1,8.2l.7-.3a1.1,1.1,0,0,1,1.3,0,1.1,1.1,0,0,1,.5,1.1c-.3,2.8-1.1,9.5.2,10.5s1,0,1.3-.2Z" transform="translate(-51.3 -41)"/><g class="cls-21"><path d="M1188.1,1755.3a10.9,10.9,0,0,1,0,10.5,3.1,3.1,0,0,1-1.5,1.5,3.5,3.5,0,0,1-2,.2,13.6,13.6,0,0,1-8.7-5.4c5.7.9,9.7-1.4,11.8-6.9" transform="translate(-51.3 -41)"/></g><path d="M1250.8,1841.2a48.2,48.2,0,0,1-6.5-.4h0c-3.5-.5-7.3-1-11.1-1.3a91.3,91.3,0,0,1-38.4-11.6,79.3,79.3,0,0,1-28.5-29.3c-2.8-.6-4.6-3.3-5.3-8.2a2.8,2.8,0,0,1-2.3-.5c-1.8-1.3-1.9-4.7-1.3-10.7a2.3,2.3,0,0,1-1.4-.4c-1-.8-1.8-2.4-.3-8.6l-.9-.3c-2.7-1.8-.7-10.7,1.8-17.7a33,33,0,0,0,1.5-6.2v-.5a46.8,46.8,0,0,1,9.6-22.8,52.1,52.1,0,0,1,18.6-14.6,52.7,52.7,0,0,1,24.4-5,48.7,48.7,0,0,1,24.3,7.4,41.1,41.1,0,0,1,13.9,14.8,66,66,0,0,0,9.7,13.2c10.5,10.6,23.8,13.6,44.8,15.4a10,10,0,0,1,8.8,7,49.4,49.4,0,0,1-.3,28.5,77.6,77.6,0,0,1-15,28,72.3,72.3,0,0,1-23.3,18.5A51.5,51.5,0,0,1,1250.8,1841.2Zm-89-53.5a1.3,1.3,0,0,1,1.2,1.1c.6,4.7,2,7.3,4.1,7.6a1.1,1.1,0,0,1,.9.6c14.1,24.3,35.4,37.5,65.4,40.1l11.2,1.3h0a43,43,0,0,0,6.2.4c16.1,0,31.9-8.1,44.3-23,14-16.8,20-38.5,14.9-54.2a7.9,7.9,0,0,0-6.8-5.4c-21.5-1.8-35.3-4.9-46.2-16a61.4,61.4,0,0,1-10.1-13.7,40.9,40.9,0,0,0-13.1-14,48.8,48.8,0,0,0-46.6-2.3,45.9,45.9,0,0,0-26.9,35.7v.4a29.8,29.8,0,0,1-1.6,6.7c-3.3,9.2-3.2,13.8-2.8,14.8a1,1,0,0,0,.5-.4,1.4,1.4,0,0,1,1.5-.1,1.2,1.2,0,0,1,.5,1.3c-1.6,6.1-1.3,7.8-1.1,8.2l.7-.3a1.1,1.1,0,0,1,1.3,0,1.1,1.1,0,0,1,.5,1.1c-.3,2.8-1.1,9.5.2,10.5s1,0,1.3-.2Z" transform="translate(-51.3 -41)"/><ellipse cx="1152" cy="1703.1" rx="8.1" ry="9.9"/><path class="cls-30" d="M1182.9,1750.2c6.1,2.3,6.3,8.3,3.8,12.1a3,3,0,0,1-2.5,1.3c-4,.2-7.4-.4-9.8-2.5a10.8,10.8,0,0,1,5.4-10.7A3.4,3.4,0,0,1,1182.9,1750.2Z" transform="translate(-51.3 -41)"/><path class="cls-23" d="M1186.7,1762.3a3,3,0,0,1-2.5,1.3,17.1,17.1,0,0,1-7.4-1,6.1,6.1,0,0,1-2.4-1.5,10.7,10.7,0,0,1,5.4-10.7,4.3,4.3,0,0,1,2.5-.5l.6.2C1189,1752.5,1189.2,1758.5,1186.7,1762.3Z" transform="translate(-51.3 -41)"/><g class="cls-21"><path d="M1185.5,1761.9a3.1,3.1,0,0,1-2.5,1.3,18.4,18.4,0,0,1-6.2-.6,6.1,6.1,0,0,1-2.4-1.5,10.7,10.7,0,0,1,5.4-10.7,4.3,4.3,0,0,1,2.5-.5C1187.7,1752.4,1187.8,1758.2,1185.5,1761.9Z" transform="translate(-51.3 -41)"/></g><path d="M1183.1,1764.6c-4.2,0-7.2-.9-9.3-2.8a.9.9,0,0,1-.3-.6,11.7,11.7,0,0,1,5.9-11.5,4.7,4.7,0,0,1,3.8-.4h0a8.8,8.8,0,0,1,5.4,5.4,9.7,9.7,0,0,1-1.2,8.1,3.8,3.8,0,0,1-3.2,1.8Zm-7.9-3.9c2,1.6,4.8,2.2,9,2.1a2.4,2.4,0,0,0,1.8-1,8.4,8.4,0,0,0,1-6.6,7,7,0,0,0-4.4-4.2h0a2.6,2.6,0,0,0-2.3.2,10,10,0,0,0-5.1,9.5Z" transform="translate(-51.3 -41)"/><path class="cls-23" d="M1174.4,1761.1c5.2,2.6,10.1-.9,13.1-7.1-2.7-3.7-5.6-5.3-8.5-3.1A10.8,10.8,0,0,0,1174.4,1761.1Z" transform="translate(-51.3 -41)"/><g class="cls-21"><path d="M1180.9,1750.1a6.9,6.9,0,0,1,3.4,2.2,2.6,2.6,0,0,1,.4,3.2c-2.7,4.2-6.3,6.6-10.3,5.6h0c5.3,2.5,10.1-.9,13.1-7.2C1185.3,1751.1,1183.2,1749.6,1180.9,1750.1Z" transform="translate(-51.3 -41)"/></g><path d="M1177.9,1762.7a8.5,8.5,0,0,1-3.8-.9.5.5,0,0,1-.4-.6,11.3,11.3,0,0,1,4.8-10.7,5.1,5.1,0,0,1,3.9-1.2c1.8.3,3.7,1.7,5.6,4.3a.6.6,0,0,1,0,.8,14.7,14.7,0,0,1-7.6,7.9A6.9,6.9,0,0,1,1177.9,1762.7Zm-2.8-2.1a6.9,6.9,0,0,0,4.9.3,13.3,13.3,0,0,0,6.6-6.8,8.3,8.3,0,0,0-4.4-3.4,3.7,3.7,0,0,0-2.8.9A10,10,0,0,0,1175.1,1760.6Z" transform="translate(-51.3 -41)"/><ellipse class="cls-18" cx="1148.8" cy="1701.4" rx="2.5" ry="3.8"/><g class="cls-31"><ellipse class="cls-18" cx="1206.3" cy="1748.2" rx="2.9" ry="1.9" transform="translate(-875.4 2330.9) rotate(-72.5)"/></g><ellipse cx="1115.8" cy="1703.1" rx="8.1" ry="9.9"/><ellipse class="cls-18" cx="1119" cy="1701.4" rx="2.5" ry="3.8"/><g class="cls-31"><ellipse class="cls-18" cx="1164" cy="1748.3" rx="1.9" ry="2.9" transform="translate(-523.8 390.8) rotate(-17.5)"/></g><path class="cls-18" d="M1234.9,1827c1.2,16.3,24.2,21.5,34.2,6.7C1264.7,1822.7,1243.1,1819.4,1234.9,1827Z" transform="translate(-51.3 -41)"/><g class="cls-25"><path d="M1267.5,1831.2c-9.8,12-29,8.3-32.7-4.9.6,16.9,24.2,22.3,34.3,7.4a11.9,11.9,0,0,0-1.3-2.5h-.3Z" transform="translate(-51.3 -41)"/></g><path d="M1235.2,1827c.7,1.8,1.2,3.4,2,5.1a15.3,15.3,0,0,0,3.1,4.1,19.7,19.7,0,0,0,24.4.9c1.5-1.1,2.6-2.6,4.2-3.6s.4-.1.5.1v.2a6,6,0,0,1-1.4,2.6,14.2,14.2,0,0,1-2,2.2c-8.9,8.8-25.9,6.3-30.7-5.7a24.5,24.5,0,0,1-.8-2.9,15,15,0,0,1,0-3l.4-.2.3.2Z" transform="translate(-51.3 -41)"/><path d="M1247.3,1776c13.2,9.4,31.4,12.6,46.7,7a25.7,25.7,0,0,0,9.9-6.6,22.6,22.6,0,0,0,2.3-3.1l1-1.8a6.5,6.5,0,0,1,1.5-1.8,7.9,7.9,0,0,0,1.7-3.1,5,5,0,0,0,.1-3.4c-.2-.5-.3-1.1-.5-1.6a5.6,5.6,0,0,0-1.7-3.6,8.8,8.8,0,0,0-6.8-2.1c-12.9.1-27.8-1.8-38.7-9-.2-.1-.3-.3-.1-.5h0a.4.4,0,0,1,.5-.2,97.9,97.9,0,0,0,32,7.2h6.2a11.8,11.8,0,0,1,8.7,2.7,8.8,8.8,0,0,1,2.4,4.8,7.8,7.8,0,0,0,.5,1.4,9.7,9.7,0,0,1-2.5,8.9c-.1.3-.4.5-.6.8l-1.5,2.5c-6.2,10.2-19.1,13.6-30.4,13.5s-23.1-3.4-31.4-11.4a.6.6,0,0,1,.1-.7.5.5,0,0,1,.5,0Z" transform="translate(-51.3 -41)"/><path d="M1312.7,1762.6c-2.9,7.3-17.9,7.6-24.5,6.7a.6.6,0,0,1-.5-.6h0a.6.6,0,0,1,.5-.6l6.3-.5a59.7,59.7,0,0,0,6.1-.9,20.2,20.2,0,0,0,8.3-3,5.3,5.3,0,0,0,1.6-2,1.1,1.1,0,0,1,1.5-.6,1.2,1.2,0,0,1,.7,1.5Z" transform="translate(-51.3 -41)"/><path d="M1310.1,1771.7a35,35,0,0,1-27.9,5.4.8.8,0,0,1-.5-.7.7.7,0,0,1,.6-.4h7a44.2,44.2,0,0,0,13.4-3,43,43,0,0,0,6-3.2,1.2,1.2,0,0,1,1.7.3,1.2,1.2,0,0,1-.3,1.6Z" transform="translate(-51.3 -41)"/><g class="cls-21"><path class="cls-22" d="M1250.6,1778.2l.2.8-.9-.4-.6-.3h1.3Z" transform="translate(-51.3 -41)"/></g><g class="cls-21"><path class="cls-22" d="M1290.4,1777.5h0Z" transform="translate(-51.3 -41)"/></g><g class="cls-21"><path d="M1309.4,1770.7a8,8,0,0,0-1.3,1.9c-8.4,17-39.2,18.5-57.3,6.6l-.8-.6-.5-.3-1.1-.9.4.2a80.8,80.8,0,0,0,24.7,6.7,25.4,25.4,0,0,0,9.9-.5,6.8,6.8,0,0,0,3.9-2.7,3.3,3.3,0,0,0-.5-4.3,16.6,16.6,0,0,0,7.3-2,5.5,5.5,0,0,0,2.5-6.5,21.6,21.6,0,0,0,6.1-2.4,8.3,8.3,0,0,0,4-5,5.1,5.1,0,0,0-2.5-5.6l4.1,1.1a6.3,6.3,0,0,1,2.6,3.4,2.7,2.7,0,0,1,.3,1.2,5.6,5.6,0,0,0,.4,1.2A8.4,8.4,0,0,1,1309.4,1770.7Z" transform="translate(-51.3 -41)"/></g><g class="cls-32"><path class="cls-18" d="M1175.8,1759.3a8.3,8.3,0,0,1,4.8-7.3C1178.9,1754.4,1178.4,1757.3,1175.8,1759.3Z" transform="translate(-51.3 -41)"/></g><path class="cls-23" d="M1239.2,1848.5a1.4,1.4,0,0,0,0,1.9l3.1,3.4a4.7,4.7,0,0,1,.5,5.6,4,4,0,0,1-1.9,1.5,4.7,4.7,0,0,1-1.7.3,5.2,5.2,0,0,1-4.2-2.6,25.1,25.1,0,0,0-3.5-4.4,3.4,3.4,0,0,0-1.2-.9c-9.6-4-18.7-6.6-24.2-10.5a8,8,0,0,1-1.3-1.3,3.6,3.6,0,0,1,1.2-4.8l.5-.2a5,5,0,0,1,1.3-.3,4.3,4.3,0,0,1,1.6,0,5.7,5.7,0,0,1-.3-1.8,4.1,4.1,0,0,1,3.7-3.9,4.7,4.7,0,0,1,4,1.4l11.6,11a3.7,3.7,0,0,0,2.7,1.1h.2a3.5,3.5,0,0,0,2.2-.8l3.4-3.1,1.8-1.6h0l1.1-1a27,27,0,0,0,7,4h0l-.5.3A49.9,49.9,0,0,0,1239.2,1848.5Z" transform="translate(-51.3 -41)"/><g class="cls-20"><path class="cls-18" d="M1212.1,1832.3a5.3,5.3,0,0,1,4.1,1.5l12.4,11.6a4.1,4.1,0,0,0,2.8,1.1h.3a3.8,3.8,0,0,0,2.3-.8l3.6-3.3,1.9-1.6h0l1.4-1.5,2.4,1.5,2.7,1.4.4-.2.4-.4h0a24.4,24.4,0,0,1-7-4l-1.1,1h0l-1.8,1.6-3.4,3.1a3.5,3.5,0,0,1-2.2.8h-.2a3.8,3.8,0,0,1-2.7-1l-11.6-11.2a5.1,5.1,0,0,0-3.9-1.4,4.2,4.2,0,0,0-3.6,3.2A5.3,5.3,0,0,1,1212.1,1832.3Z" transform="translate(-51.3 -41)"/></g><path d="M1239.4,1862.3h-.1a6.3,6.3,0,0,1-5.4-3.2,21.8,21.8,0,0,0-3.3-4.2l-.8-.6-9-3.5c-6.2-2.4-11.6-4.4-15.5-7.2a5.2,5.2,0,0,1-1.5-1.8,4.4,4.4,0,0,1,.2-5,4.9,4.9,0,0,1,3.9-2,5.1,5.1,0,0,1,.7-3.2,5.6,5.6,0,0,1,4-2.5,6,6,0,0,1,4.9,1.7l11.6,11.1a2.6,2.6,0,0,0,1.9.7h.3a1.8,1.8,0,0,0,1.3-.5l6.3-5.7a1.2,1.2,0,0,1,1.6,0,24.7,24.7,0,0,0,6.7,3.8,1.1,1.1,0,0,1,.7,1,1.2,1.2,0,0,1-.4,1.1,47.4,47.4,0,0,0-7.5,6.7.3.3,0,0,0,0,.4l3.1,3.4a5.7,5.7,0,0,1,.6,7A5,5,0,0,1,1239.4,1862.3Zm-31-25a2.7,2.7,0,0,0-2.4,1,2.3,2.3,0,0,0,0,2.5,2,2,0,0,0,.9.9c3.6,2.6,8.9,4.6,14.9,6.9,2.9,1.1,5.9,2.2,9,3.6a4.2,4.2,0,0,1,1.6,1.1,23.5,23.5,0,0,1,3.6,4.7,4,4,0,0,0,3.3,1.9,2.7,2.7,0,0,0,2.5-1.2,3.3,3.3,0,0,0-.4-4.1l-3.1-3.4a2.7,2.7,0,0,1,0-3.6,44,44,0,0,1,6.3-5.9,19.8,19.8,0,0,1-4.7-2.7l-5.6,5.1a4.6,4.6,0,0,1-3,1.1h-.2a5.4,5.4,0,0,1-3.6-1.4l-11.6-11.1a3.6,3.6,0,0,0-3-1,3.2,3.2,0,0,0-2.2,1.3,3.3,3.3,0,0,0-.2,2.9,1.2,1.2,0,0,1-.8,1.5h-1.3Z" transform="translate(-51.3 -41)"/><path d="M1210.4,1835.5a21.9,21.9,0,0,0,4.9,4.7,46,46,0,0,0,5.8,4,.5.5,0,0,1,.1.7.5.5,0,0,1-.6.2,39.8,39.8,0,0,1-12.1-8.2,1.2,1.2,0,0,1,1.5-1.8l.3.4Z" transform="translate(-51.3 -41)"/><g class="cls-24"><path d="M1239.2,1848.5a1.4,1.4,0,0,0,0,1.9l3.1,3.4a4.7,4.7,0,0,1,.5,5.6,4,4,0,0,1-1.9,1.5,5,5,0,0,1-4.2-2.8,25.5,25.5,0,0,0-3.4-4.7,6,6,0,0,0-1.3-.9c-9.5-4.2-18.6-7-24.1-11.2a3.5,3.5,0,0,1-1.3-1.4,3.7,3.7,0,0,1-.1-3.4,5,5,0,0,1,1.3-.3,4.3,4.3,0,0,1,1.6,0,5.7,5.7,0,0,1-.3-1.8h.5a15.5,15.5,0,0,1,3.9,2.8,64.1,64.1,0,0,0,14.3,9.9,9.5,9.5,0,0,0,4.6,1.4,7.2,7.2,0,0,0,4.1-2,21,21,0,0,0,3.1-3.5,5.2,5.2,0,0,0,1-2.3c0-.9-.7-1.8-1.5-1.6l-.5-.5h0l1.1-1a24.7,24.7,0,0,0,7,4.1l-.5.3A47.8,47.8,0,0,0,1239.2,1848.5Z" transform="translate(-51.3 -41)"/></g><path class="cls-33" d="M1151.6,1750.5a85.1,85.1,0,0,1,5,8.9,149.8,149.8,0,0,0,10.6,18.7,1,1,0,0,0,.4.5c.2,0,.3-.2.4-.3a103.5,103.5,0,0,1,12.2-16.5l2.3-2.4a2.8,2.8,0,0,1,3.7-.2,1.8,1.8,0,0,1,.5.7c1.1,1.8,2.3,3.6,3.4,5.2a171.3,171.3,0,0,0,16.4,20.7l.2.2c.3.4.4.4.7,0l5.2-6.3,8.4-10a5.4,5.4,0,0,1,1.5-1.5,3.9,3.9,0,0,1,4-.4l1.9,1.3,15.2,11.7c.7.5.7.5,1.3-.2a87.5,87.5,0,0,1,10-11.9,5.7,5.7,0,0,1,2.8-1.7,4.2,4.2,0,0,1,2.7.4l1.2.9a108.1,108.1,0,0,0,17.8,11.5l7,3.2c.2-.1.2-.3.3-.5a81.7,81.7,0,0,1,4.9-13.6,16.2,16.2,0,0,1,1-1.8,3.9,3.9,0,0,1,4.7-1.5,3.8,3.8,0,0,1,1.3.6l10,6,.7.4h0l-.2-.3-14.4-18.2a37,37,0,0,0-2.8,2.8,72.8,72.8,0,0,0-8,10.3,2.5,2.5,0,0,1-2.3,1.3,2.3,2.3,0,0,1-1.7-.7,65.5,65.5,0,0,1-6-5.8,109.8,109.8,0,0,1-14.7-19.2c-.5-.8-.3-.8-1.2-.4a81.5,81.5,0,0,0-14.5,8.6,4.6,4.6,0,0,1-1.6.7,2.6,2.6,0,0,1-2.5-1.3c-3.8-6.3-7.7-12.5-11.6-18.8l-.2-.3c-.3-.5-.3-.5-.9-.2l-18.6,10.5a6.2,6.2,0,0,1-2.2,1,3.4,3.4,0,0,1-3.7-1.2,5.6,5.6,0,0,1-1.1-2,179.6,179.6,0,0,1-9.4-29.4,2.4,2.4,0,0,0-.2-.8l-1.8,1a87.9,87.9,0,0,0-17.6,12.2l-.3.2a2.5,2.5,0,0,1-3.6,0l-.5-.7a3.6,3.6,0,0,1-.4-.9q-1.6-6.5-2.7-12.9c-.7-3.8-1.2-7.7-1.6-11.6s-.4-5-.7-7.6a1.1,1.1,0,0,1,.3-.7l3.6-4.2a184.9,184.9,0,0,1,28.6-25.9,143.3,143.3,0,0,1,23.6-13.9,97.3,97.3,0,0,1,22.9-7.4,73.6,73.6,0,0,1,15.6-1.2,60.9,60.9,0,0,1,20.7,4,65,65,0,0,1,22.3,14.3,87.1,87.1,0,0,1,15,20.1,124,124,0,0,1,10.7,26.8,165.1,165.1,0,0,1,4.4,20.9,193.9,193.9,0,0,1,1.7,31.4c0,1.9-.1,3.9-.1,5.8a1.7,1.7,0,0,0,.1,1,217.2,217.2,0,0,1,7.1,26.3c.9,4.5,1.6,8.9,2.2,13.5s1.1,8.5,1.4,12.8a175,175,0,0,1,.3,20.5,103,103,0,0,1-203.7,14.2,105,105,0,0,1-2-23.7c.1-4.4.3-8.7.6-13.1a204.6,204.6,0,0,1,3.4-23.5,223.7,223.7,0,0,1,9.5-33.4C1150.8,1752.4,1151.2,1751.5,1151.6,1750.5Zm134.9-100.8a.1.1,0,0,0-.1-.1h0l-.9-.5a56.1,56.1,0,0,0-26.9-8.5,69.3,69.3,0,0,0-16.4,1.1,91.7,91.7,0,0,0-23.2,7.7,131.4,131.4,0,0,0-20.5,12.1,185.3,185.3,0,0,0-30.6,28.1,1.5,1.5,0,0,0-.3,1c.3,2.6.5,5.3.9,7.9q.8,6.8,2.1,13.2c.3,1.3.6,2.7.8,3.9h.2l.5-.3a89.3,89.3,0,0,1,9.7-6.8l4.1-2.5.6-.3,5.5-2.8a2.8,2.8,0,0,1,3.7,1.2,1.6,1.6,0,0,1,.3.9,2.7,2.7,0,0,0,.3,1.2v.4a179.9,179.9,0,0,0,8.1,27.1l1.2,3,.6-.3,18.1-10.2,1.8-.9a3.9,3.9,0,0,1,4.5,1.2,13,13,0,0,1,1,1.5l10.2,16.3.5.8.7-.4a85.4,85.4,0,0,1,8.2-5l5.4-2.6,1.4-.5a3.9,3.9,0,0,1,4.4,1.5l1.5,2.5a103.7,103.7,0,0,0,16.8,20.6l.5.5.3-.4a79.3,79.3,0,0,1,9.2-10.9l1.8-1.6a3.9,3.9,0,0,1,4.8.2,8.6,8.6,0,0,1,1.3,1.4l6,7.6,2.6,3.2,2.6,3.4,2.7,3.3c.2.3.4.4.6,0l.3-.2,11.9-10.2.9-.6a.5.5,0,0,0,.4-.5v-.7c.1-5.1.1-10.1,0-15.1s-.6-9.8-1.2-14.6-1.5-10.4-2.6-15.5a137.1,137.1,0,0,0-8.9-27.4,94,94,0,0,0-9.7-16.5,67.9,67.9,0,0,0-15.6-15.6,8.6,8.6,0,0,0-2-1.3Zm-136,217a3,3,0,0,0,.4.8,95.3,95.3,0,0,0,20.8,29.4,97.3,97.3,0,0,0,79.1,27.1,97.8,97.8,0,0,0,82.3-67.2,98.9,98.9,0,0,0,4.6-26.5c.2-4,0-8-.1-12s-.5-8.9-1-13.2-1.3-9.6-2.1-14.3a203.1,203.1,0,0,0-4.9-20.8c0-.2-.1-.3-.2-.5a1.8,1.8,0,0,0-.5.7c-2.4,4.2-4.8,8.5-7.1,12.8a2.7,2.7,0,0,1-3.7,1.2l-.3-.2-1.8-1.1-3.9-2.3-.3-.2-14.9-9c-.1,0-.3-.2-.5-.1s-.2.4-.3.6a63.8,63.8,0,0,0-5,15.3,2.8,2.8,0,0,1-3.4,2.1h-.3a113,113,0,0,1-15.7-7.5,134.8,134.8,0,0,1-12.7-8.6c-.5-.5-.5-.5-1,0s-3.5,3.8-5.3,5.9-3.7,4.8-5.4,7.3a2.7,2.7,0,0,1-3.6,1.2l-.6-.5-17.4-13.3c-.7-.6-.7-.6-1.3.1l-13.5,16.2-1.4,1.5a3.6,3.6,0,0,1-4.7.1,8.6,8.6,0,0,1-1.4-1.3,189.3,189.3,0,0,1-17.7-22.2l-1.7-2.5-.6.5a106,106,0,0,0-7.8,9.9l-1.2,1.9a1.6,1.6,0,0,0-.4.7c-1.4,2.1-2.6,4.3-3.8,6.5a2.5,2.5,0,0,1-3.3,1.1h0a3.5,3.5,0,0,1-1.5-1.2l-2.8-4.1a.3.3,0,0,0-.1-.2,180.1,180.1,0,0,1-9.8-17.1.4.4,0,0,0-.3-.4c-.3-.1-.1.3-.2.4a207.8,207.8,0,0,0-8.4,36.7c-.6,4.2-1,8.4-1.3,12.5s-.6,10.5-.5,15.7a94.2,94.2,0,0,0,4.6,27.9,75.7,75.7,0,0,0,4,10.3Zm167.9-88.5,8-14.3-.8.5-10.6,9.1a4.8,4.8,0,0,1-2.3,1.3Z" transform="translate(-51.3 -41)"/><path class="cls-16" d="M1174.4,1777.9a21.4,21.4,0,0,1,1.3-1.9,90.7,90.7,0,0,1,7.7-9.9,1.8,1.8,0,0,1,.7-.5l1.6,2.5a190.2,190.2,0,0,0,17.8,22.2,8,8,0,0,0,1.3,1.3,3.6,3.6,0,0,0,4.7-.1l1.4-1.5,13.5-16.2c.6-.7.6-.7,1.4-.1l17.3,13.3a2.7,2.7,0,0,0,3.8,0l.5-.7a75.2,75.2,0,0,1,10.7-13.2c.4-.5.5-.5,1,0a123,123,0,0,0,12.7,8.6,111.8,111.8,0,0,0,15.6,7.5,2.7,2.7,0,0,0,3.6-1.6c.1-.1.1-.2.1-.4a68.8,68.8,0,0,1,5.1-15.3l.3-.6c.1-.2.3,0,.4.1l15,9,.3.2c.2,1.8.5,3.4.7,5.2s.5,3.6.6,5.5.4,3.6.5,5.2.2,3.6.3,5.5,0,4.1.2,6.1-.3,4.2-.2,6.4v.2c-.2,1.5-.2,3-.4,4.4s-.3,2.9-.5,4.3-.7,3.5-1.1,5.3-1.1,4.8-1.8,7.2a52.7,52.7,0,0,1-1.9,5.6,70.4,70.4,0,0,1-3.2,7.5c-.6,1.3-1.2,2.6-1.9,3.9l-3.2,5.3a96,96,0,0,1-5.9,8.3c-1.4,1.6-2.7,3.3-4.1,4.8a94.5,94.5,0,0,1-7.9,7.6l-3.8,3.1c-2.2,1.7-4.5,3.3-6.8,4.8s-4.2,2.5-6.4,3.6a83.2,83.2,0,0,1-8.5,4.1,76.2,76.2,0,0,1-8.8,3,85.2,85.2,0,0,1-8.4,2l-6.3,1a49.3,49.3,0,0,1-5.4.5c-2.5,0-5.1.3-7.6.2h-.7c-1.3-.3-2.8,0-4.2-.3l-2.6-.2-5.4-.7-5.4-1.1a88.1,88.1,0,0,1-11.4-3.4,67.1,67.1,0,0,1-7.8-3.2,68.3,68.3,0,0,1-8-4.4,74.8,74.8,0,0,1-6.6-4.3l-4.2-3.3-4.2-3.6-4.8-4.8-1.8-1.9c-.8-1-1.8-2-2.5-3a.4.4,0,0,0-.4-.2,70.9,70.9,0,0,1-4-10.3,96.9,96.9,0,0,1-4.6-27.8c-.1-5.2.1-10.5.5-15.7s.7-8.4,1.3-12.5a199.5,199.5,0,0,1,8.5-36.7c0-.2,0-.3.1-.4s.3.2.4.4a160.8,160.8,0,0,0,9.8,17.1v.2a5.7,5.7,0,0,0-1.1,1.1,22.5,22.5,0,0,0-2.4,3.6,29,29,0,0,0-2.9,6.8,35.8,35.8,0,0,0-1.3,8.6c0,.8.1,1.5.1,2.3s.2,2.1.4,3.1a19.8,19.8,0,0,0,2.1,5.9,8.3,8.3,0,0,0,3,2.9,3.2,3.2,0,0,0,3.9-1,18.8,18.8,0,0,0,2.2-4.5c.9-2.8,1.8-5.6,2.5-8.5s2-7.2,3.1-10.7a70.2,70.2,0,0,0,2.4-9A5.5,5.5,0,0,0,1174.4,1777.9Zm87.9,94.1h-1.2a13.7,13.7,0,0,0-4.6,2.1,20.1,20.1,0,0,0-2.9,2.2,8.2,8.2,0,0,0-2,2.5,2.7,2.7,0,0,0-.4,1.8,3.6,3.6,0,0,0,2.9,3.1,8.1,8.1,0,0,0,3.1,0,12.1,12.1,0,0,0,4.7-2.3,9.7,9.7,0,0,0,3.6-5.5,3.6,3.6,0,0,0-1.8-3.9,3.3,3.3,0,0,0-1.4-.1Zm-38.3,4.8h-2.2a13.1,13.1,0,0,0-3.4.9,3.2,3.2,0,0,0-1.5,4.5c0,.1,0,.1.1.2a4.4,4.4,0,0,0,1.9,1.9,11,11,0,0,0,7.5,1.4,8.7,8.7,0,0,0,3.5-1.3,4.6,4.6,0,0,0,2.4-2.9,2.7,2.7,0,0,0-.7-2.7,5.9,5.9,0,0,0-2.7-1.5A20.5,20.5,0,0,0,1224,1876.8Zm16.6-2a11.4,11.4,0,0,0,4.1-.7,7.8,7.8,0,0,0,4.1-3.3,3.9,3.9,0,0,0,.3-3,.5.5,0,0,0-.2-.4,2.8,2.8,0,0,0-1.6-1.2,10.8,10.8,0,0,0-3.6-.4,32,32,0,0,0-4.1.7,10.2,10.2,0,0,0-3.4,1.4,4.6,4.6,0,0,0-1.6,1.8,3.7,3.7,0,0,0,1.4,3.8,7.1,7.1,0,0,0,4.6,1.3Z" transform="translate(-51.3 -41)"/><path class="cls-16" d="M1307.2,1761.2l-2.5-3.2-6-7.6-1.4-1.4a3.8,3.8,0,0,0-4.7-.2,9.3,9.3,0,0,0-1.8,1.6,87.8,87.8,0,0,0-9.3,10.9l-.3.4-.5-.5a103.9,103.9,0,0,1-16.7-20.6l-1.5-2.4a4.1,4.1,0,0,0-4.4-1.6l-1.4.5c-1.8.9-3.6,1.7-5.4,2.7s-5.6,3.2-8.3,5l-.6.4-.5-.8-10.2-16.3a4.2,4.2,0,0,0-1.1-1.5,3.6,3.6,0,0,0-4.4-1.2,7.6,7.6,0,0,0-1.8.9l-18.1,10.2a.9.9,0,0,1-.6.3l-1.2-3a170.5,170.5,0,0,1-8.2-27.2v-.4h.3c1.5-.6,2.9-1.4,4.3-2.1s5.7-3.4,8.5-5.3c4.4-2.8,8.8-5.8,13.1-8.7l10.8-6.9,5-3,4.5-2.8,4.9-3.1,3.8-2.5a43,43,0,0,0,4.9-3.8,18.8,18.8,0,0,0,4.4-4.9,7.1,7.1,0,0,0,1.1-4.5,7.2,7.2,0,0,0-1.8-3.6,9.9,9.9,0,0,0-4.1-2.9,18.7,18.7,0,0,0-6.1-1.4,37.6,37.6,0,0,0-6.7.3,43.7,43.7,0,0,0-5,.9,56.5,56.5,0,0,0-8,2.4,74.8,74.8,0,0,0-8.2,3.5c-1.2.5-2.4,1.2-3.6,1.8s-4,2.2-5.9,3.4-4.7,3-6.9,4.7-2.4,1.8-3.5,2.8a48.1,48.1,0,0,0-4.8,4.2c-1.5,1.4-2.9,2.9-4.3,4.4s-2.1,2.3-3,3.6a61.8,61.8,0,0,0-3.6,5.3,31.3,31.3,0,0,0-3,6.8,15,15,0,0,0-.5,6.3,9,9,0,0,0,2,4.7.9.9,0,0,0,.8.4l-3.9,2.2c-3.3,2.1-6.6,4.4-9.7,6.8a1,1,0,0,1-.5.4h-.2c-.2-1.3-.5-2.6-.8-3.9q-1.3-6.6-2.1-13.2c-.4-2.6-.6-5.4-.9-8a1.9,1.9,0,0,1,.3-1,180.5,180.5,0,0,1,30.6-28,142,142,0,0,1,20.5-12.2,96.3,96.3,0,0,1,23.3-7.6,64.4,64.4,0,0,1,16.4-1.1,57.1,57.1,0,0,1,26.9,8.4l.8.6c0,.1.1.1.2.1h0c0,.2,0,.5.2.6l3.4,4.5a89.4,89.4,0,0,1,5.1,8.4c1.3,2.4,2.5,4.8,3.6,7.4s2.3,5.6,3.3,8.4,2.2,7.2,3.2,10.8c.4,1.7.9,3.5,1.3,5.5s.7,3.8,1,5.7.5,2.8.7,4.2.3,2.9.5,4.3l.6,5.6c.2,1.4.2,2.9.3,4.3s.1,2.6.2,4v8.9c0,2.5-.2,4.9-.2,7.4v.2c-.2,1.4-.2,2.8-.3,4.2a16.4,16.4,0,0,1-.2,2.2c-.2,1.8-.3,3.5-.6,5.2s-.4,2.9-.5,4.3-.4,2.8-.6,4.1S1307.5,1760.9,1307.2,1761.2Z" transform="translate(-51.3 -41)"/><path class="cls-17" d="M1150.6,1866.7a.4.4,0,0,1,.4.2l2.5,3c.6.6,1.1,1.3,1.8,1.9l4.8,4.8,4.1,3.6,4.3,3.3a74.8,74.8,0,0,0,6.6,4.3,68.3,68.3,0,0,0,8,4.4,67.1,67.1,0,0,0,7.8,3.2,91.5,91.5,0,0,0,11.3,3.4l5.5,1.1,5.4.7,2.6.2c1.4.2,2.8,0,4.2.3h.7c2.5.1,5.1-.1,7.6-.2a49.3,49.3,0,0,0,5.4-.5l6.3-1a77.2,77.2,0,0,0,8.3-2,71.6,71.6,0,0,0,8.9-3c2.8-1.2,5.7-2.5,8.4-3.9l6.3-3.6q3.6-2.2,6.9-4.8l3.8-3.1c2.7-2.4,5.4-4.9,7.9-7.6s2.7-3.2,4-4.8a69.2,69.2,0,0,0,5.9-8.3c1.2-1.8,2.2-3.6,3.2-5.3s1.4-2.6,2-3.9,2.2-4.9,3.2-7.4,1.3-3.8,1.9-5.7,1.3-4.7,1.8-7.2.7-3.5,1-5.3.4-2.8.6-4.2.2-3,.4-4.5v-.2c-.1-2.2.3-4.3.1-6.4s0-4-.1-6.1-.2-3.5-.3-5.5-.3-3.5-.5-5.2-.4-3.7-.6-5.5-.5-3.5-.8-5.2c1.4.7,2.6,1.6,3.9,2.3l1.8,1.1a2.8,2.8,0,0,0,3.9-.7l.2-.3,7-12.8a1.8,1.8,0,0,1,.5-.7c0,.2.2.3.2.5,2,6.9,3.6,13.8,4.9,20.8.9,4.7,1.6,9.5,2.1,14.3s.8,8.8,1,13.2.3,8,.1,12a95.2,95.2,0,0,1-4.7,26.5,97.6,97.6,0,0,1-82.3,67.2,98.4,98.4,0,0,1-99.9-56.5Z" transform="translate(-51.3 -41)"/><path class="cls-18" d="M1185.8,1706a.9.9,0,0,1-.8-.4,9,9,0,0,1-2-4.7,13.1,13.1,0,0,1,.6-6.2,31.6,31.6,0,0,1,2.9-6.8,50.7,50.7,0,0,1,3.6-5.4c.9-1.2,2-2.4,3-3.6l4.3-4.4a48.1,48.1,0,0,1,4.8-4.2c1.2-.9,2.3-1.9,3.6-2.8s4.5-3.2,6.8-4.7,3.9-2.3,5.9-3.4a24.2,24.2,0,0,1,3.6-1.8,84.1,84.1,0,0,1,8.2-3.5c2.6-.9,5.3-1.7,8-2.4l5-.9a30.2,30.2,0,0,1,6.7-.2,15.9,15.9,0,0,1,6.1,1.3,10.2,10.2,0,0,1,4.1,3,6.2,6.2,0,0,1,1.8,3.5,6.5,6.5,0,0,1-1.1,4.5,21.1,21.1,0,0,1-4.4,5,57.2,57.2,0,0,1-4.9,3.7l-3.8,2.5-4.9,3.1c-1.6,1.1-3,1.8-4.5,2.8s-3.4,2-5,3.1l-10.8,6.8-13.1,8.8-8.5,5.2c-1.4.7-2.8,1.5-4.2,2.1h-.3a2.7,2.7,0,0,1-.3-1.2,2.9,2.9,0,0,0-3.2-2.3l-.8.2c-1.8,1-3.7,1.8-5.6,2.9A2,2,0,0,1,1185.8,1706Z" transform="translate(-51.3 -41)"/><path class="cls-17" d="M1307.2,1761.2c.3-.3.2-.8.3-1.2a27.6,27.6,0,0,0,.6-4l.6-4.4c.2-1.8.3-3.4.5-5.2a16.4,16.4,0,0,0,.2-2.2c.1-1.4.1-2.8.3-4.2v-.2c0-2.5.3-4.9.2-7.4v-8.9c0-1.3-.1-2.7-.2-4a32.2,32.2,0,0,0-.3-4.3c-.2-1.8-.3-3.7-.5-5.6l-.6-4.3c-.1-1.5-.4-2.8-.6-4.2s-.7-3.8-1.1-5.7-.8-3.7-1.3-5.5a110.3,110.3,0,0,0-3.2-10.8c-1-2.8-2.1-5.7-3.3-8.4a71.2,71.2,0,0,0-3.5-7.4,90.3,90.3,0,0,0-5.2-8.4q-1.5-2.2-3.3-4.5a.7.7,0,0,1-.3-.6,13.7,13.7,0,0,1,2,1.3,68.4,68.4,0,0,1,15.7,15.6,97.2,97.2,0,0,1,9.6,16.5,133.2,133.2,0,0,1,9,27.4c1.1,5.1,2,10.3,2.6,15.5s.9,9.7,1.1,14.6.2,10.1,0,15.1v.7a.4.4,0,0,1-.3.5l-.9.7-11.9,10.1-.3.3a.4.4,0,0,1-.7,0l-2.6-3.3Z" transform="translate(-51.3 -41)"/><path class="cls-18" d="M1174.4,1777.9a5.6,5.6,0,0,1,.3,3.6,70.2,70.2,0,0,1-2.4,9c-1.1,3.5-2.2,7.1-3.2,10.7s-1.5,5.7-2.4,8.6a20.1,20.1,0,0,1-2.2,4.4,3.2,3.2,0,0,1-3.9,1,8.3,8.3,0,0,1-3-2.9,19.8,19.8,0,0,1-2.1-5.9c-.2-1-.3-2.1-.4-3.1s-.1-1.5-.1-2.3a35.8,35.8,0,0,1,1.3-8.6,33.6,33.6,0,0,1,2.8-6.8,32.7,32.7,0,0,1,2.5-3.6,5.7,5.7,0,0,1,1.1-1.1l2.7,4.1a4.4,4.4,0,0,0,1.5,1.2,2.5,2.5,0,0,0,3.3-1.1h0c1.2-2.2,2.5-4.3,3.8-6.5Z" transform="translate(-51.3 -41)"/><path class="cls-34" d="M1286.5,1649.7h0Z" transform="translate(-51.3 -41)"/><path class="cls-17" d="M1262.3,1872a2.8,2.8,0,0,1,1.3.1,3.4,3.4,0,0,1,1.8,3.9,9.2,9.2,0,0,1-3.6,5.4,12.6,12.6,0,0,1-4.6,2.4,8.1,8.1,0,0,1-3.1,0,3.6,3.6,0,0,1-2.9-3.1,2.7,2.7,0,0,1,.4-1.8,8.2,8.2,0,0,1,2-2.5,20.1,20.1,0,0,1,2.9-2.2,13.7,13.7,0,0,1,4.6-2.1Z" transform="translate(-51.3 -41)"/><path class="cls-17" d="M1224,1876.8a21.4,21.4,0,0,1,5,.6,7.2,7.2,0,0,1,2.7,1.5,2.7,2.7,0,0,1,.6,2.7,4.5,4.5,0,0,1-2.3,2.9,9.2,9.2,0,0,1-3.6,1.3,10.6,10.6,0,0,1-7.4-1.4,5.2,5.2,0,0,1-2-1.9,3.4,3.4,0,0,1,1.3-4.6h.2a12.4,12.4,0,0,1,3.3-.9Z" transform="translate(-51.3 -41)"/><path class="cls-17" d="M1240.6,1874.8a7.6,7.6,0,0,1-4.6-1.2,3.8,3.8,0,0,1-1.4-3.8,4,4,0,0,1,1.6-1.8,8.5,8.5,0,0,1,3.4-1.4,20.7,20.7,0,0,1,4.1-.7,8.7,8.7,0,0,1,3.6.4,3.1,3.1,0,0,1,1.6,1.1l.2.4a4.1,4.1,0,0,1-.3,3.1,8.1,8.1,0,0,1-4.1,3.2A9.6,9.6,0,0,1,1240.6,1874.8Z" transform="translate(-51.3 -41)"/><path class="cls-35" d="M1978.8,1953.9l-35.5,79.7-22.7-31.3a520.1,520.1,0,0,1-590.2-71.7c3.2-2.1,6.3-4.2,9.4-6.5,89.5,80.5,207.6,129.4,336.9,129.4a500.2,500.2,0,0,0,237.7-59.6L1892,1963Z" transform="translate(-51.3 -41)"/><path class="cls-36" d="M2196.6,1543.1a522.8,522.8,0,0,1-10.4,103.8c-4-2.3-8.1-4.5-12.2-6.4a520.5,520.5,0,0,0,9.2-97.4c0-203.1-117.7-378.5-288.1-460.7l-14.6,37.2-54.5-68.2,86.4-13-13.6,34.6C2074.8,1156.3,2196.6,1335.5,2196.6,1543.1Z" transform="translate(-51.3 -41)"/></g><polygon class="cls-37" points="2219.7 1752.4 2219.7 1752.4 2219.7 1752.4 2219.7 1752.4"/><path class="cls-38" d="M1170.4,1533.7l34.3-1.9-39.4,77.9-47.8-73.1,39.6-2.2c3.6-222.7,147.2-411.2,346.7-481.6.3,3.4.7,6.7,1.2,10.1C1312.6,1132.7,1174.3,1316.7,1170.4,1533.7Z" transform="translate(-51.3 -41)"/><path class="cls-39" d="M2185.9,1778.1c-.6-7.7-1.4-13.4-2.7-17.7a21.7,21.7,0,0,0-2.2-5.3c-2.6-4.5-6.6-6.3-12.8-7.4,8.7-12.3,20.3-22.7,34.6-31.3a2.9,2.9,0,0,1,4.1,1.1l.2.3a11.9,11.9,0,0,1,1.1,5.2,11.1,11.1,0,0,1-1.2,4.4c0,.1-.1.2-.1.4h.1l1-.2c2.3-.1,4.2,1.3,5.4,3.8s1.6,6.8.4,11.5h0a14.2,14.2,0,0,1-.5,1.6,6.6,6.6,0,0,1,.9,1.9C2219.4,1759.9,2198.2,1776.9,2185.9,1778.1Z" transform="translate(-51.3 -41)"/><g class="cls-20"><path class="cls-18" d="M2206.3,1719.4a2.9,2.9,0,0,1,1.3-.5l-.5-1.1a3,3,0,0,0-4-1.5l-.3.2c-14.3,8.6-25.9,18.9-34.6,31.3a24.7,24.7,0,0,1,4.7,1.1C2181.5,1737.4,2192.7,1727.6,2206.3,1719.4Z" transform="translate(-51.3 -41)"/></g><path d="M2185.9,1780.2a2.1,2.1,0,0,1-2.2-2c-1.7-22.5-5.1-26.5-15.9-28.3a2.2,2.2,0,0,1-1.8-2.5,3.6,3.6,0,0,1,.4-.9c8.7-12.3,20.6-23,35.2-31.9a5.2,5.2,0,0,1,7.2,1.8l.3.5a13.2,13.2,0,0,1,.9,8.7,7,7,0,0,1,3.4,2c3.3,3.4,4.2,9.8,2.3,16.6,2.2,4.5,2,9.7-.8,15.2-5.6,11.1-19.7,19.9-28.8,20.9Zm-14-33.8c10.6,2.8,14.2,9.8,15.9,29.1,7.8-1.9,18.9-9.5,23.3-18.1,2.2-4.5,2.4-8.5.4-11.9a2.3,2.3,0,0,1-.2-1.8c2-6.3.9-11.2-1-13.1a2.7,2.7,0,0,0-2.8-.8,2.1,2.1,0,0,1-2.7-1.4,2.2,2.2,0,0,1,.1-1.6,8.9,8.9,0,0,0,.2-8.1,1.2,1.2,0,0,0-.5-.5,1.1,1.1,0,0,0-.8.1c-13,7.9-23.8,17.4-31.9,28.1Z" transform="translate(-51.3 -41)"/><path d="M2208.9,1728.3c-1.3,4.9-4.6,8.8-8.2,12.1a85.8,85.8,0,0,1-11.1,8.2,1.2,1.2,0,0,1-1.9-.4,1.4,1.4,0,0,1,.3-1.9,76.6,76.6,0,0,0,10.2-8.5c3-3,5.6-6.5,6.5-10.5a2.2,2.2,0,1,1,4.2,1Z" transform="translate(-51.3 -41)"/><path d="M2215.1,1745.7a47.6,47.6,0,0,1-19.4,14.7,1.3,1.3,0,0,1-1.1-2.3h0a48.7,48.7,0,0,0,9.6-6.4,43.1,43.1,0,0,0,7.4-8.5,2.2,2.2,0,1,1,3.5,2.5Z" transform="translate(-51.3 -41)"/><g class="cls-21"><path class="cls-22" d="M2208.1,1723.1a9.9,9.9,0,0,1-1.1,4.4Z" transform="translate(-51.3 -41)"/></g><g class="cls-21"><path d="M2214.2,1746.3c0,12.5-17.6,26.3-28.5,27.7-.8-7.7-1.7-13.4-3.1-17.6,1.6-.2,11.8-2,15.1-10.1a13.5,13.5,0,0,0,1-5.6,15.7,15.7,0,0,0,7.5-8.9,13.5,13.5,0,0,0,.8-4l1-.2c2.2-.1,4.2,1.3,5.3,3.8a20.2,20.2,0,0,1-.9,8.2,13.6,13.6,0,0,1,1.4,3.3h0A12.7,12.7,0,0,1,2214.2,1746.3Z" transform="translate(-51.3 -41)"/></g><g class="cls-21"><path class="cls-22" d="M2144.5,1789h0Z" transform="translate(-51.3 -41)"/></g><path class="cls-40" d="M2069.3,1791.5c-4.8,12.4-14.1,21-27.7,25.9l-2.7.7-2.3.4-.9.2-1.6.2c-34,4.6-71.1-21.4-65.3-54.2a18.2,18.2,0,0,0,.2-4c-.7-5.4,1.5-11.8,5.4-15a12.1,12.1,0,0,0,1.6-1.6l1.5-1.6a12.9,12.9,0,0,1,6.6-3.3,13.2,13.2,0,0,1,9.7,2.3l3.7,2.4a58.2,58.2,0,0,0,12,5.5c9.4,3.2,14.1,4.8,18.1,5.6l5.4.8a1.9,1.9,0,0,0,1.6.6h1.2l1.8.3a18.3,18.3,0,0,0,3.2.7h1.8l2.4.2h.1C2044.3,1778.5,2054.4,1791.7,2069.3,1791.5Z" transform="translate(-51.3 -41)"/><path d="M2041.6,1816.7c-25.6,4.5-51.4-4.4-65.1-24.9a37.3,37.3,0,0,1-6-24.5l.5-3.6a17.8,17.8,0,0,0,0-4,17,17,0,0,1,.7-6.3,14.6,14.6,0,0,1,3.1-5.3,21.8,21.8,0,0,0,2.2-2.1,11.2,11.2,0,0,1,5.5-4.2,12.1,12.1,0,0,1,10.6,2c15.9,10.1,36.4,18.5,57,15.7a1.3,1.3,0,0,0,.7-.9.6.6,0,0,0-.5-.6c-16.8-1.6-32.9-5.2-47-13.3-2.6-1.4-5.4-3.1-7.8-4.7a14.6,14.6,0,0,0-13.5-2.3,16.2,16.2,0,0,0-7.6,5.5c-.6.7-1.3,1.2-1.9,1.8a20.9,20.9,0,0,0-5.6,15.8,9.2,9.2,0,0,1,.1,1.6,45.7,45.7,0,0,1-.5,5.2c-2.1,20.6,10.8,35.8,25,44.3s32.2,12.6,50.1,6.3c.9-.3.9-1.6,0-1.5Z" transform="translate(-51.3 -41)"/><path d="M1972.6,1745.6c-3.4,13.5,15.2,25.5,24.2,29.3a1.1,1.1,0,0,0,1.1-1.9l-7.3-5.6c-2.3-2-4.7-3.9-6.8-6.1s-6.1-6.6-7.4-11.1a9,9,0,0,1-.2-4.3c.5-2.7-2.8-2.9-3.6-.3Z" transform="translate(-51.3 -41)"/><path d="M1967.2,1761.8a43.4,43.4,0,0,0,29.7,29.9.9.9,0,0,0,1.1-.6.9.9,0,0,0-.3-1.1,67.6,67.6,0,0,1-8.7-5.6,50.9,50.9,0,0,1-13.8-15,52.7,52.7,0,0,1-4.5-9.6c-.8-2.3-4.1-.4-3.5,2Z" transform="translate(-51.3 -41)"/><g class="cls-21"><path d="M1968.9,1760.9a13.5,13.5,0,0,1-.1,4c-5.8,32.8,31.3,58.8,65.3,54.2a7.6,7.6,0,0,0,1.6-.3h.9l2.2-.4h-.6a100.3,100.3,0,0,1-37.4-8.6c-4.5-2-8.9-4.4-11.9-8.5a10.1,10.1,0,0,1-2.3-7.1c.2-2.7,2.3-5.8,4.8-6.3-2.9-2.4-5.9-4.9-7.2-8.7s-.4-9.3,3.1-12.2c-2-2.6-4.1-5.1-5.4-8.4a15.2,15.2,0,0,1,0-10.9c1.4-3.7,5.1-6.8,8.4-6.7a38.8,38.8,0,0,0-6.1-1.5,11.9,11.9,0,0,0-6.6,3.3,8.1,8.1,0,0,0-1.6,1.6,11.4,11.4,0,0,1-1.5,1.6C1970.5,1749,1968.4,1755.4,1968.9,1760.9Z" transform="translate(-51.3 -41)"/></g><ellipse class="cls-41" cx="2053.5" cy="1761.4" rx="92.3" ry="91.6"/><g class="cls-20"><path class="cls-18" d="M2018.5,1772.4c20.4-50,85.7-71.3,132.2-41.9a73.9,73.9,0,0,1,24.7,26.2c5.2,9,10.4,16.5,16.2,22.7.9-1.1,1.9-2.1,2.8-3.3l-.9-2.6a9.7,9.7,0,0,1-.6-3.4,129.8,129.8,0,0,1-14.8-21.1,73.9,73.9,0,0,0-24.7-26.2C2104.6,1691.9,2035.1,1717,2018.5,1772.4Z" transform="translate(-51.3 -41)"/></g><polygon class="cls-18" points="2145.3 1746.4 2146 1771.2 2140.1 1795.3 2124.1 1820.5 2098.3 1842.1 2059.2 1854.1 2028.4 1849.5 2011 1842.8 1987.9 1826 1970.2 1800.6 1961.6 1773.1 1961.8 1749.2 1965.6 1736.1 1990.8 1757.5 2029 1759.2 2047.7 1757.5 2056.7 1755.2 2064.3 1749.8 2068.7 1745.6 2075.4 1743.3 2081.5 1747.2 2089.9 1755.2 2108.4 1756.5 2129.8 1743.1 2143.2 1737 2145.3 1746.4"/><g class="cls-25"><path d="M2014,1825.2c.2.8.5,1.6.7,2.4a49.1,49.1,0,0,0,1.5,5.1,22.5,22.5,0,0,0,.8,2.4c.1.4.3.7.4,1.1l.3.6h0c0,.1.1.2.1.3a68.3,68.3,0,0,0,5.7,9.7l5.9,9.3,3,4.2a1,1,0,0,0,.4.5l.2.3a.1.1,0,0,1-.1-.1l.7.9a16.3,16.3,0,0,0,1.7,2l3.7,3.7.9.8.3.3.4.2,2.4,1.6c6.2,4.1,12.8,7.3,19,11.3l9.6,6.2a51,51,0,0,1,7.8,2.6l3.5,1.6,1.6.7h5.2c4.1,0,8.1.7,12.2.9,2,.1,4,0,6-.1h10.5l1.6-.3a44.6,44.6,0,0,1,5.1-.7l.6-.2a47.9,47.9,0,0,1,6.4-2.1c-.4-1.4-.7-2.8-1-4.2s-.2-.2-.3-.2a41.8,41.8,0,0,1-24.8,4.1h-.1c-2.4-.5-4.8-1.1-7.1-1.8h0l-1.2-.4h-.3C2063.3,1878.6,2034.9,1858.9,2014,1825.2Z" transform="translate(-51.3 -41)"/></g><path class="cls-29" d="M2036,1795.9c12.6,9.2,22.4,19.8,27.9,32.4a1.9,1.9,0,0,0,3.5.1c5-10.6,10.5-19.1,16.6-24.9a13.2,13.2,0,0,1,8.7-3.7h0c3.1-.2,6.3.1,9.5-.4a16.7,16.7,0,0,0,5.4-2,17.7,17.7,0,0,0,9.7-5.7c3.7-4.2,8.7-8.2,13.7-3.6,1.5,1.4,2.4,3.3,3.7,4.9a10.9,10.9,0,0,0,4.4,3.3,10.8,10.8,0,0,1,2.4,1.2c17,10.8,39.2,4.3,52.5-17l-.7-2.8c-1.4-2.6-2.8-5.2-4.1-7.9s-1.6-3.5-2.3-5.3l-.4-.7c-9.5,20-23.3,29.9-41.7,29.7a11.9,11.9,0,0,1-9.4-5.1h0a16.5,16.5,0,0,0-3.9-4c-4.4-3.1-8.8-1.6-12.8,1.5-1.7,1.2-2.9,2.9-4.4,4.4a14.7,14.7,0,0,1-7.5,3.9h-.1a11.6,11.6,0,0,1-12.3-5.2l-5.6-8.1c-7.9,6.1-15.3,7.6-22,0-4.4-2.8-11-3-14.4,1.7-3.6,3-6.9,2.9-9.7-.1Z" transform="translate(-51.3 -41)"/><g class="cls-21"><path d="M2073.8,1803.6a19.9,19.9,0,0,1,0,19.2,5.3,5.3,0,0,1-6.4,3,24.7,24.7,0,0,1-16-9.8c10.6,1.7,17.8-2.6,21.7-12.7" transform="translate(-51.3 -41)"/></g><path class="cls-23" d="M2069.7,1814.7a6,6,0,0,1-4.6,2.4c-5.1.2-9.8-.2-13.6-1.8a16.2,16.2,0,0,1-4.5-2.8,20,20,0,0,1,10-19.6,6.4,6.4,0,0,1,4.5-.8,5.3,5.3,0,0,1,1.2.3C2073.8,1796.6,2074.1,1807.6,2069.7,1814.7Z" transform="translate(-51.3 -41)"/><g class="cls-21"><path d="M2067.3,1813.8a5.6,5.6,0,0,1-4.5,2.5,36.9,36.9,0,0,1-11.3-1,16.2,16.2,0,0,1-4.5-2.8,20,20,0,0,1,10-19.6,6.4,6.4,0,0,1,4.5-.8C2071.4,1796.6,2071.7,1807.1,2067.3,1813.8Z" transform="translate(-51.3 -41)"/></g><path d="M2062.9,1818.8c-7.7,0-13.1-1.7-16.9-5.1a1.7,1.7,0,0,1-.6-1.1,21.5,21.5,0,0,1,10.8-21.1,8.1,8.1,0,0,1,7.1-.6h0c6.3,2.4,8.9,6.6,9.9,9.7a17.4,17.4,0,0,1-2.2,14.9,7.2,7.2,0,0,1-5.8,3.2Zm-14.3-7.1c3.5,2.9,8.8,4.1,16.5,3.8a3.9,3.9,0,0,0,3.2-1.7,14.5,14.5,0,0,0,1.8-12.2c-1.1-3.5-3.9-6.1-8-7.7h0a5.2,5.2,0,0,0-4.2.4,18.3,18.3,0,0,0-9.3,17.4Z" transform="translate(-51.3 -41)"/><path class="cls-23" d="M2047,1812.5c9.7,4.7,18.5-1.7,24-13-5-6.8-10.1-9.6-15.6-5.5S2046.2,1804.1,2047,1812.5Z" transform="translate(-51.3 -41)"/><path d="M2058.9,1792.3a11.6,11.6,0,0,1,6.3,4,4.8,4.8,0,0,1,.7,6c-4.8,7.7-11.5,12-18.9,10.1h0c9.7,4.7,18.5-1.6,24-13C2067.1,1794.2,2063.1,1791.3,2058.9,1792.3Z" transform="translate(-51.3 -41)"/><path d="M2053.4,1815.4a15.9,15.9,0,0,1-6.9-1.7,1.2,1.2,0,0,1-.8-1.1c-.8-7.9,2.1-14.1,8.9-19.7a9,9,0,0,1,7.2-2.1c3.4.5,6.7,3.1,10.3,7.9a1.4,1.4,0,0,1,.1,1.4c-3.6,7.4-8.6,12.6-14,14.4A12.8,12.8,0,0,1,2053.4,1815.4Zm-5.1-3.8a12.2,12.2,0,0,0,9,.4c4.6-1.6,8.8-6,12-12.4-2.8-3.7-5.5-5.8-8-6.1a6.5,6.5,0,0,0-5.1,1.5c-5.9,4.8-8.3,10-7.9,16.6Z" transform="translate(-51.3 -41)"/><g class="cls-32"><path class="cls-18" d="M2049.5,1809.1c0-6,4.5-11.4,9-13.3C2055.3,1800.1,2054.4,1805.6,2049.5,1809.1Z" transform="translate(-51.3 -41)"/></g><ellipse cx="2047.3" cy="1738.6" rx="14.9" ry="18.2"/><ellipse class="cls-18" cx="2041.6" cy="1735.5" rx="4.6" ry="6.9"/><g class="cls-31"><ellipse class="cls-18" cx="2104.2" cy="1787.2" rx="5.3" ry="3.5" transform="translate(-285.1 3214.4) rotate(-72.5)"/></g><ellipse cx="1981.1" cy="1738.6" rx="14.9" ry="18.2"/><ellipse class="cls-18" cx="1986.9" cy="1735.5" rx="4.6" ry="6.9"/><g class="cls-31"><ellipse class="cls-18" cx="2026.8" cy="1787.2" rx="3.5" ry="5.3" transform="translate(-495.5 652.5) rotate(-17.5)"/></g><ellipse class="cls-42" cx="2053.5" cy="1761.4" rx="92.3" ry="91.6"/><path class="cls-43" d="M2144.5,1799.2c-2.9,13,1.3,25.2,12.5,36.5l2.5,2,2.1,1.6.9.6,1.5,1.1c33.2,21.7,89.6,19,104.9-12a12.1,12.1,0,0,1,2.4-3.5c4.2-4.2,6.1-10.8,4-15.6a9,9,0,0,1-.6-2.2,7.9,7.9,0,0,0-.6-2.2,12.1,12.1,0,0,0-4.9-6.3,18.5,18.5,0,0,0-11.7-3.1h-5.6a84,84,0,0,1-16.3-1.7c-12.1-2.2-18.2-3.2-22.9-4.7l-6.3-2.2a2.7,2.7,0,0,1-2.1-.3l-.6-.3h-.7l-2.1-.7a28.5,28.5,0,0,1-3.9-1.1l-.8-.3a.1.1,0,0,1-.1-.1l-1-.4-2.6-1.1h-.2C2179.7,1801,2160.3,1807,2144.5,1799.2Z" transform="translate(-51.3 -41)"/><path d="M2157.6,1835c24.2,17.3,57.4,23.2,85.6,12.9a47.2,47.2,0,0,0,18.2-11.9,40.9,40.9,0,0,0,4.2-5.8l1.8-3.4a28.8,28.8,0,0,1,2.7-3.4,13.4,13.4,0,0,0,3.2-5.7,10.2,10.2,0,0,0,.2-6.2,14,14,0,0,1-.9-2.9,11.1,11.1,0,0,0-3.1-6.4c-3.3-3.1-8.1-4.1-12.6-3.9-23.5.3-50.8-3.3-70.8-16.5a.7.7,0,0,1-.3-1,.8.8,0,0,1,.9-.3c19,7.3,38.4,12.7,58.8,13.2a106.3,106.3,0,0,0,11.3.1c5.6-.3,11.6,1.1,15.8,5.1a14.3,14.3,0,0,1,4.4,8.7c.2.9.7,1.7.9,2.6,1.7,5.9-.5,11.9-4.4,16.3l-1.2,1.3a35.9,35.9,0,0,0-2.7,4.7c-11.3,18.7-35,24.8-55.6,24.7s-42.4-6.2-57.5-20.9a.9.9,0,0,1,1.1-1.3Z" transform="translate(-51.3 -41)"/><path d="M2277.3,1810.6c-5.2,13.3-32.8,13.8-44.8,12.2a1.1,1.1,0,0,1,.1-2.1l11.4-1.1c3.8-.4,7.6-.8,11.3-1.5,5.3-1.1,10.7-2.4,15.1-5.6a8.8,8.8,0,0,0,3-3.6,2.1,2.1,0,0,1,3.9,1.7Z" transform="translate(-51.3 -41)"/><path d="M2272.6,1827.2c-14.5,10.7-33.8,13.7-51.2,10a1,1,0,0,1,.3-2,109,109,0,0,0,12.8-.2,70.7,70.7,0,0,0,35.6-11.4,2.2,2.2,0,0,1,2.5,3.6Z" transform="translate(-51.3 -41)"/><g class="cls-21"><path d="M2271.3,1825.5a12.1,12.1,0,0,0-2.4,3.5c-15.2,31-71.7,33.6-104.9,11.9l-1.5-1-.9-.6-2.1-1.6.7.2a146.7,146.7,0,0,0,45.3,12.4c6.1.6,12.4.8,18.3-1,2.8-.9,5.6-2.4,7.1-4.9s1.4-6.1-1-7.9c4.7-.5,9.5-1.1,13.4-3.7s6.5-7.7,4.6-11.9c3.9-1.1,7.8-2.2,11.2-4.3s6.4-5.3,7.2-9.3-.9-8.5-4.6-10.1a63.3,63.3,0,0,1,7.5,1.9,12.1,12.1,0,0,1,4.9,6.3,9,9,0,0,1,.6,2.2,7.9,7.9,0,0,0,.6,2.2C2277.4,1814.6,2275.5,1821.2,2271.3,1825.5Z" transform="translate(-51.3 -41)"/></g><path class="cls-23" d="M2050.7,1891.9a2.1,2.1,0,0,0,.2,2.5l4.1,4a5.9,5.9,0,0,1,1.3,7,5,5,0,0,1-2.1,2.2,4.1,4.1,0,0,1-1.9.5,6.2,6.2,0,0,1-5.5-2.7,27.3,27.3,0,0,0-4.6-5.2,3.9,3.9,0,0,0-1.6-1c-12-3.9-23.3-6.1-30.4-10.4a3.8,3.8,0,0,1-1.6-1.5,4.4,4.4,0,0,1,1.3-6.4l1.6-.7h1.9a8.6,8.6,0,0,1-.6-2.3,5.2,5.2,0,0,1,4.1-5.4,5.8,5.8,0,0,1,4.9,1.2l15.2,12.7a4.8,4.8,0,0,0,3.4,1.1h.3a3.1,3.1,0,0,0,2.5-1.3l3.8-4.3,1.9-2.3h.1l1.2-1.4a30.7,30.7,0,0,0,8.9,4.3h.1l-.6.5A59.6,59.6,0,0,0,2050.7,1891.9Z" transform="translate(-51.3 -41)"/><g class="cls-20"><path class="cls-18" d="M2016.2,1874.8a6.2,6.2,0,0,1,5.2,1.3l16.2,13.3a4.7,4.7,0,0,0,3.6,1h.3a4,4,0,0,0,2.6-1.4l4-4.6,2.1-2.3h0l1.6-2.1a21.1,21.1,0,0,0,3,1.6l3.5,1.5.3-.4.6-.5h0a31.6,31.6,0,0,1-9-4.2l-1.2,1.4h0l-2,2.3-3.7,4.4a4.4,4.4,0,0,1-2.5,1.3h-.4a4.4,4.4,0,0,1-3.3-1l-15.3-12.7a5.6,5.6,0,0,0-4.9-1.3,5.1,5.1,0,0,0-4,4.6A5.6,5.6,0,0,1,2016.2,1874.8Z" transform="translate(-51.3 -41)"/></g><path d="M2051.9,1909.7a7.8,7.8,0,0,1-6.2-3.4,28.2,28.2,0,0,0-4.4-5,3.9,3.9,0,0,0-1.1-.6c-3.8-1.3-7.6-2.4-11.2-3.4-7.8-2.2-14.5-4.1-19.5-7.1a6.7,6.7,0,0,1-2.1-2,6.2,6.2,0,0,1-.3-6.4,5.9,5.9,0,0,1,4.4-3.1,7.6,7.6,0,0,1,.6-4.2,6.6,6.6,0,0,1,4.5-3.6,7.2,7.2,0,0,1,6.1,1.5l15.2,12.7a2.8,2.8,0,0,0,2.4.7h.3a3,3,0,0,0,1.6-.8l6.9-8.1a1.3,1.3,0,0,1,1.9-.2,30.2,30.2,0,0,0,8.6,4,1.6,1.6,0,0,1,.9,1.9c-.1.2-.2.5-.4.6a54.7,54.7,0,0,0-8.2,9.6c-.1.2-.1.3.1.5l4.1,4a7.5,7.5,0,0,1,1.5,8.8,6.1,6.1,0,0,1-5.1,3.5Zm-39-28a3.5,3.5,0,0,0-3.3,1.6,3.3,3.3,0,0,0,.2,3.2,4,4,0,0,0,1.2,1c4.6,2.9,11.2,4.7,18.8,6.9,3.7,1.1,7.4,2.1,11.3,3.4a8.8,8.8,0,0,1,2.1,1.2,30.8,30.8,0,0,1,4.9,5.5,4.4,4.4,0,0,0,4.2,2.1,3.1,3.1,0,0,0,2.8-1.9,4.4,4.4,0,0,0-.9-5.2l-4.1-4a3.6,3.6,0,0,1-.5-4.5,57.6,57.6,0,0,1,6.8-8.2,27.9,27.9,0,0,1-6-3l-6.1,7.2a5.4,5.4,0,0,1-3.4,1.8h-.3a5.5,5.5,0,0,1-4.4-1.4l-15.2-12.6a4.2,4.2,0,0,0-3.8-1,3.7,3.7,0,0,0-2.5,2,4.1,4.1,0,0,0,.1,3.6,1.7,1.7,0,0,1-.7,2.1h-1.2Z" transform="translate(-51.3 -41)"/><path d="M2014.5,1879.1a28.3,28.3,0,0,0,6.5,5.4,67.9,67.9,0,0,0,7.4,4.3c.7.4.3,1.5-.4,1.2-5.5-2.2-11.1-4.7-15.6-8.9a1.5,1.5,0,1,1,2.1-2Z" transform="translate(-51.3 -41)"/><g class="cls-24"><path d="M2050.7,1891.9a2,2,0,0,0,.3,2.5l4.1,3.9a6.2,6.2,0,0,1,1.2,7.1,4.1,4.1,0,0,1-2,2.1,6.2,6.2,0,0,1-5.4-2.9,29.7,29.7,0,0,0-4.7-5.6,3.4,3.4,0,0,0-1.6-1c-12-4.3-23.3-6.6-30.4-11.3a4.4,4.4,0,0,1-1.7-1.6,5.1,5.1,0,0,1-.6-4.3,4.4,4.4,0,0,1,1.6-.6,4.1,4.1,0,0,1,1.9-.1,11.2,11.2,0,0,1-.6-2.3l.6-.2a15.2,15.2,0,0,1,5.1,3.1,74.7,74.7,0,0,0,18.5,10.8c1.8.8,3.7,1.5,5.6,1.1a8.4,8.4,0,0,0,4.8-2.9,42.6,42.6,0,0,0,3.2-5,7.1,7.1,0,0,0,1-3.1c-.1-1.1-1-2.2-2-1.8l-.7-.5h0l1.3-1.5a29.5,29.5,0,0,0,8.9,4.3l-.5.5A65.2,65.2,0,0,0,2050.7,1891.9Z" transform="translate(-51.3 -41)"/></g><path class="cls-18" d="M2040,1857.2c-2.9,22.6,25.4,36.2,42.4,19C2079.7,1860,2052.8,1849.1,2040,1857.2Z" transform="translate(-51.3 -41)"/><g class="cls-25"><path d="M2080.9,1872.4c-15.9,13.5-39.7,2.9-40.8-16.1-3.8,23.1,25.1,37.4,42.3,19.9a16.6,16.6,0,0,0-1.1-3.8c-.1-.1-.2-.2-.4-.1Z" transform="translate(-51.3 -41)"/></g><path d="M2040.4,1857.3c.5,2.5.6,5,1.2,7.5a19.8,19.8,0,0,0,3,6.6c6.8,10.1,20.6,13.3,31.1,8.2,2.3-1,4.1-2.8,6.5-3.7.3-.2.7.3.5.6a9.9,9.9,0,0,1-2.5,3.2,24.3,24.3,0,0,1-3.2,2.4c-13.9,9.3-35.2,1.1-38-16.7a29.7,29.7,0,0,1-.3-4.2,13.7,13.7,0,0,1,.9-4,.4.4,0,0,1,.6-.3.5.5,0,0,1,.2.4Z" transform="translate(-51.3 -41)"/><path class="cls-18" d="M2099.6,1868.2c1.6,22.8,32,29.9,45.2,9.3C2139,1862.3,2110.5,1857.6,2099.6,1868.2Z" transform="translate(-51.3 -41)"/><g class="cls-25"><path d="M2142.6,1874.1c-12.9,16.7-38.2,11.5-43-6.8.7,23.5,31.8,31.2,45.2,10.3a14.5,14.5,0,0,0-1.8-3.5Z" transform="translate(-51.3 -41)"/></g><path d="M2100.1,1868.2c.9,2.4,1.4,4.9,2.6,7.1a22.1,22.1,0,0,0,4.2,5.8c8.7,8.4,22.8,8.5,32.1,1.2,2-1.5,3.5-3.6,5.6-5a.4.4,0,0,1,.6.5,9.8,9.8,0,0,1-1.8,3.7,19.3,19.3,0,0,1-2.7,3c-11.8,12.2-34.2,8.8-40.5-8a30.6,30.6,0,0,1-1-4.1,14.1,14.1,0,0,1,0-4.1.5.5,0,0,1,.5-.4l.4.3Z" transform="translate(-51.3 -41)"/><path class="cls-23" d="M2105.3,1898.1a2.1,2.1,0,0,0,.1,2.7l4,4.8a6.5,6.5,0,0,1,.7,7.7,5.3,5.3,0,0,1-2.5,2.2,5.4,5.4,0,0,1-2.2.4,6.8,6.8,0,0,1-5.6-3.6,30.3,30.3,0,0,0-4.5-6.2,6.6,6.6,0,0,0-1.7-1.2c-12.6-5.6-24.6-9.2-31.9-14.7a6.9,6.9,0,0,1-1.6-1.8,5,5,0,0,1,2.1-6.9l1.8-.5h2.1a7.3,7.3,0,0,1-.4-2.5,5.6,5.6,0,0,1,4.9-5.5,6.4,6.4,0,0,1,5.2,1.9l15.3,15.5a4.7,4.7,0,0,0,3.5,1.5h.3a3.9,3.9,0,0,0,2.8-1.1l4.6-4.4,2.3-2.2h0l1.5-1.5a32.5,32.5,0,0,0,9.3,5.6h0l-.6.5A75.5,75.5,0,0,0,2105.3,1898.1Z" transform="translate(-51.3 -41)"/><g class="cls-20"><path class="cls-18" d="M2069.5,1875.7a6.5,6.5,0,0,1,5.5,2l16.3,16.2a5.5,5.5,0,0,0,3.8,1.6h.3a4.5,4.5,0,0,0,3-1.2l4.8-4.6,2.5-2.3h.1l1.9-2.1,3,2,3.6,2.1.5-.4.6-.5h-.1a31,31,0,0,1-9.2-5.6l-1.5,1.5h0l-2.4,2.2-4.5,4.4a4.1,4.1,0,0,1-2.8,1.1h-.3a5.1,5.1,0,0,1-3.6-1.5l-15.3-15.5a6.1,6.1,0,0,0-5.1-1.9,5.4,5.4,0,0,0-4.8,4.5A6.6,6.6,0,0,1,2069.5,1875.7Z" transform="translate(-51.3 -41)"/></g><path d="M2105.6,1917.6h-.2a8.6,8.6,0,0,1-7-4.4,27.5,27.5,0,0,0-4.3-5.9,2.8,2.8,0,0,0-1.1-.8c-4-1.8-8-3.4-11.8-4.9-8.2-3.3-15.3-6.1-20.4-10a7.9,7.9,0,0,1-2.1-2.4,6.6,6.6,0,0,1,.3-6.9,6.7,6.7,0,0,1,5.1-2.9,7.6,7.6,0,0,1,1.1-4.4,7.1,7.1,0,0,1,5.2-3.5,7.9,7.9,0,0,1,6.5,2.4l15.2,15.5a3.9,3.9,0,0,0,2.5,1h.4a2.6,2.6,0,0,0,1.7-.7l8.4-8a1.4,1.4,0,0,1,2.1,0,31.2,31.2,0,0,0,8.8,5.3,1.7,1.7,0,0,1,.4,2.9,56.7,56.7,0,0,0-9.9,9.4.5.5,0,0,0,0,.5l4.1,4.8a8.6,8.6,0,0,1,.8,9.8A6.6,6.6,0,0,1,2105.6,1917.6Zm-41-34.9a3.6,3.6,0,0,0-3.1,1.5,3.4,3.4,0,0,0-.1,3.5,3.6,3.6,0,0,0,1.2,1.3c4.8,3.6,11.7,6.3,19.7,9.5l11.9,5a5.4,5.4,0,0,1,2.1,1.6,33.4,33.4,0,0,1,4.8,6.4,5.1,5.1,0,0,0,4.3,2.8,3.6,3.6,0,0,0,3.4-1.8,4.8,4.8,0,0,0-.5-5.7l-4.1-4.8a3.9,3.9,0,0,1-.1-4.9,58.7,58.7,0,0,1,8.3-8.2,27.6,27.6,0,0,1-6.2-3.9l-7.3,7.1a5.9,5.9,0,0,1-3.9,1.6h-.3a6.5,6.5,0,0,1-4.7-2l-15.2-15.4a4.7,4.7,0,0,0-4-1.5,4.1,4.1,0,0,0-3,1.9,4.8,4.8,0,0,0-.2,3.9,1.8,1.8,0,0,1-1,2.1h-2Z" transform="translate(-51.3 -41)"/><path d="M2067.3,1880.2a33.9,33.9,0,0,0,6.5,6.6,82.6,82.6,0,0,0,7.6,5.6.7.7,0,1,1-.6,1.2c-5.7-3-11.5-6.3-15.9-11.4C2063.5,1880.4,2065.9,1878.3,2067.3,1880.2Z" transform="translate(-51.3 -41)"/><g class="cls-24"><path d="M2105.3,1898.1a2,2,0,0,0,0,2.7l4,4.8a6.6,6.6,0,0,1,.7,7.8,5.1,5.1,0,0,1-2.5,2.1,6.9,6.9,0,0,1-5.5-3.8,28.7,28.7,0,0,0-4.5-6.6,4.8,4.8,0,0,0-1.6-1.2c-12.6-6-24.6-9.8-31.9-15.6a6.2,6.2,0,0,1-1.6-2,5.8,5.8,0,0,1-.2-4.8,4.7,4.7,0,0,1,1.7-.4,5,5,0,0,1,2.1.1,7.5,7.5,0,0,1-.4-2.6h.6a19.2,19.2,0,0,1,5.2,3.9,85.9,85.9,0,0,0,19,13.9,12,12,0,0,0,6,1.8,9.4,9.4,0,0,0,5.5-2.6,40.9,40.9,0,0,0,4-5.1,6.8,6.8,0,0,0,1.3-3.3c.1-1.1-.8-2.4-1.9-2.2l-.7-.6h0l1.5-1.4a34.9,34.9,0,0,0,9.3,5.6l-.6.5A75.5,75.5,0,0,0,2105.3,1898.1Z" transform="translate(-51.3 -41)"/></g><line class="cls-44" x1="205.2" y1="1499.4" x2="205.9" y2="1499.4"/><line class="cls-45" x1="233.4" y1="1499.4" x2="652.6" y2="1499.3"/><line class="cls-46" x1="666.3" y1="1499.3" x2="667" y2="1499.3"/><path class="cls-47" d="M92.2,1510.8h-26l-2.6,17.4a39.4,39.4,0,0,1,5.6-.4,28.8,28.8,0,0,1,14.6,3.7c5.3,3,9.7,8.8,9.7,17.4,0,13.3-10.5,23.2-25.3,23.2-7.4,0-13.7-2.1-16.9-4.2l2.3-7a30.1,30.1,0,0,0,14.5,3.8c8.7,0,16.1-5.6,16.1-14.7s-5.9-15.1-19.5-15.1a72.7,72.7,0,0,0-9.4.7l4.4-32.6H92.2Z" transform="translate(-51.3 -41)"/><path class="cls-48" d="M150.4,1536.3c0,23.1-8.6,35.8-23.6,35.8-13.3,0-22.3-12.4-22.5-34.9s9.8-35.3,23.6-35.3S150.4,1514.6,150.4,1536.3Zm-36.9,1c0,17.7,5.4,27.7,13.8,27.7s13.9-11,13.9-28.3-4.3-27.7-13.8-27.7S113.5,1518.8,113.5,1537.3Z" transform="translate(-51.3 -41)"/><path class="cls-49" d="M189.5,1522.2c0,14.3-7.6,21.4-16.3,21.4s-15.8-6.8-15.9-20.5,7.4-21.2,16.4-21.2S189.5,1509.2,189.5,1522.2Zm-24.9.6c-.2,8.7,3,15.2,8.8,15.2s8.7-6.4,8.7-15.4-2.4-15.2-8.7-15.2S164.6,1514.2,164.6,1522.8Zm7.9,49.3,40-70.2h5.8l-39.9,70.2Zm61.2-21.8c0,14.3-7.6,21.4-16.2,21.4s-15.8-6.8-15.9-20.4S209,1530,218,1530,233.7,1537.3,233.7,1550.3Zm-24.9.6c-.1,8.7,3.2,15.3,8.9,15.3s8.8-6.5,8.8-15.5-2.4-15.2-8.8-15.2S208.8,1542.3,208.8,1550.9Z" transform="translate(-51.3 -41)"/><path class="cls-50" d="M1809.4,610.3c0-.2.1-.5.1-.7" transform="translate(-51.3 -41)"/><path class="cls-51" d="M1814.4,582.6q40-220.2,80-440.4" transform="translate(-51.3 -41)"/><path class="cls-52" d="M1896.9,128.7c0-.2.1-.5.1-.7" transform="translate(-51.3 -41)"/><path class="cls-53" d="M1887.7,49.9h-25.9l-2.6,17.4a37.8,37.8,0,0,1,5.5-.4,28.9,28.9,0,0,1,14.7,3.7c5.3,3,9.7,8.9,9.7,17.4,0,13.3-10.6,23.2-25.3,23.2-7.4,0-13.7-2.1-16.9-4.1l2.3-7a31,31,0,0,0,14.5,3.7c8.7,0,16.1-5.6,16.1-14.7s-6-15.1-19.6-15.1a57.8,57.8,0,0,0-9.4.8l4.4-32.7h32.5Z" transform="translate(-51.3 -41)"/><path class="cls-54" d="M1931.4,61.3c0,14.3-7.5,21.4-16.3,21.4s-15.8-6.8-15.9-20.5,7.4-21.2,16.4-21.2S1931.4,48.3,1931.4,61.3Zm-24.9.6c-.2,8.7,3.1,15.3,8.8,15.3s8.8-6.5,8.8-15.5-2.4-15.2-8.8-15.2S1906.5,53.3,1906.5,61.9Zm8,49.3L1954.4,41h5.9l-40,70.2Zm61.1-21.8c0,14.3-7.5,21.4-16.2,21.4s-15.8-6.8-15.9-20.4,7.5-21.3,16.4-21.3S1975.6,76.4,1975.6,89.4Zm-24.9.6c-.1,8.7,3.3,15.3,8.9,15.3s8.8-6.5,8.8-15.5-2.4-15.1-8.8-15.1S1950.7,81.4,1950.7,90Z" transform="translate(-51.3 -41)"/><line class="cls-55" x1="2370.9" y1="938.9" x2="2371.4" y2="938.5"/><line class="cls-56" x1="2392.1" y1="920.8" x2="2729" y2="633.2"/><line class="cls-57" x1="2739.3" y1="624.4" x2="2739.9" y2="623.9"/><path class="cls-58" d="M2795.5,571.4h-.2l-11.8,6.4-1.8-7,14.9-8h7.8v68h-8.9Z" transform="translate(-51.3 -41)"/><path class="cls-59" d="M2874.3,596.1c0,23.1-8.6,35.8-23.6,35.8-13.3,0-22.3-12.4-22.5-34.9s9.8-35.3,23.6-35.3S2874.3,574.4,2874.3,596.1Zm-36.9,1c0,17.7,5.5,27.7,13.8,27.7s13.9-11,13.9-28.3-4.3-27.7-13.8-27.7C2843.3,568.8,2837.4,578.6,2837.4,597.1Z" transform="translate(-51.3 -41)"/><path class="cls-60" d="M2913.4,581.9c0,14.4-7.5,21.5-16.3,21.5s-15.8-6.8-15.9-20.5,7.4-21.2,16.4-21.2S2913.4,569,2913.4,581.9Zm-24.9.7c-.2,8.6,3.1,15.2,8.8,15.2s8.8-6.4,8.8-15.4-2.4-15.2-8.8-15.2S2888.5,574,2888.5,582.6Zm8,49.3,39.9-70.2h5.8l-39.9,70.2Zm61.1-21.8c0,14.3-7.5,21.4-16.2,21.4s-15.8-6.8-15.9-20.4,7.4-21.3,16.4-21.3S2957.6,597.1,2957.6,610.1Zm-24.9.6c-.1,8.7,3.3,15.2,8.9,15.2s8.8-6.4,8.8-15.4-2.4-15.2-8.8-15.2S2932.7,602.1,2932.7,610.7Z" transform="translate(-51.3 -41)"/><path class="cls-61" d="M2395.5,2743.5h-.2l-11.8,6.4-1.8-7,14.8-8h7.9v68h-8.9Z" transform="translate(-51.3 -41)"/><path class="cls-62" d="M2469.7,2742.6h-25.9l-2.7,17.5a39.4,39.4,0,0,1,5.6-.4,28.8,28.8,0,0,1,14.6,3.6,19.5,19.5,0,0,1,9.7,17.5c0,13.3-10.5,23.2-25.3,23.2-7.4,0-13.6-2.1-16.9-4.2l2.3-7a30.1,30.1,0,0,0,14.5,3.8c8.7,0,16.1-5.7,16.1-14.8s-5.9-15-19.5-15a72.7,72.7,0,0,0-9.4.7l4.4-32.6h32.5Z" transform="translate(-51.3 -41)"/><path class="cls-63" d="M2513.4,2754c0,14.4-7.6,21.5-16.3,21.5s-15.8-6.8-15.9-20.5,7.4-21.2,16.4-21.2S2513.4,2741.1,2513.4,2754Zm-24.9.7c-.2,8.6,3,15.2,8.8,15.2s8.7-6.5,8.7-15.4-2.4-15.2-8.7-15.2S2488.5,2746.1,2488.5,2754.7Zm7.9,49.3,40-70.2h5.8l-39.9,70.2Zm61.2-21.8c0,14.3-7.6,21.4-16.2,21.4s-15.8-6.8-15.9-20.4,7.4-21.3,16.4-21.3S2557.6,2769.2,2557.6,2782.2Zm-24.9.6c-.1,8.7,3.2,15.2,8.9,15.2s8.8-6.4,8.8-15.4-2.4-15.2-8.8-15.2S2532.7,2774.2,2532.7,2782.8Z" transform="translate(-51.3 -41)"/><line class="cls-64" x1="2039.9" y1="660.9" x2="2040.2" y2="660.3"/><line class="cls-65" x1="2053.5" y1="636.2" x2="2269.1" y2="243.6"/><line class="cls-66" x1="2275.7" y1="231.5" x2="2276" y2="230.9"/><path class="cls-67" d="M2336.1,185h-25.9l-2.7,17.4a39.4,39.4,0,0,1,5.6-.4,28.8,28.8,0,0,1,14.6,3.7c5.3,3,9.7,8.9,9.7,17.4,0,13.3-10.5,23.2-25.3,23.2-7.4,0-13.7-2.1-16.9-4.1l2.3-7.1a30.1,30.1,0,0,0,14.5,3.8c8.7,0,16.1-5.6,16.1-14.7s-5.9-15.1-19.5-15.1a56.8,56.8,0,0,0-9.4.8l4.4-32.7h32.5Z" transform="translate(-51.3 -41)"/><path class="cls-68" d="M2379.8,196.4c0,14.3-7.6,21.4-16.3,21.4s-15.8-6.8-15.9-20.5,7.4-21.2,16.4-21.2S2379.8,183.4,2379.8,196.4Zm-24.9.6c-.2,8.7,3,15.3,8.8,15.3s8.7-6.5,8.7-15.5-2.4-15.2-8.7-15.2S2354.9,188.4,2354.9,197Zm7.9,49.3,40-70.2h5.8l-39.9,70.2Zm61.2-21.8c0,14.3-7.6,21.4-16.2,21.4s-15.8-6.8-15.9-20.4,7.4-21.3,16.4-21.3S2424,211.5,2424,224.5Zm-24.9.6c-.1,8.7,3.2,15.3,8.9,15.3s8.8-6.5,8.8-15.5-2.4-15.1-8.8-15.1S2399.1,216.5,2399.1,225.1Z" transform="translate(-51.3 -41)"/></g><g id="Capa_7" data-name="Capa 7"><path class="cls-69" d="M1660,2294c-418.1,0-757-338.9-757-757s338.9-757,757-757h14v-168h-14c-510.9,0-925,414.1-925,925s414.1,925,925,925h14v-168Z" transform="translate(-51.3 -41)"/><path class="cls-70" d="M1674,612.1v168c411.6,7.5,743,343.5,743,756.9s-331.4,749.4-743,756.9v168c504.4-7.5,911-418.7,911-924.9S2178.4,619.6,1674,612.1Z" transform="translate(-51.3 -41)"/><path class="cls-71" d="M2380.7,1304.9l159.6-52.7c-65.1-201.5-197.6-372.8-370.8-487.3L2069.4,900.1C2215.1,994,2326.6,1136.6,2380.7,1304.9Z" transform="translate(-51.3 -41)"/><path class="cls-72" d="M1674,780.1v-168c198.5,3,381.8,68.4,531.1,177.5l-97.2,137.1A754,754,0,0,0,1674,780.1Z" transform="translate(-51.3 -41)"/><path class="cls-73" d="M2205.1,789.6a924.7,924.7,0,0,0-257.6-132l-49.9,160.5a753.6,753.6,0,0,1,210.3,108.6Z" transform="translate(-51.3 -41)"/><path class="cls-74" d="M2585,1537a922,922,0,0,0-51.7-305.5l-159.5,52.9a758.4,758.4,0,0,1-95.7,689.8l136.3,98.2C2521.8,1921.3,2585,1736.5,2585,1537Z" transform="translate(-51.3 -41)"/></g></svg>