<?xml version="1.0" encoding="utf-8"?>
<!-- Generator: Adobe Illustrator 25.4.1, SVG Export Plug-In . SVG Version: 6.00 Build 0)  -->
<svg version="1.1" id="Capa_1" xmlns="http://www.w3.org/2000/svg" xmlns:xlink="http://www.w3.org/1999/xlink" x="0px" y="0px"
	 viewBox="0 0 1000 1000" style="enable-background:new 0 0 1000 1000;" xml:space="preserve">
<style type="text/css">
	.st0{fill:url(#SVGID_1_);stroke:#000000;stroke-width:22.3923;stroke-miterlimit:10;}
	.st1{opacity:0.3;}
	.st2{fill:#000072;}
	.st3{fill:#FFFFFF;}
	.st4{opacity:0.2;}
	.st5{opacity:0.6;}
	.st6{fill:#A10056;}
	.st7{fill:#FFB839;}
	.st8{opacity:0.7;}
	.st9{opacity:0.35;}
	.st10{fill:none;stroke:#000000;stroke-width:22.3923;stroke-miterlimit:10;}
</style>
<g>
	<g>
		<linearGradient id="SVGID_1_" gradientUnits="userSpaceOnUse" x1="16.2767" y1="499.4911" x2="986.2767" y2="499.4911">
			<stop  offset="0" style="stop-color:#E6007A"/>
			<stop  offset="0.3" style="stop-color:#E30078"/>
			<stop  offset="0.52" style="stop-color:#DA0074"/>
			<stop  offset="0.71" style="stop-color:#CA006B"/>
			<stop  offset="0.89" style="stop-color:#B3005F"/>
			<stop  offset="1" style="stop-color:#A10056"/>
		</linearGradient>
		<circle class="st0" cx="501.3" cy="499.5" r="485"/>
		<g>
			<g class="st1">
				<path class="st2" d="M296.9,428.8l-5.1-0.2C293.5,428.4,295.2,428.5,296.9,428.8z"/>
			</g>
		</g>
		<polygon class="st3" points="28.1,370.5 98.9,402.6 211.8,473.5 309.2,466.8 353.5,424.8 385.6,403.8 421,415.9 444.3,438.1 
			484.1,466.8 531.7,479 630.2,487.9 831.7,479 964.5,366.1 984.4,434.7 985.5,560.9 940.1,705.9 847.2,839.8 725.4,928.4 
			633.5,963.8 470.8,988.2 265,925.1 128.8,811.1 44.7,678.2 13.7,551 17,420.4 		"/>
		<g class="st4">
			<path d="M540.7,950.4c-0.3,0.1-0.5,0.1-0.8,0c-0.3-0.1-0.6-0.1-0.9,0c-2,0.8-4.1,1.4-6.2,2.1c0,0-0.1,0-0.1,0
				c-12.5,3.3-25.1,6.4-37.9,9.2c0,0-0.1,0-0.1,0c-41.4,6-86.4,11.8-124.4-5.7c-2.7-1.3-11.3-0.1-13.3,7.1
				c11.5,2.7,22.5,6.8,33.6,11.2c1.1,0.4,2.2,0.9,3.3,1.3c9,0.4,18,2.1,26.8,3.6c2.8,0.5,5.7,1,8.5,1.4c0.5,0.1,0.9,0.1,1.4,0.2
				c0.2,0,0.4,0,0.6,0.1c1.2,0.1,2.4,0.3,3.5,0.4c5.5,0.5,11,0.3,16.5,0.3c11,0,22.1,0.1,33.1,0.4c10.6,0.3,21.2,0.9,31.8,0.3
				c21.5-1.2,42.8-4.9,64.4-4.9c8.6,0,17.3,0.2,25.9,0.2c0.5-0.2,1-0.4,1.5-0.7c2.8-1.2,5.7-2.5,8.5-3.8c6.1-2.8,12.2-5.5,18.3-8.1
				c13.3-5.7,27-10.1,40.9-13.8c16.9-10.8,33.7-21.6,50.5-32.5c32.7-21.2,67.9-38.3,100.5-59.7c4.2-2.8,8.4-5.6,12.5-8.6
				c0.7-0.5,1.3-0.9,1.9-1.4c0.2-0.2,1.7-1.3,1.9-1.5c1.6-1.3,3.1-2.6,4.6-3.9c6.9-6,13.3-12.5,19.4-19.4c3.1-3.5,6.2-7.1,9.2-10.8
				c1.2-1.5,2.5-3,3.7-4.6c-0.3,0.4-0.4,0.6-0.6,0.8c0.4-0.5,0.9-1.3,1.1-1.5c0.7-0.9,1.4-1.9,2.1-2.8c5.4-7.3,10.6-14.8,15.6-22.4
				c10.8-16.1,20.8-32.7,31.3-49c10.7-16.5,21.7-33.1,29.7-51.1c0.2-0.5,0.4-1,0.7-1.5c0.1-0.1,0.1-0.3,0.2-0.4
				c0.4-1.1,0.9-2.2,1.4-3.4c0.7-1.9,1.5-3.8,2.2-5.7c1.6-4.2,3-8.4,4.4-12.7c2.9-8.9,5.6-18,8.1-27c1.2-4.2,2.3-8.4,3.5-12.6
				C869.4,797.2,719.6,901.1,540.7,950.4z"/>
		</g>
		<g class="st5">
			<path class="st3" d="M244.3,82.2c-54.5,34.5-98.7,82.7-130.5,138.5c-24.9,43.6-50.3,80.2-77.5,111c-0.2,6-1.3,11.9-3.2,17.9
				c-1.5,4.7-3.3,9.3-4.8,14c4.9,5.8,9.8,11.5,14.8,17c30-32.5,57.9-71.7,85-119.3c31.8-55.8,76-104,130.5-138.5
				C503.5-32,847.8,80.4,955.2,343.9C868.2,51.7,501.4-80.3,244.3,82.2z"/>
		</g>
		<path class="st6" d="M828.3,394.8c-14.4,16.1-32,16.5-50.9,0.5c-17.7-24.6-52.8-23.7-75.8-8.8c-35.2,40-74.6,31.7-116.1,0
			l-29.3,42.8c-14.9,21.8-40.4,32.8-65.2,27.1l-0.5-0.1c-14.6-3.4-28.6-9.9-39.6-20.9c-7.8-7.8-14.1-16.5-23-23.3
			c-21.3-16.3-44.2-24.1-67.7-7.7c-7.9,5.6-14.9,12.6-20.5,20.7l-0.2,0.3c-11.7,16.5-30,26.4-49.5,26.6
			c-96.5,1.2-169.8-51-219.9-156.5c-0.6,1.3-1.2,2.5-1.8,3.7c-3.8,9.4-7.9,18.6-12.3,27.8c-6.7,14.1-14.3,27.9-21.4,41.9
			c-1.4,4.9-2.7,9.9-3.9,14.9c70.3,111.8,187,146.1,276.8,89.3c4-2.4,8.2-4.5,12.5-6.3c8.9-3.9,17.2-9.6,23.5-17.5
			c6.8-8.5,11.3-18.2,19.4-25.6c26.3-24,52.8-3.3,72.3,19.1c13.8,15.8,31.7,25.5,50.9,30.1c8.7,5.4,18.8,8.6,28.8,10.2
			c16.6,2.6,33.5,1.4,50.2,2h0.3c16.8,0.7,32.8,7.5,45.3,19.4c32.5,30.9,61.4,75.9,87.6,131.4c3.9,8.2,15.1,8.1,18.7-0.3
			c28.7-66.6,80.4-122.3,146.8-171L828.3,394.8z"/>
		<g class="st1">
			<path d="M668.4,504.1c20.3,53.4,58.4,75.8,114.1,66.9c-20.2,27.6-50.5,46.3-84.3,51.9c-6.5,1.1-13.3,1.5-19.3-1
				c-6.6-2.8-11.1-8.9-14.7-15.1c-17.5-30.6-17.6-70.5-0.1-101.1"/>
		</g>
		<path class="st7" d="M723.3,446.7c2-0.8,4.1-1.3,6.2-1.7c8.1-1.3,16.3,0.2,23.4,4.4c38.1,22.5,57.1,61.4,52.7,103.2
			c-7,6.2-15,11.2-23.7,14.7c-20.1,8.4-44.5,10.7-71.4,9.6c-9.9-0.4-19.1-5.1-24.1-12.9C662.7,526.8,664.9,468.9,723.3,446.7z"/>
		<g class="st1">
			<path d="M729.5,445c8.1-1.3,16.3,0.2,23.4,4.4c38.1,22.5,57.1,61.4,52.7,103.2c-7,6.2-15,11.2-23.7,14.7
				c-17.5,4.9-37.5,6.2-59.2,5.4c-9.9-0.4-19.1-5.1-24.1-12.9C675.8,523.9,677,468.8,729.5,445z"/>
		</g>
		<path d="M710.1,585.5c-13-0.5-24.6-6.8-31-16.9c-15.4-24.1-19.6-53.5-11.4-78.4c5.5-16.5,19-38.7,52.5-51.5l0,0
			c12.2-4.6,25.8-3.3,37.1,3.3c40.4,23.9,61.7,65.6,56.9,111.5c-0.2,2.1-1.2,4.1-2.8,5.5c-20.3,18.2-48.8,26.8-89.4,26.8
			C718.1,585.7,714.2,585.6,710.1,585.5z M797.5,548.3c2.7-37.7-15.4-71.7-48.9-91.6c-6.7-4-14.9-4.7-22.2-2l0,0
			c-21.5,8.2-36.1,22.3-42.3,40.9c-6.6,19.8-2.9,44.3,9.5,63.9c3.4,5.3,10,8.7,17.2,9C751.1,569.9,778.8,563.5,797.5,548.3
			L797.5,548.3z"/>
		<path class="st7" d="M761.4,454.9c-28.7-21.5-55.8-6.5-81.9,29.2c28.8,59.9,75.4,93.1,126.1,68.5
			C810.1,508.1,790.6,478.5,761.4,454.9z"/>
		<path d="M679.5,484.1c28.9,60,75.5,93.1,126.3,68.4l-0.1-0.4c-38.7,9.8-74-12.9-99.2-53.5c-6.2-10.1-4.8-23.1,3.4-31.6
			c10.8-11.2,21.8-18.6,33.1-21.1C721,440.9,700,456.1,679.5,484.1z"/>
		<path d="M746.5,563.5c-28.4-9.9-54.5-37-73.4-76.3c-1.1-2.4-0.9-5.2,0.7-7.3c18.5-25.3,36.3-38.9,54.3-41.6
			c12.7-1.9,25.4,1.8,37.8,11.1c36.1,29.2,51,62.3,46.9,103.9c-0.2,2.5-1.8,4.6-4,5.7c-12.3,6-24.6,8.9-36.8,8.9
			C763.3,567.9,754.7,566.4,746.5,563.5z M798.9,547.8c2.3-35-10.7-62-41.8-87.2c-9.1-6.8-17.9-9.5-26.9-8.2
			c-13.1,2-27.4,12.9-42.4,32.5c17.1,33.8,39.5,56.8,63.4,65.2C766.8,555.4,782.8,554.7,798.9,547.8L798.9,547.8z"/>
		<g class="st8">
			<path class="st3" d="M745.4,464.5c23.5,10,47.1,38.6,47,70.2C766.8,515.9,762.1,487.4,745.4,464.5z"/>
		</g>
		<ellipse cx="533.7" cy="379.1" rx="78.5" ry="95.7"/>
		<ellipse class="st3" cx="564" cy="362.9" rx="23.9" ry="36.6"/>
		<g class="st9">
			
				<ellipse transform="matrix(0.9536 -0.3012 0.3012 0.9536 -102.8186 171.4137)" class="st3" cx="504.5" cy="419.1" rx="18.4" ry="28.2"/>
		</g>
		<ellipse cx="882.8" cy="379.1" rx="78.5" ry="95.7"/>
		<ellipse class="st3" cx="852.5" cy="362.9" rx="23.9" ry="36.6"/>
		<g class="st9">
			
				<ellipse transform="matrix(0.3012 -0.9536 0.9536 0.3012 237.5873 1162.7703)" class="st3" cx="912.1" cy="419.3" rx="28.2" ry="18.4"/>
		</g>
	</g>
	<circle class="st10" cx="500" cy="501.3" r="485"/>
</g>
</svg>
