<svg id="Capa_1" data-name="Capa 1" xmlns="http://www.w3.org/2000/svg" xmlns:xlink="http://www.w3.org/1999/xlink" viewBox="0 0 3916.69 2500"><defs><style>.cls-1{fill:#171918;}.cls-2{fill:url(#Degradado_sin_nombre_4);}.cls-3{fill:url(#Degradado_sin_nombre_4-2);}.cls-4{fill:url(#Degradado_sin_nombre_4-3);}.cls-5{fill:url(#Degradado_sin_nombre_4-4);}.cls-6{fill:url(#Degradado_sin_nombre_4-5);}.cls-7{fill:url(#Degradado_sin_nombre_4-6);}.cls-8{fill:url(#Degradado_sin_nombre_4-7);}.cls-9{fill:none;stroke-miterlimit:10;stroke-width:30.69px;stroke:url(#Degradado_sin_nombre_4-8);}</style><linearGradient id="Degradado_sin_nombre_4" x1="-969.51" y1="28.45" x2="-969.51" y2="686.28" gradientTransform="translate(736.44 882.77)" gradientUnits="userSpaceOnUse"><stop offset="0" stop-color="#e6007a"/><stop offset="0.3" stop-color="#e30078"/><stop offset="0.52" stop-color="#da0074"/><stop offset="0.71" stop-color="#ca006b"/><stop offset="0.89" stop-color="#b3005f"/><stop offset="1" stop-color="#a10056"/></linearGradient><linearGradient id="Degradado_sin_nombre_4-2" x1="-407.45" y1="28.45" x2="-407.45" y2="686.08" xlink:href="#Degradado_sin_nombre_4"/><linearGradient id="Degradado_sin_nombre_4-3" x1="214.64" y1="28.45" x2="214.64" y2="686.08" xlink:href="#Degradado_sin_nombre_4"/><linearGradient id="Degradado_sin_nombre_4-4" x1="837.07" y1="28.45" x2="837.07" y2="686.08" xlink:href="#Degradado_sin_nombre_4"/><linearGradient id="Degradado_sin_nombre_4-5" x1="1466.51" y1="28.45" x2="1466.51" y2="705.19" xlink:href="#Degradado_sin_nombre_4"/><linearGradient id="Degradado_sin_nombre_4-6" x1="1978.48" y1="28.45" x2="1978.48" y2="686.08" xlink:href="#Degradado_sin_nombre_4"/><linearGradient id="Degradado_sin_nombre_4-7" x1="2169.57" y1="647.75" x2="2277.38" y2="647.75" gradientTransform="translate(1444.78 882.77)" xlink:href="#Degradado_sin_nombre_4"/><linearGradient id="Degradado_sin_nombre_4-8" x1="-1444.78" y1="367.23" x2="2471.9" y2="367.23" xlink:href="#Degradado_sin_nombre_4"/></defs><rect class="cls-1" x="2500" transform="translate(5708.34 0) rotate(180)"/><rect class="cls-1" x="2500" y="2500" transform="translate(5708.34 5000) rotate(180)"/><rect class="cls-1" y="2500" transform="translate(708.34 5000) rotate(180)"/><rect class="cls-1" x="708.34"/><path class="cls-2" d="M-493.72,1569.05V911.22h119.57v657.63H-493.72Zm87.46-93.66-16.14-161.62,264.84-402.55H-.92Zm285.57,93.46L-311.6,1234.46l107-67.56L27.58,1568.85Z" transform="translate(708.34 0)"/><path class="cls-3" d="M37.76,1568.85,289.42,911.22h79.33l251.47,657.63H486.16L328.69,1119.46,171.23,1568.85Zm126.15-99.64V1349.64H502.69v119.57Z" transform="translate(708.34 0)"/><path class="cls-4" d="M702,1568.85V911.22H854.44L1091.08,1418l-10.47,11.76V911.22h119.57v657.63H1051.29L809,1080l12.58-12v500.86Z" transform="translate(708.34 0)"/><path class="cls-5" d="M1282.27,1568.85l251.47-657.63h79.33l251.67,657.63H1731.27L1573.8,1119.46l-157.66,449.39Zm117.19-99.64V1349.64h338.78v119.57Z" transform="translate(708.34 0)"/><path class="cls-6" d="M1957.45,1568.85V911.22H2077v657.63Zm19.93-259.07V1190.22h250.07c18,3.82,35.21-4.32,46.23-18.6a99.65,99.65,0,0,0,0-112.8c-11.76-14-28.92-22.43-47.23-28H1997.31V911.22h238.51c33.64,5.61,66.95,13.91,96,30.82a161.5,161.5,0,0,1,63.58,69,248.94,248.94,0,0,1,0,208.25,168.65,168.65,0,0,1-63.78,69.16c-29.11,16.81-62.23,25.42-95.85,21.38ZM2296.8,1588l-159.43-286.17,133.12-19.92,178,306.89Z" transform="translate(708.34 0)"/><path class="cls-7" d="M2962,911.22l-187.45,404v253.65H2654.94V1315.2l-187.07-404h125.55l121.5,283,121.49-283Z" transform="translate(708.34 0)"/><ellipse class="cls-8" cx="3668.16" cy="1530.52" rx="54.01" ry="53.81"/><path class="cls-9" d="M3072.24,1728.28H-572.24A120.77,120.77,0,0,1-693,1607.51v-715A120.77,120.77,0,0,1-572.24,771.72H3072.24A120.77,120.77,0,0,1,3193,892.49v715A120.77,120.77,0,0,1,3072.24,1728.28Z" transform="translate(708.34 0)"/></svg>