<svg id="Capa_1" data-name="Capa 1" xmlns="http://www.w3.org/2000/svg" viewBox="0 0 2500 2500"><defs><style>.cls-1{fill:#171918;}.cls-2{fill:#b70069;}.cls-3{fill:#df0076;}</style></defs><rect class="cls-1" x="2500" transform="translate(5000 0) rotate(180)"/><rect class="cls-1" x="2500" y="2500" transform="translate(5000 5000) rotate(180)"/><rect class="cls-1" y="2500" transform="translate(0 5000) rotate(180)"/><rect class="cls-1"/><ellipse class="cls-2" cx="1259.39" cy="696.33" rx="256.97" ry="149.45"/><ellipse class="cls-2" cx="1259.39" cy="1822.42" rx="256.97" ry="149.45"/><ellipse class="cls-2" cx="771.77" cy="977.88" rx="256.96" ry="149.55" transform="translate(-460.99 1157.3) rotate(-60)"/><ellipse class="cls-2" cx="1746.98" cy="1540.91" rx="256.96" ry="149.45" transform="translate(-460.99 2283.36) rotate(-60)"/><ellipse class="cls-2" cx="771.81" cy="1540.88" rx="149.55" ry="256.96" transform="translate(-667.05 592.36) rotate(-30)"/><ellipse class="cls-2" cx="1747.04" cy="977.91" rx="149.45" ry="256.96" transform="translate(-254.9 1004.56) rotate(-30)"/><ellipse class="cls-3" cx="1240.64" cy="677.58" rx="256.97" ry="149.45"/><ellipse class="cls-3" cx="1240.64" cy="1803.67" rx="256.97" ry="149.45"/><ellipse class="cls-3" cx="753.02" cy="959.13" rx="256.96" ry="149.55" transform="translate(-454.12 1131.68) rotate(-60)"/><ellipse class="cls-3" cx="1728.23" cy="1522.16" rx="256.96" ry="149.45" transform="translate(-454.12 2257.74) rotate(-60)"/><ellipse class="cls-3" cx="753.06" cy="1522.13" rx="149.55" ry="256.96" transform="translate(-660.18 580.47) rotate(-30)"/><ellipse class="cls-3" cx="1728.29" cy="959.16" rx="149.45" ry="256.96" transform="translate(-248.03 992.67) rotate(-30)"/></svg>