<svg id="Capa_1" data-name="Capa 1" xmlns="http://www.w3.org/2000/svg" xmlns:xlink="http://www.w3.org/1999/xlink" viewBox="0 0 2500 2500"><defs><style>.cls-1{fill:url(#Degradado_sin_nombre_5);}.cls-2{fill:url(#Degradado_sin_nombre_220);}.cls-3{fill:url(#Degradado_sin_nombre_46);}.cls-4{fill:url(#Degradado_sin_nombre_47);}.cls-5{fill:url(#Degradado_sin_nombre_121);}.cls-6{fill:#fff;}</style><radialGradient id="Degradado_sin_nombre_5" cx="1250.22" cy="1250.39" r="980.78" gradientUnits="userSpaceOnUse"><stop offset="0" stop-color="gray"/><stop offset="0.4" stop-color="#828282"/><stop offset="0.57" stop-color="#898989"/><stop offset="0.69" stop-color="#969696"/><stop offset="0.8" stop-color="#a7a7a7"/><stop offset="0.89" stop-color="#bfbfbf"/><stop offset="0.97" stop-color="#dbdbdb"/><stop offset="1" stop-color="#e6e6e6"/></radialGradient><linearGradient id="Degradado_sin_nombre_220" x1="1261.5" y1="401.83" x2="1691.76" y2="401.83" gradientUnits="userSpaceOnUse"><stop offset="0" stop-color="#ff0b97"/><stop offset="1" stop-color="#b7236d"/></linearGradient><linearGradient id="Degradado_sin_nombre_46" x1="1606.54" y1="673.57" x2="2172.23" y2="673.57" gradientUnits="userSpaceOnUse"><stop offset="0" stop-color="#ff2cce"/><stop offset="1" stop-color="#b72389"/></linearGradient><linearGradient id="Degradado_sin_nombre_47" x1="269.44" y1="1250.39" x2="1261.5" y2="1250.39" gradientUnits="userSpaceOnUse"><stop offset="0" stop-color="#e20077"/><stop offset="1" stop-color="#8a2454"/></linearGradient><linearGradient id="Degradado_sin_nombre_121" x1="1931.33" y1="1298.12" x2="2231" y2="1298.12" gradientUnits="userSpaceOnUse"><stop offset="0" stop-color="#ff6fce"/><stop offset="1" stop-color="#e159ac"/></linearGradient></defs><path class="cls-1" d="M2059.8,1733.48c-29.06-13.2-57.66-27.35-85.51-43-12.8-7.17-25.77-14.42-38.47-22.1-140.76,230.35-394.34,384.25-683.92,384.85,1.1,39.4,3.88,78.57,1.86,118.14-1,19.95-2.65,39.86-4.6,59.74h1.06c359.64,0,674.07-193.58,844.79-482.22C2083.23,1743.9,2071.48,1738.78,2059.8,1733.48Z"/><path class="cls-2" d="M1261.5,447.62A799.16,799.16,0,0,1,1613,534l78.72-159.57A976.34,976.34,0,0,0,1261.5,269.68Z"/><path class="cls-3" d="M1685.38,371.2l-78.84,159.54c183.77,91.17,327.67,250.61,398.44,445.19l167.25-60.69C2085.78,677.45,1910,482.57,1685.38,371.2Z"/><path class="cls-4" d="M1261.5,2053.16c-3.76.05-7.51.14-11.28.14-443.43,0-802.91-359.48-802.91-802.91s359.48-802.91,802.91-802.91c3.77,0,7.52.09,11.28.14V269.68c-3.76,0-7.51-.07-11.28-.07-541.67,0-980.78,439.11-980.78,980.78s439.11,980.78,980.78,980.78c3.77,0,7.52,0,11.28-.07Z"/><path class="cls-5" d="M2081,1771.86c95-151.06,150-329.84,150-521.47a976.87,976.87,0,0,0-97.1-426l-160.05,77.69a803.91,803.91,0,0,1-42.52,773.55Z"/><rect class="cls-6" x="2500"/><rect class="cls-6" x="2500" y="2500"/><rect class="cls-6" y="2500"/><rect class="cls-6"/></svg>